<mxfile host="app.diagrams.net" modified="2023-08-29T21:17:02.329Z" agent="Mozilla/5.0 (Windows NT 10.0; Win64; x64) AppleWebKit/537.36 (KHTML, like Gecko) Chrome/116.0.0.0 Safari/537.36" etag="Fn0PCt-XyhtWOFDPgiMt" version="21.6.9" type="device">
  <diagram id="C5RBs43oDa-KdzZeNtuy" name="Page-1">
    <mxGraphModel dx="2587" dy="3967" grid="1" gridSize="10" guides="1" tooltips="1" connect="1" arrows="1" fold="1" page="1" pageScale="1" pageWidth="827" pageHeight="1169" math="0" shadow="0">
      <root>
        <mxCell id="WIyWlLk6GJQsqaUBKTNV-0" />
        <mxCell id="WIyWlLk6GJQsqaUBKTNV-1" parent="WIyWlLk6GJQsqaUBKTNV-0" />
        <mxCell id="kchw-U7hw0C-sCnVVzNL-82" style="edgeStyle=orthogonalEdgeStyle;rounded=0;orthogonalLoop=1;jettySize=auto;html=1;" parent="WIyWlLk6GJQsqaUBKTNV-1" source="kchw-U7hw0C-sCnVVzNL-5" target="kchw-U7hw0C-sCnVVzNL-10" edge="1">
          <mxGeometry relative="1" as="geometry" />
        </mxCell>
        <mxCell id="kchw-U7hw0C-sCnVVzNL-5" value="GObject (GameObject)" style="swimlane;fontStyle=1;align=center;verticalAlign=top;childLayout=stackLayout;horizontal=1;startSize=26;horizontalStack=0;resizeParent=1;resizeParentMax=0;resizeLast=0;collapsible=1;marginBottom=0;whiteSpace=wrap;html=1;" parent="WIyWlLk6GJQsqaUBKTNV-1" vertex="1">
          <mxGeometry x="370" y="-1050" width="160" height="110" as="geometry" />
        </mxCell>
        <mxCell id="kchw-U7hw0C-sCnVVzNL-6" value="+ Transform: Unity&lt;br&gt;+ G Object: script&lt;br&gt;+ Scene Time: script&lt;br&gt;+ Membrane Filteration Scene: script" style="text;strokeColor=none;fillColor=none;align=left;verticalAlign=top;spacingLeft=4;spacingRight=4;overflow=hidden;rotatable=0;points=[[0,0.5],[1,0.5]];portConstraint=eastwest;whiteSpace=wrap;html=1;" parent="kchw-U7hw0C-sCnVVzNL-5" vertex="1">
          <mxGeometry y="26" width="160" height="84" as="geometry" />
        </mxCell>
        <mxCell id="kchw-U7hw0C-sCnVVzNL-31" style="edgeStyle=orthogonalEdgeStyle;rounded=0;orthogonalLoop=1;jettySize=auto;html=1;" parent="WIyWlLk6GJQsqaUBKTNV-1" source="kchw-U7hw0C-sCnVVzNL-10" target="kchw-U7hw0C-sCnVVzNL-14" edge="1">
          <mxGeometry relative="1" as="geometry">
            <Array as="points">
              <mxPoint x="390" y="-740" />
              <mxPoint x="342" y="-740" />
              <mxPoint x="342" y="-640" />
            </Array>
          </mxGeometry>
        </mxCell>
        <mxCell id="kchw-U7hw0C-sCnVVzNL-32" style="edgeStyle=orthogonalEdgeStyle;rounded=0;orthogonalLoop=1;jettySize=auto;html=1;" parent="WIyWlLk6GJQsqaUBKTNV-1" source="kchw-U7hw0C-sCnVVzNL-10" target="kchw-U7hw0C-sCnVVzNL-19" edge="1">
          <mxGeometry relative="1" as="geometry">
            <Array as="points">
              <mxPoint x="510" y="-770" />
              <mxPoint x="510" y="-770" />
            </Array>
          </mxGeometry>
        </mxCell>
        <mxCell id="kchw-U7hw0C-sCnVVzNL-83" style="edgeStyle=orthogonalEdgeStyle;rounded=0;orthogonalLoop=1;jettySize=auto;html=1;" parent="WIyWlLk6GJQsqaUBKTNV-1" source="kchw-U7hw0C-sCnVVzNL-10" target="kchw-U7hw0C-sCnVVzNL-78" edge="1">
          <mxGeometry relative="1" as="geometry">
            <Array as="points">
              <mxPoint x="414" y="-780" />
            </Array>
          </mxGeometry>
        </mxCell>
        <mxCell id="kchw-U7hw0C-sCnVVzNL-10" value="G Object (script)&lt;br&gt;" style="swimlane;fontStyle=1;align=center;verticalAlign=top;childLayout=stackLayout;horizontal=1;startSize=26;horizontalStack=0;resizeParent=1;resizeParentMax=0;resizeLast=0;collapsible=1;marginBottom=0;whiteSpace=wrap;html=1;" parent="WIyWlLk6GJQsqaUBKTNV-1" vertex="1">
          <mxGeometry x="370" y="-900" width="160" height="130" as="geometry" />
        </mxCell>
        <mxCell id="kchw-U7hw0C-sCnVVzNL-11" value="+ scene: [SerializeField]&lt;br&gt;&amp;nbsp;SceneTypes&amp;nbsp;" style="text;strokeColor=none;fillColor=none;align=left;verticalAlign=top;spacingLeft=4;spacingRight=4;overflow=hidden;rotatable=0;points=[[0,0.5],[1,0.5]];portConstraint=eastwest;whiteSpace=wrap;html=1;" parent="kchw-U7hw0C-sCnVVzNL-10" vertex="1">
          <mxGeometry y="26" width="160" height="44" as="geometry" />
        </mxCell>
        <mxCell id="kchw-U7hw0C-sCnVVzNL-12" value="" style="line;strokeWidth=1;fillColor=none;align=left;verticalAlign=middle;spacingTop=-1;spacingLeft=3;spacingRight=3;rotatable=0;labelPosition=right;points=[];portConstraint=eastwest;strokeColor=inherit;" parent="kchw-U7hw0C-sCnVVzNL-10" vertex="1">
          <mxGeometry y="70" width="160" height="8" as="geometry" />
        </mxCell>
        <mxCell id="kchw-U7hw0C-sCnVVzNL-13" value="+ Start(): private void&lt;br&gt;+ Update(): private void" style="text;strokeColor=none;fillColor=none;align=left;verticalAlign=top;spacingLeft=4;spacingRight=4;overflow=hidden;rotatable=0;points=[[0,0.5],[1,0.5]];portConstraint=eastwest;whiteSpace=wrap;html=1;" parent="kchw-U7hw0C-sCnVVzNL-10" vertex="1">
          <mxGeometry y="78" width="160" height="52" as="geometry" />
        </mxCell>
        <mxCell id="kchw-U7hw0C-sCnVVzNL-14" value="SceneTypes (script)" style="swimlane;fontStyle=1;align=center;verticalAlign=top;childLayout=stackLayout;horizontal=1;startSize=26;horizontalStack=0;resizeParent=1;resizeParentMax=0;resizeLast=0;collapsible=1;marginBottom=0;whiteSpace=wrap;html=1;" parent="WIyWlLk6GJQsqaUBKTNV-1" vertex="1">
          <mxGeometry x="160" y="-745" width="160" height="250" as="geometry" />
        </mxCell>
        <mxCell id="kchw-U7hw0C-sCnVVzNL-15" value="+ public enum" style="text;strokeColor=none;fillColor=none;align=left;verticalAlign=top;spacingLeft=4;spacingRight=4;overflow=hidden;rotatable=0;points=[[0,0.5],[1,0.5]];portConstraint=eastwest;whiteSpace=wrap;html=1;" parent="kchw-U7hw0C-sCnVVzNL-14" vertex="1">
          <mxGeometry y="26" width="160" height="26" as="geometry" />
        </mxCell>
        <mxCell id="kchw-U7hw0C-sCnVVzNL-16" value="" style="line;strokeWidth=1;fillColor=none;align=left;verticalAlign=middle;spacingTop=-1;spacingLeft=3;spacingRight=3;rotatable=0;labelPosition=right;points=[];portConstraint=eastwest;strokeColor=inherit;" parent="kchw-U7hw0C-sCnVVzNL-14" vertex="1">
          <mxGeometry y="52" width="160" height="8" as="geometry" />
        </mxCell>
        <mxCell id="kchw-U7hw0C-sCnVVzNL-17" value="+ MainMenu,&lt;br&gt;Tutorial,&lt;br&gt;MedicinePreparation,&lt;br&gt;MembraneFilteration,&lt;br&gt;ChangingRoom,&lt;br&gt;Restart,&lt;br&gt;FireHazard,&lt;br&gt;FireExtinguisherTutorial,&lt;br&gt;FireBlanketTutorial,&lt;br&gt;EyeShowerTutorial,&lt;br&gt;EmergencyShowerTutorial,&lt;br&gt;Laboratory" style="text;strokeColor=none;fillColor=none;align=left;verticalAlign=top;spacingLeft=4;spacingRight=4;overflow=hidden;rotatable=0;points=[[0,0.5],[1,0.5]];portConstraint=eastwest;whiteSpace=wrap;html=1;" parent="kchw-U7hw0C-sCnVVzNL-14" vertex="1">
          <mxGeometry y="60" width="160" height="190" as="geometry" />
        </mxCell>
        <mxCell id="kchw-U7hw0C-sCnVVzNL-30" style="edgeStyle=orthogonalEdgeStyle;rounded=0;orthogonalLoop=1;jettySize=auto;html=1;" parent="WIyWlLk6GJQsqaUBKTNV-1" source="kchw-U7hw0C-sCnVVzNL-19" target="kchw-U7hw0C-sCnVVzNL-26" edge="1">
          <mxGeometry relative="1" as="geometry">
            <Array as="points">
              <mxPoint x="350" y="-470" />
            </Array>
          </mxGeometry>
        </mxCell>
        <mxCell id="kchw-U7hw0C-sCnVVzNL-37" style="edgeStyle=orthogonalEdgeStyle;rounded=0;orthogonalLoop=1;jettySize=auto;html=1;" parent="WIyWlLk6GJQsqaUBKTNV-1" source="kchw-U7hw0C-sCnVVzNL-19" target="kchw-U7hw0C-sCnVVzNL-33" edge="1">
          <mxGeometry relative="1" as="geometry">
            <Array as="points">
              <mxPoint x="690" y="-416" />
              <mxPoint x="690" y="-416" />
            </Array>
          </mxGeometry>
        </mxCell>
        <mxCell id="kchw-U7hw0C-sCnVVzNL-42" style="edgeStyle=orthogonalEdgeStyle;rounded=0;orthogonalLoop=1;jettySize=auto;html=1;" parent="WIyWlLk6GJQsqaUBKTNV-1" source="kchw-U7hw0C-sCnVVzNL-19" target="kchw-U7hw0C-sCnVVzNL-38" edge="1">
          <mxGeometry relative="1" as="geometry">
            <Array as="points">
              <mxPoint x="770" y="-270" />
            </Array>
          </mxGeometry>
        </mxCell>
        <mxCell id="kchw-U7hw0C-sCnVVzNL-71" style="edgeStyle=orthogonalEdgeStyle;rounded=0;orthogonalLoop=1;jettySize=auto;html=1;" parent="WIyWlLk6GJQsqaUBKTNV-1" source="kchw-U7hw0C-sCnVVzNL-19" target="kchw-U7hw0C-sCnVVzNL-66" edge="1">
          <mxGeometry relative="1" as="geometry" />
        </mxCell>
        <mxCell id="kchw-U7hw0C-sCnVVzNL-84" style="edgeStyle=orthogonalEdgeStyle;rounded=0;orthogonalLoop=1;jettySize=auto;html=1;" parent="WIyWlLk6GJQsqaUBKTNV-1" source="kchw-U7hw0C-sCnVVzNL-19" target="kchw-U7hw0C-sCnVVzNL-14" edge="1">
          <mxGeometry relative="1" as="geometry">
            <Array as="points">
              <mxPoint x="410" y="-600" />
              <mxPoint x="410" y="-600" />
            </Array>
          </mxGeometry>
        </mxCell>
        <mxCell id="kchw-U7hw0C-sCnVVzNL-19" value="G (script)" style="swimlane;fontStyle=1;align=center;verticalAlign=top;childLayout=stackLayout;horizontal=1;startSize=26;horizontalStack=0;resizeParent=1;resizeParentMax=0;resizeLast=0;collapsible=1;marginBottom=0;whiteSpace=wrap;html=1;" parent="WIyWlLk6GJQsqaUBKTNV-1" vertex="1">
          <mxGeometry x="430" y="-611" width="160" height="370" as="geometry" />
        </mxCell>
        <mxCell id="kchw-U7hw0C-sCnVVzNL-20" value="public sealed class&lt;br&gt;+ instance: private static read only G&lt;br&gt;+ Instance: public AudioManager&lt;br&gt;+ Progress: public ProgressManager&lt;br&gt;+ Pipeline: public PipelineManager&lt;br&gt;+ CurrentSceneTypes: public SceneTypes&lt;br&gt;+ sceneScript: private SceneScript" style="text;strokeColor=none;fillColor=none;align=left;verticalAlign=top;spacingLeft=4;spacingRight=4;overflow=hidden;rotatable=0;points=[[0,0.5],[1,0.5]];portConstraint=eastwest;whiteSpace=wrap;html=1;" parent="kchw-U7hw0C-sCnVVzNL-19" vertex="1">
          <mxGeometry y="26" width="160" height="204" as="geometry" />
        </mxCell>
        <mxCell id="kchw-U7hw0C-sCnVVzNL-21" value="" style="line;strokeWidth=1;fillColor=none;align=left;verticalAlign=middle;spacingTop=-1;spacingLeft=3;spacingRight=3;rotatable=0;labelPosition=right;points=[];portConstraint=eastwest;strokeColor=inherit;" parent="kchw-U7hw0C-sCnVVzNL-19" vertex="1">
          <mxGeometry y="230" width="160" height="8" as="geometry" />
        </mxCell>
        <mxCell id="kchw-U7hw0C-sCnVVzNL-22" value="+ SceneScript(): public&lt;br&gt;+ G(): static&lt;br&gt;+ G(): private&lt;br&gt;+ ResetProgressManager(): public void&lt;br&gt;+ Update(float): public void&lt;br&gt;+ CheckConfiguration(): private static void" style="text;strokeColor=none;fillColor=none;align=left;verticalAlign=top;spacingLeft=4;spacingRight=4;overflow=hidden;rotatable=0;points=[[0,0.5],[1,0.5]];portConstraint=eastwest;whiteSpace=wrap;html=1;" parent="kchw-U7hw0C-sCnVVzNL-19" vertex="1">
          <mxGeometry y="238" width="160" height="132" as="geometry" />
        </mxCell>
        <mxCell id="kchw-U7hw0C-sCnVVzNL-57" style="edgeStyle=orthogonalEdgeStyle;rounded=0;orthogonalLoop=1;jettySize=auto;html=1;" parent="WIyWlLk6GJQsqaUBKTNV-1" source="kchw-U7hw0C-sCnVVzNL-26" target="kchw-U7hw0C-sCnVVzNL-53" edge="1">
          <mxGeometry relative="1" as="geometry">
            <Array as="points">
              <mxPoint x="20" y="-270" />
            </Array>
          </mxGeometry>
        </mxCell>
        <mxCell id="kchw-U7hw0C-sCnVVzNL-63" style="edgeStyle=orthogonalEdgeStyle;rounded=0;orthogonalLoop=1;jettySize=auto;html=1;" parent="WIyWlLk6GJQsqaUBKTNV-1" source="kchw-U7hw0C-sCnVVzNL-26" target="kchw-U7hw0C-sCnVVzNL-59" edge="1">
          <mxGeometry relative="1" as="geometry">
            <Array as="points">
              <mxPoint x="-90" y="-200" />
              <mxPoint x="-90" y="490" />
            </Array>
          </mxGeometry>
        </mxCell>
        <mxCell id="kchw-U7hw0C-sCnVVzNL-90" style="edgeStyle=orthogonalEdgeStyle;rounded=0;orthogonalLoop=1;jettySize=auto;html=1;" parent="WIyWlLk6GJQsqaUBKTNV-1" source="kchw-U7hw0C-sCnVVzNL-26" target="kchw-U7hw0C-sCnVVzNL-85" edge="1">
          <mxGeometry relative="1" as="geometry">
            <Array as="points">
              <mxPoint x="-120" y="-230" />
              <mxPoint x="-120" y="-755" />
            </Array>
          </mxGeometry>
        </mxCell>
        <mxCell id="W0nB9QTuxgTVNlyttxNB-0" style="edgeStyle=orthogonalEdgeStyle;rounded=0;orthogonalLoop=1;jettySize=auto;html=1;" parent="WIyWlLk6GJQsqaUBKTNV-1" source="kchw-U7hw0C-sCnVVzNL-26" target="kchw-U7hw0C-sCnVVzNL-91" edge="1">
          <mxGeometry relative="1" as="geometry">
            <Array as="points">
              <mxPoint x="160" y="-40" />
              <mxPoint x="160" y="-40" />
            </Array>
          </mxGeometry>
        </mxCell>
        <mxCell id="W0nB9QTuxgTVNlyttxNB-5" style="edgeStyle=orthogonalEdgeStyle;rounded=0;orthogonalLoop=1;jettySize=auto;html=1;" parent="WIyWlLk6GJQsqaUBKTNV-1" source="kchw-U7hw0C-sCnVVzNL-26" target="W0nB9QTuxgTVNlyttxNB-1" edge="1">
          <mxGeometry relative="1" as="geometry">
            <Array as="points">
              <mxPoint x="120" y="-430" />
              <mxPoint x="120" y="-470" />
            </Array>
          </mxGeometry>
        </mxCell>
        <mxCell id="W0nB9QTuxgTVNlyttxNB-8" style="edgeStyle=orthogonalEdgeStyle;rounded=0;orthogonalLoop=1;jettySize=auto;html=1;" parent="WIyWlLk6GJQsqaUBKTNV-1" source="kchw-U7hw0C-sCnVVzNL-26" target="kchw-U7hw0C-sCnVVzNL-73" edge="1">
          <mxGeometry relative="1" as="geometry">
            <Array as="points">
              <mxPoint x="-280" y="-160" />
              <mxPoint x="-280" y="-160" />
            </Array>
          </mxGeometry>
        </mxCell>
        <mxCell id="W0nB9QTuxgTVNlyttxNB-77" style="edgeStyle=orthogonalEdgeStyle;rounded=0;orthogonalLoop=1;jettySize=auto;html=1;" parent="WIyWlLk6GJQsqaUBKTNV-1" source="kchw-U7hw0C-sCnVVzNL-26" target="W0nB9QTuxgTVNlyttxNB-73" edge="1">
          <mxGeometry relative="1" as="geometry">
            <Array as="points">
              <mxPoint x="370" y="-50" />
              <mxPoint x="450" y="-50" />
            </Array>
          </mxGeometry>
        </mxCell>
        <mxCell id="W0nB9QTuxgTVNlyttxNB-89" style="edgeStyle=orthogonalEdgeStyle;rounded=0;orthogonalLoop=1;jettySize=auto;html=1;" parent="WIyWlLk6GJQsqaUBKTNV-1" source="kchw-U7hw0C-sCnVVzNL-26" target="W0nB9QTuxgTVNlyttxNB-85" edge="1">
          <mxGeometry relative="1" as="geometry">
            <Array as="points">
              <mxPoint x="260" y="60" />
              <mxPoint x="260" y="60" />
            </Array>
          </mxGeometry>
        </mxCell>
        <mxCell id="W0nB9QTuxgTVNlyttxNB-132" style="edgeStyle=orthogonalEdgeStyle;rounded=0;orthogonalLoop=1;jettySize=auto;html=1;" parent="WIyWlLk6GJQsqaUBKTNV-1" source="kchw-U7hw0C-sCnVVzNL-26" target="W0nB9QTuxgTVNlyttxNB-118" edge="1">
          <mxGeometry relative="1" as="geometry">
            <Array as="points">
              <mxPoint x="350" y="260" />
              <mxPoint x="350" y="260" />
            </Array>
          </mxGeometry>
        </mxCell>
        <mxCell id="kchw-U7hw0C-sCnVVzNL-26" value="ProgressManager (script)" style="swimlane;fontStyle=1;align=center;verticalAlign=top;childLayout=stackLayout;horizontal=1;startSize=26;horizontalStack=0;resizeParent=1;resizeParentMax=0;resizeLast=0;collapsible=1;marginBottom=0;whiteSpace=wrap;html=1;" parent="WIyWlLk6GJQsqaUBKTNV-1" vertex="1">
          <mxGeometry x="130" y="-451" width="260" height="320" as="geometry" />
        </mxCell>
        <mxCell id="kchw-U7hw0C-sCnVVzNL-27" value="+ scenarioPackages: private List&amp;lt;Package&amp;gt;&lt;br&gt;+ scenarioTasks: private List&amp;lt;Task&amp;gt;&lt;br&gt;+ Calculator: public ScoreCalculator&lt;br&gt;+ CurrentPackage: public Package" style="text;strokeColor=none;fillColor=none;align=left;verticalAlign=top;spacingLeft=4;spacingRight=4;overflow=hidden;rotatable=0;points=[[0,0.5],[1,0.5]];portConstraint=eastwest;whiteSpace=wrap;html=1;" parent="kchw-U7hw0C-sCnVVzNL-26" vertex="1">
          <mxGeometry y="26" width="260" height="74" as="geometry" />
        </mxCell>
        <mxCell id="kchw-U7hw0C-sCnVVzNL-28" value="" style="line;strokeWidth=1;fillColor=none;align=left;verticalAlign=middle;spacingTop=-1;spacingLeft=3;spacingRight=3;rotatable=0;labelPosition=right;points=[];portConstraint=eastwest;strokeColor=inherit;" parent="kchw-U7hw0C-sCnVVzNL-26" vertex="1">
          <mxGeometry y="100" width="260" height="8" as="geometry" />
        </mxCell>
        <mxCell id="kchw-U7hw0C-sCnVVzNL-29" value="+ ProgressManager(): constructor&lt;br&gt;+ SetSceneType(SceneTypes): public void&lt;br&gt;+ GenerateScenarioOne(): private void&lt;br&gt;+ GenerateScenarioTwo(): private void&lt;br&gt;+ GenerateScenarioThree(): private void&lt;br&gt;+ CreatePackage(PackageName, List&amp;lt;TaskType&amp;gt;: private Package&lt;br&gt;+ UpdateDescription(): public void&lt;br&gt;+ ChangePackage(): public void&lt;br&gt;+ FinishScenario(): public void&lt;br&gt;+ ForceCloseActiveTasksInPackage(Task, Package): public void&lt;br&gt;+ SetProgress(byte[]): public void&lt;br&gt;" style="text;strokeColor=none;fillColor=none;align=left;verticalAlign=top;spacingLeft=4;spacingRight=4;overflow=hidden;rotatable=0;points=[[0,0.5],[1,0.5]];portConstraint=eastwest;whiteSpace=wrap;html=1;" parent="kchw-U7hw0C-sCnVVzNL-26" vertex="1">
          <mxGeometry y="108" width="260" height="212" as="geometry" />
        </mxCell>
        <mxCell id="kchw-U7hw0C-sCnVVzNL-52" style="edgeStyle=orthogonalEdgeStyle;rounded=0;orthogonalLoop=1;jettySize=auto;html=1;" parent="WIyWlLk6GJQsqaUBKTNV-1" source="kchw-U7hw0C-sCnVVzNL-33" target="kchw-U7hw0C-sCnVVzNL-43" edge="1">
          <mxGeometry relative="1" as="geometry" />
        </mxCell>
        <mxCell id="kchw-U7hw0C-sCnVVzNL-33" value="PipelineManager (script)" style="swimlane;fontStyle=1;align=center;verticalAlign=top;childLayout=stackLayout;horizontal=1;startSize=26;horizontalStack=0;resizeParent=1;resizeParentMax=0;resizeLast=0;collapsible=1;marginBottom=0;whiteSpace=wrap;html=1;" parent="WIyWlLk6GJQsqaUBKTNV-1" vertex="1">
          <mxGeometry x="710" y="-460" width="160" height="178" as="geometry" />
        </mxCell>
        <mxCell id="kchw-U7hw0C-sCnVVzNL-34" value="+ pipeLines: private List&amp;lt;Pipeline&amp;gt;" style="text;strokeColor=none;fillColor=none;align=left;verticalAlign=top;spacingLeft=4;spacingRight=4;overflow=hidden;rotatable=0;points=[[0,0.5],[1,0.5]];portConstraint=eastwest;whiteSpace=wrap;html=1;" parent="kchw-U7hw0C-sCnVVzNL-33" vertex="1">
          <mxGeometry y="26" width="160" height="44" as="geometry" />
        </mxCell>
        <mxCell id="kchw-U7hw0C-sCnVVzNL-35" value="" style="line;strokeWidth=1;fillColor=none;align=left;verticalAlign=middle;spacingTop=-1;spacingLeft=3;spacingRight=3;rotatable=0;labelPosition=right;points=[];portConstraint=eastwest;strokeColor=inherit;" parent="kchw-U7hw0C-sCnVVzNL-33" vertex="1">
          <mxGeometry y="70" width="160" height="8" as="geometry" />
        </mxCell>
        <mxCell id="kchw-U7hw0C-sCnVVzNL-36" value="+ PipelineManager(): constructor&lt;br&gt;+ New(): public Pipeline&lt;br&gt;+ Add(Pipeline): public Pipeline&lt;br&gt;+ Update(float): public void" style="text;strokeColor=none;fillColor=none;align=left;verticalAlign=top;spacingLeft=4;spacingRight=4;overflow=hidden;rotatable=0;points=[[0,0.5],[1,0.5]];portConstraint=eastwest;whiteSpace=wrap;html=1;" parent="kchw-U7hw0C-sCnVVzNL-33" vertex="1">
          <mxGeometry y="78" width="160" height="100" as="geometry" />
        </mxCell>
        <mxCell id="kchw-U7hw0C-sCnVVzNL-38" value="AudioManager (script)" style="swimlane;fontStyle=1;align=center;verticalAlign=top;childLayout=stackLayout;horizontal=1;startSize=26;horizontalStack=0;resizeParent=1;resizeParentMax=0;resizeLast=0;collapsible=1;marginBottom=0;whiteSpace=wrap;html=1;" parent="WIyWlLk6GJQsqaUBKTNV-1" vertex="1">
          <mxGeometry x="650" y="-240" width="240" height="420" as="geometry" />
        </mxCell>
        <mxCell id="kchw-U7hw0C-sCnVVzNL-39" value="+ AudioClipType: public enum&lt;br&gt;&lt;span style=&quot;white-space: pre;&quot;&gt;&#x9;&lt;/span&gt;+ LockedItem,&lt;br&gt;&lt;span style=&quot;white-space: pre;&quot;&gt;&#x9;&lt;/span&gt;MistakeMessage,&lt;br&gt;&lt;span style=&quot;white-space: pre;&quot;&gt;&#x9;&lt;/span&gt;TaskCompletedBeep,&lt;br&gt;&lt;span style=&quot;white-space: pre;&quot;&gt;&#x9;&lt;/span&gt;MinusPoint,&lt;br&gt;+ AUDIO_FILE_LOCATION: private const string&lt;br&gt;+ audioClips: private Dictionary&amp;lt;AudioClipType, AudioClipData&amp;gt;" style="text;strokeColor=none;fillColor=none;align=left;verticalAlign=top;spacingLeft=4;spacingRight=4;overflow=hidden;rotatable=0;points=[[0,0.5],[1,0.5]];portConstraint=eastwest;whiteSpace=wrap;html=1;" parent="kchw-U7hw0C-sCnVVzNL-38" vertex="1">
          <mxGeometry y="26" width="240" height="154" as="geometry" />
        </mxCell>
        <mxCell id="kchw-U7hw0C-sCnVVzNL-40" value="" style="line;strokeWidth=1;fillColor=none;align=left;verticalAlign=middle;spacingTop=-1;spacingLeft=3;spacingRight=3;rotatable=0;labelPosition=right;points=[];portConstraint=eastwest;strokeColor=inherit;" parent="kchw-U7hw0C-sCnVVzNL-38" vertex="1">
          <mxGeometry y="180" width="240" height="8" as="geometry" />
        </mxCell>
        <mxCell id="kchw-U7hw0C-sCnVVzNL-41" value="+ Play(AudioClipType, GameObject, float): public void&lt;br&gt;+ GetAudioSource(GameObject, AudioClipType): private AudioSource&lt;br&gt;+ GetDefaultAudioSource(AudioClipType): private GameObject&lt;br&gt;+ GetAudioClip(AudioClipType): private AudioClip&lt;br&gt;+ AudioClipData: private class&lt;br&gt;&lt;span style=&quot;white-space: pre;&quot;&gt;&#x9;&lt;/span&gt;+ public: string&lt;br&gt;&lt;span style=&quot;white-space: pre;&quot;&gt;&#x9;&lt;/span&gt;+ public: string&lt;br&gt;&lt;span style=&quot;white-space: pre;&quot;&gt;&#x9;&lt;/span&gt;+ public: int&lt;br&gt;&lt;span style=&quot;white-space: pre;&quot;&gt;&#x9;&lt;/span&gt;+ public: AudioClip&lt;br&gt;&lt;span style=&quot;white-space: pre;&quot;&gt;&#x9;&lt;/span&gt;+ AudioClipData(string, string, int): constructor" style="text;strokeColor=none;fillColor=none;align=left;verticalAlign=top;spacingLeft=4;spacingRight=4;overflow=hidden;rotatable=0;points=[[0,0.5],[1,0.5]];portConstraint=eastwest;whiteSpace=wrap;html=1;" parent="kchw-U7hw0C-sCnVVzNL-38" vertex="1">
          <mxGeometry y="188" width="240" height="232" as="geometry" />
        </mxCell>
        <mxCell id="kchw-U7hw0C-sCnVVzNL-51" style="edgeStyle=orthogonalEdgeStyle;rounded=0;orthogonalLoop=1;jettySize=auto;html=1;" parent="WIyWlLk6GJQsqaUBKTNV-1" source="kchw-U7hw0C-sCnVVzNL-43" target="kchw-U7hw0C-sCnVVzNL-47" edge="1">
          <mxGeometry relative="1" as="geometry" />
        </mxCell>
        <mxCell id="kchw-U7hw0C-sCnVVzNL-43" value="Pipeline (script)" style="swimlane;fontStyle=1;align=center;verticalAlign=top;childLayout=stackLayout;horizontal=1;startSize=26;horizontalStack=0;resizeParent=1;resizeParentMax=0;resizeLast=0;collapsible=1;marginBottom=0;whiteSpace=wrap;html=1;" parent="WIyWlLk6GJQsqaUBKTNV-1" vertex="1">
          <mxGeometry x="950" y="-611" width="160" height="480" as="geometry" />
        </mxCell>
        <mxCell id="kchw-U7hw0C-sCnVVzNL-44" value="+ public delegate void VoidFunction()&lt;br&gt;+ public delegate void TFunction&amp;lt;T&amp;gt;(T)&lt;br&gt;+ public delegate T GetTFunction&amp;lt;T&amp;gt;()&lt;br&gt;+ IsDoen: public bool&lt;br&gt;+ Count: public int&lt;br&gt;+ actions: private List&amp;lt;PipelineAction&amp;gt;&lt;br&gt;+ isAborted: private bool" style="text;strokeColor=none;fillColor=none;align=left;verticalAlign=top;spacingLeft=4;spacingRight=4;overflow=hidden;rotatable=0;points=[[0,0.5],[1,0.5]];portConstraint=eastwest;whiteSpace=wrap;html=1;" parent="kchw-U7hw0C-sCnVVzNL-43" vertex="1">
          <mxGeometry y="26" width="160" height="174" as="geometry" />
        </mxCell>
        <mxCell id="kchw-U7hw0C-sCnVVzNL-45" value="" style="line;strokeWidth=1;fillColor=none;align=left;verticalAlign=middle;spacingTop=-1;spacingLeft=3;spacingRight=3;rotatable=0;labelPosition=right;points=[];portConstraint=eastwest;strokeColor=inherit;" parent="kchw-U7hw0C-sCnVVzNL-43" vertex="1">
          <mxGeometry y="200" width="160" height="8" as="geometry" />
        </mxCell>
        <mxCell id="kchw-U7hw0C-sCnVVzNL-46" value="+ Pipeline(): constructor&lt;br&gt;+ Func(VoidFunction): public Pipeline&lt;br&gt;+ PreFunc(VoidFunction): public Pipeline&lt;br&gt;+ TFunc&amp;lt;T&amp;gt;(TFunction&amp;lt;T&amp;gt;, GetTFunction&amp;lt;T&amp;gt;): public Pipeline&lt;br&gt;+ PreTFunc&amp;lt;T&amp;gt;(TFunction&amp;lt;T&amp;gt;, GetTFunction&amp;lt;T&amp;gt;): public Pipeline&lt;br&gt;+ Delay(float): public Pipeline&lt;br&gt;+ PreDelay(float): public Pipeline&lt;br&gt;+ Abort(): public void&lt;br&gt;+ Update(float): public void" style="text;strokeColor=none;fillColor=none;align=left;verticalAlign=top;spacingLeft=4;spacingRight=4;overflow=hidden;rotatable=0;points=[[0,0.5],[1,0.5]];portConstraint=eastwest;whiteSpace=wrap;html=1;" parent="kchw-U7hw0C-sCnVVzNL-43" vertex="1">
          <mxGeometry y="208" width="160" height="272" as="geometry" />
        </mxCell>
        <mxCell id="kchw-U7hw0C-sCnVVzNL-47" value="PipelineAction (script)" style="swimlane;fontStyle=1;align=center;verticalAlign=top;childLayout=stackLayout;horizontal=1;startSize=26;horizontalStack=0;resizeParent=1;resizeParentMax=0;resizeLast=0;collapsible=1;marginBottom=0;whiteSpace=wrap;html=1;" parent="WIyWlLk6GJQsqaUBKTNV-1" vertex="1">
          <mxGeometry x="1160" y="-601" width="160" height="140" as="geometry" />
        </mxCell>
        <mxCell id="kchw-U7hw0C-sCnVVzNL-48" value="abstract class&lt;br&gt;+ IsDone: public bool" style="text;strokeColor=none;fillColor=none;align=left;verticalAlign=top;spacingLeft=4;spacingRight=4;overflow=hidden;rotatable=0;points=[[0,0.5],[1,0.5]];portConstraint=eastwest;whiteSpace=wrap;html=1;" parent="kchw-U7hw0C-sCnVVzNL-47" vertex="1">
          <mxGeometry y="26" width="160" height="44" as="geometry" />
        </mxCell>
        <mxCell id="kchw-U7hw0C-sCnVVzNL-49" value="" style="line;strokeWidth=1;fillColor=none;align=left;verticalAlign=middle;spacingTop=-1;spacingLeft=3;spacingRight=3;rotatable=0;labelPosition=right;points=[];portConstraint=eastwest;strokeColor=inherit;" parent="kchw-U7hw0C-sCnVVzNL-47" vertex="1">
          <mxGeometry y="70" width="160" height="8" as="geometry" />
        </mxCell>
        <mxCell id="kchw-U7hw0C-sCnVVzNL-50" value="+ Update(float): public void&lt;br&gt;+ UpdateAction(float): protected abstract void" style="text;strokeColor=none;fillColor=none;align=left;verticalAlign=top;spacingLeft=4;spacingRight=4;overflow=hidden;rotatable=0;points=[[0,0.5],[1,0.5]];portConstraint=eastwest;whiteSpace=wrap;html=1;" parent="kchw-U7hw0C-sCnVVzNL-47" vertex="1">
          <mxGeometry y="78" width="160" height="62" as="geometry" />
        </mxCell>
        <mxCell id="kchw-U7hw0C-sCnVVzNL-58" style="edgeStyle=orthogonalEdgeStyle;rounded=0;orthogonalLoop=1;jettySize=auto;html=1;" parent="WIyWlLk6GJQsqaUBKTNV-1" source="kchw-U7hw0C-sCnVVzNL-53" target="kchw-U7hw0C-sCnVVzNL-26" edge="1">
          <mxGeometry relative="1" as="geometry">
            <Array as="points">
              <mxPoint x="50" y="-250" />
            </Array>
          </mxGeometry>
        </mxCell>
        <mxCell id="kchw-U7hw0C-sCnVVzNL-64" style="edgeStyle=orthogonalEdgeStyle;rounded=0;orthogonalLoop=1;jettySize=auto;html=1;" parent="WIyWlLk6GJQsqaUBKTNV-1" source="kchw-U7hw0C-sCnVVzNL-53" target="kchw-U7hw0C-sCnVVzNL-59" edge="1">
          <mxGeometry relative="1" as="geometry">
            <Array as="points">
              <mxPoint x="-30" y="470" />
            </Array>
          </mxGeometry>
        </mxCell>
        <mxCell id="kchw-U7hw0C-sCnVVzNL-96" style="edgeStyle=orthogonalEdgeStyle;rounded=0;orthogonalLoop=1;jettySize=auto;html=1;" parent="WIyWlLk6GJQsqaUBKTNV-1" source="kchw-U7hw0C-sCnVVzNL-53" target="kchw-U7hw0C-sCnVVzNL-91" edge="1">
          <mxGeometry relative="1" as="geometry">
            <Array as="points">
              <mxPoint x="150" y="90" />
            </Array>
          </mxGeometry>
        </mxCell>
        <mxCell id="kchw-U7hw0C-sCnVVzNL-97" style="edgeStyle=orthogonalEdgeStyle;rounded=0;orthogonalLoop=1;jettySize=auto;html=1;" parent="WIyWlLk6GJQsqaUBKTNV-1" source="kchw-U7hw0C-sCnVVzNL-53" target="kchw-U7hw0C-sCnVVzNL-73" edge="1">
          <mxGeometry relative="1" as="geometry">
            <Array as="points">
              <mxPoint x="-100" y="-30" />
              <mxPoint x="-100" y="-30" />
            </Array>
          </mxGeometry>
        </mxCell>
        <mxCell id="kchw-U7hw0C-sCnVVzNL-53" value="Package (script)" style="swimlane;fontStyle=1;align=center;verticalAlign=top;childLayout=stackLayout;horizontal=1;startSize=26;horizontalStack=0;resizeParent=1;resizeParentMax=0;resizeLast=0;collapsible=1;marginBottom=0;whiteSpace=wrap;html=1;" parent="WIyWlLk6GJQsqaUBKTNV-1" vertex="1">
          <mxGeometry x="-60" y="-170" width="160" height="350" as="geometry" />
        </mxCell>
        <mxCell id="kchw-U7hw0C-sCnVVzNL-54" value="+ manager: private ProgressManager&lt;br&gt;+ packageCompleted: public PackageName&lt;br&gt;+ packageCompleted: public bool&lt;br&gt;+ activeTasks: public List&amp;lt;Task&amp;gt;&lt;br&gt;+ doneTypes: public List&amp;lt;TaskType&amp;gt;" style="text;strokeColor=none;fillColor=none;align=left;verticalAlign=top;spacingLeft=4;spacingRight=4;overflow=hidden;rotatable=0;points=[[0,0.5],[1,0.5]];portConstraint=eastwest;whiteSpace=wrap;html=1;" parent="kchw-U7hw0C-sCnVVzNL-53" vertex="1">
          <mxGeometry y="26" width="160" height="164" as="geometry" />
        </mxCell>
        <mxCell id="kchw-U7hw0C-sCnVVzNL-55" value="" style="line;strokeWidth=1;fillColor=none;align=left;verticalAlign=middle;spacingTop=-1;spacingLeft=3;spacingRight=3;rotatable=0;labelPosition=right;points=[];portConstraint=eastwest;strokeColor=inherit;" parent="kchw-U7hw0C-sCnVVzNL-53" vertex="1">
          <mxGeometry y="190" width="160" height="8" as="geometry" />
        </mxCell>
        <mxCell id="kchw-U7hw0C-sCnVVzNL-56" value="+ CurrentTask(): public Task&lt;br&gt;+ Package(PackageName, ProgressManager): constructor&lt;br&gt;+ RemoveTask(Task): public void&lt;br&gt;+ CheckChangePackage(): private void&lt;br&gt;+ StartTask(): public void" style="text;strokeColor=none;fillColor=none;align=left;verticalAlign=top;spacingLeft=4;spacingRight=4;overflow=hidden;rotatable=0;points=[[0,0.5],[1,0.5]];portConstraint=eastwest;whiteSpace=wrap;html=1;" parent="kchw-U7hw0C-sCnVVzNL-53" vertex="1">
          <mxGeometry y="198" width="160" height="152" as="geometry" />
        </mxCell>
        <mxCell id="kchw-U7hw0C-sCnVVzNL-77" style="edgeStyle=orthogonalEdgeStyle;rounded=0;orthogonalLoop=1;jettySize=auto;html=1;" parent="WIyWlLk6GJQsqaUBKTNV-1" source="kchw-U7hw0C-sCnVVzNL-59" target="kchw-U7hw0C-sCnVVzNL-73" edge="1">
          <mxGeometry relative="1" as="geometry" />
        </mxCell>
        <mxCell id="Sjk4_UQVZihsHUC_Evtl-11" style="edgeStyle=orthogonalEdgeStyle;rounded=0;orthogonalLoop=1;jettySize=auto;html=1;" parent="WIyWlLk6GJQsqaUBKTNV-1" source="kchw-U7hw0C-sCnVVzNL-59" target="W0nB9QTuxgTVNlyttxNB-73" edge="1">
          <mxGeometry relative="1" as="geometry">
            <Array as="points">
              <mxPoint x="280" y="680" />
              <mxPoint x="280" y="115" />
            </Array>
          </mxGeometry>
        </mxCell>
        <mxCell id="kchw-U7hw0C-sCnVVzNL-59" value="Task (script)" style="swimlane;fontStyle=1;align=center;verticalAlign=top;childLayout=stackLayout;horizontal=1;startSize=26;horizontalStack=0;resizeParent=1;resizeParentMax=0;resizeLast=0;collapsible=1;marginBottom=0;whiteSpace=wrap;html=1;" parent="WIyWlLk6GJQsqaUBKTNV-1" vertex="1">
          <mxGeometry x="-390" y="420" width="260" height="830" as="geometry" />
        </mxCell>
        <mxCell id="kchw-U7hw0C-sCnVVzNL-60" value="public abstract class&lt;br&gt;+ Completed: public bool&lt;br&gt;+ Points: public readonly int&lt;br&gt;+ package: protected Package&lt;br&gt;+ started: private bool&lt;br&gt;+ Started: public bool&lt;br&gt;+ TaskType: public TaskType&lt;br&gt;+ checkAllClearConditions: protected bool&lt;br&gt;+ eventsUnsubscribed: protected bool&lt;br&gt;+ isFinished: protected bool&lt;br&gt;+ requiresPreviousTaskCompletion: protected bool&lt;br&gt;+ previousTasksCompleted: protected bool&lt;br&gt;+ clearConditions: protected Dictionary&amp;lt;int, bool&amp;gt;&lt;br&gt;+ subscribedEvents: protected Dictionary&amp;lt;Events.EventDataCallback, EventType&amp;gt;&lt;br&gt;+ description: protected string&lt;br&gt;+ Description: public virtual string&lt;br&gt;+ hint: protected string&lt;br&gt;+ Hint: public virtual string&lt;br&gt;+ success: protected string" style="text;strokeColor=none;fillColor=none;align=left;verticalAlign=top;spacingLeft=4;spacingRight=4;overflow=hidden;rotatable=0;points=[[0,0.5],[1,0.5]];portConstraint=eastwest;whiteSpace=wrap;html=1;" parent="kchw-U7hw0C-sCnVVzNL-59" vertex="1">
          <mxGeometry y="26" width="260" height="334" as="geometry" />
        </mxCell>
        <mxCell id="kchw-U7hw0C-sCnVVzNL-61" value="" style="line;strokeWidth=1;fillColor=none;align=left;verticalAlign=middle;spacingTop=-1;spacingLeft=3;spacingRight=3;rotatable=0;labelPosition=right;points=[];portConstraint=eastwest;strokeColor=inherit;" parent="kchw-U7hw0C-sCnVVzNL-59" vertex="1">
          <mxGeometry y="360" width="260" height="8" as="geometry" />
        </mxCell>
        <mxCell id="kchw-U7hw0C-sCnVVzNL-62" value="+ Task(TaskType, bool): constructor&lt;br&gt;+ ForceClose(bool): public virtual void&lt;br&gt;+ StartTask(): public virtual void&lt;br&gt;+ CompleteTask(): public virtual void&lt;br&gt;+ CloseTask(): protected void&lt;br&gt;+ FinishTask(): public virtual void&lt;br&gt;+ RemoveFromPackage(): public virtual void&lt;br&gt;+ SetPackage(Package): public void&lt;br&gt;+ SetCheckAll(bool): protected void&lt;br&gt;+ Subscribe(): public abstract void&lt;br&gt;+ SubscribeEvent(Events.EventDataCallback, EventType): public void&lt;br&gt;+ UnsubscribeEvent(Events.EventDataCallBack, EventType): public void&lt;br&gt;+ UnsubscribeAllEvents(): public void&lt;br&gt;+ EnableCondition(Enum): public void&lt;br&gt;+ DisableConditions(): public void&lt;br&gt;+ AddConditions(int[]): public void&lt;br&gt;+ CheckClearConditions(): private bool&lt;br&gt;+ GetNonClearedConditions(): protected List&amp;lt;int&amp;gt;&lt;br&gt;+ IsPreviousTasksCompleted(List&amp;lt;TaskType&amp;gt;: protected bool&lt;br&gt;+ Popup(string, MsgType, int): protected void&lt;br&gt;+ ToString(): public override string&lt;br&gt;+ CreateTaskMistake(string, int): public void&lt;br&gt;+ CreateGeneralMistake(string, int, bool): public static void&lt;br&gt;+ CreateTaskMistake(TaskType, string, int): public static void" style="text;strokeColor=none;fillColor=none;align=left;verticalAlign=top;spacingLeft=4;spacingRight=4;overflow=hidden;rotatable=0;points=[[0,0.5],[1,0.5]];portConstraint=eastwest;whiteSpace=wrap;html=1;" parent="kchw-U7hw0C-sCnVVzNL-59" vertex="1">
          <mxGeometry y="368" width="260" height="462" as="geometry" />
        </mxCell>
        <mxCell id="kchw-U7hw0C-sCnVVzNL-66" value="SceneScript (script)" style="swimlane;fontStyle=1;align=center;verticalAlign=top;childLayout=stackLayout;horizontal=1;startSize=26;horizontalStack=0;resizeParent=1;resizeParentMax=0;resizeLast=0;collapsible=1;marginBottom=0;whiteSpace=wrap;html=1;" parent="WIyWlLk6GJQsqaUBKTNV-1" vertex="1">
          <mxGeometry x="430" y="-210" width="160" height="130" as="geometry" />
        </mxCell>
        <mxCell id="kchw-U7hw0C-sCnVVzNL-68" value="" style="line;strokeWidth=1;fillColor=none;align=left;verticalAlign=middle;spacingTop=-1;spacingLeft=3;spacingRight=3;rotatable=0;labelPosition=right;points=[];portConstraint=eastwest;strokeColor=inherit;" parent="kchw-U7hw0C-sCnVVzNL-66" vertex="1">
          <mxGeometry y="26" width="160" height="8" as="geometry" />
        </mxCell>
        <mxCell id="kchw-U7hw0C-sCnVVzNL-69" value="+ Awake(): protected virtual void&lt;br&gt;+ Start(): protected virtual void&lt;br&gt;+ Restart(): public virtual void" style="text;strokeColor=none;fillColor=none;align=left;verticalAlign=top;spacingLeft=4;spacingRight=4;overflow=hidden;rotatable=0;points=[[0,0.5],[1,0.5]];portConstraint=eastwest;whiteSpace=wrap;html=1;" parent="kchw-U7hw0C-sCnVVzNL-66" vertex="1">
          <mxGeometry y="34" width="160" height="96" as="geometry" />
        </mxCell>
        <mxCell id="kchw-U7hw0C-sCnVVzNL-73" value="TaskType (script)" style="swimlane;fontStyle=1;align=center;verticalAlign=top;childLayout=stackLayout;horizontal=1;startSize=26;horizontalStack=0;resizeParent=1;resizeParentMax=0;resizeLast=0;collapsible=1;marginBottom=0;whiteSpace=wrap;html=1;" parent="WIyWlLk6GJQsqaUBKTNV-1" vertex="1">
          <mxGeometry x="-380" y="-414" width="240" height="760" as="geometry" />
        </mxCell>
        <mxCell id="kchw-U7hw0C-sCnVVzNL-74" value="+ public enum TaskType" style="text;strokeColor=none;fillColor=none;align=left;verticalAlign=top;spacingLeft=4;spacingRight=4;overflow=hidden;rotatable=0;points=[[0,0.5],[1,0.5]];portConstraint=eastwest;whiteSpace=wrap;html=1;" parent="kchw-U7hw0C-sCnVVzNL-73" vertex="1">
          <mxGeometry y="26" width="240" height="26" as="geometry" />
        </mxCell>
        <mxCell id="kchw-U7hw0C-sCnVVzNL-75" value="" style="line;strokeWidth=1;fillColor=none;align=left;verticalAlign=middle;spacingTop=-1;spacingLeft=3;spacingRight=3;rotatable=0;labelPosition=right;points=[];portConstraint=eastwest;strokeColor=inherit;" parent="kchw-U7hw0C-sCnVVzNL-73" vertex="1">
          <mxGeometry y="52" width="240" height="8" as="geometry" />
        </mxCell>
        <mxCell id="kchw-U7hw0C-sCnVVzNL-76" value="+ CorrectItemsInThroughputMedicine,&lt;br&gt;&lt;span style=&quot;background-color: initial;&quot;&gt;CorrectItemsInLaminarCabinetMedicine,&lt;br&gt;&lt;/span&gt;&lt;span style=&quot;background-color: initial;&quot;&gt;DisinfectBottleCap,&lt;br&gt;&lt;/span&gt;&lt;span style=&quot;background-color: initial;&quot;&gt;MedicineToSyringe,&lt;br&gt;&lt;/span&gt;&lt;span style=&quot;background-color: initial;&quot;&gt;LuerlockAttach,&lt;br&gt;&lt;/span&gt;&lt;span style=&quot;background-color: initial;&quot;&gt;SyringeAttach,&lt;br&gt;&lt;/span&gt;&lt;span style=&quot;background-color: initial;&quot;&gt;CorrectAmountOfMedicineTransferred,&lt;/span&gt;&lt;span style=&quot;background-color: initial;&quot;&gt;&lt;br&gt;&lt;/span&gt;&lt;div&gt;AllSyringesDone,&lt;/div&gt;&lt;div&gt;ItemsToSterileBag,&lt;/div&gt;&lt;div&gt;CleanTrashMedicine,&lt;/div&gt;&lt;div&gt;CorrectItemsInBasketMedicine,&lt;/div&gt;&lt;div&gt;CleanLaminarCabinetMedicine,&lt;/div&gt;&lt;div&gt;FinishMedicine,&lt;/div&gt;&lt;div&gt;CorrectItemsInThroughputMembrane,&lt;/div&gt;&lt;div&gt;SelectToolsMembrane,&lt;/div&gt;&lt;div&gt;WriteTextsToItems,&lt;/div&gt;&lt;div&gt;FillBottles,&lt;/div&gt;&lt;div&gt;AssemblePump,&lt;/div&gt;&lt;div&gt;OpenAgarplates,&lt;/div&gt;&lt;div&gt;WetFilter,&lt;/div&gt;&lt;div&gt;CorrectItemsInLaminarCabinetMembrane,&lt;/div&gt;&lt;div&gt;MedicineToFilter,&lt;/div&gt;&lt;div&gt;StartPump,&lt;/div&gt;&lt;div&gt;StartPumpAgain,&lt;/div&gt;&lt;div&gt;CutFilter,&lt;/div&gt;&lt;div&gt;FilterHalvesToBottles,&lt;/div&gt;&lt;div&gt;FinishMembrane,&lt;/div&gt;&lt;div&gt;Fingerprints,&lt;/div&gt;&lt;div&gt;OpenTweezersCover,&lt;/div&gt;&lt;div&gt;OpenScalpelCover,&lt;/div&gt;&lt;div&gt;OpenFilterCover,&lt;/div&gt;&lt;div&gt;OpenPipetteCover,&lt;/div&gt;&lt;div&gt;WriteSecondTime,&lt;/div&gt;&lt;div&gt;WearShoeCoversAndLabCoat,&lt;/div&gt;&lt;div&gt;WashGlasses,&lt;/div&gt;&lt;div&gt;WashHandsInChangingRoom,&lt;/div&gt;&lt;div&gt;GoToPreperationRoom,&lt;/div&gt;&lt;div&gt;WearHeadCoverAndFaceMask,&lt;/div&gt;&lt;div&gt;WashHandsInPreperationRoom,&lt;/div&gt;&lt;div&gt;WearSleeveCoversAndProtectiveGloves,&lt;/div&gt;&lt;div&gt;FinishChangingRoom,&lt;/div&gt;&lt;div&gt;CleanTrashMembrane,&lt;/div&gt;&lt;div&gt;CorrectItemsInBasketMembrane,&lt;/div&gt;&lt;div&gt;CleanLaminarCabinetMembrane,&lt;/div&gt;&lt;div&gt;CloseSettlePlates,&lt;/div&gt;&lt;div&gt;CloseFingertipPlates,&lt;/div&gt;&lt;div&gt;CloseBottles,&lt;/div&gt;&lt;div&gt;EmptyLaminarCabinetMembrane&lt;/div&gt;" style="text;strokeColor=none;fillColor=none;align=left;verticalAlign=top;spacingLeft=4;spacingRight=4;overflow=hidden;rotatable=0;points=[[0,0.5],[1,0.5]];portConstraint=eastwest;whiteSpace=wrap;html=1;" parent="kchw-U7hw0C-sCnVVzNL-73" vertex="1">
          <mxGeometry y="60" width="240" height="700" as="geometry" />
        </mxCell>
        <mxCell id="W0nB9QTuxgTVNlyttxNB-83" style="edgeStyle=orthogonalEdgeStyle;rounded=0;orthogonalLoop=1;jettySize=auto;html=1;" parent="WIyWlLk6GJQsqaUBKTNV-1" source="kchw-U7hw0C-sCnVVzNL-78" target="kchw-U7hw0C-sCnVVzNL-73" edge="1">
          <mxGeometry relative="1" as="geometry">
            <Array as="points">
              <mxPoint x="-110" y="-740" />
              <mxPoint x="-110" y="-170" />
            </Array>
          </mxGeometry>
        </mxCell>
        <mxCell id="W0nB9QTuxgTVNlyttxNB-84" style="edgeStyle=orthogonalEdgeStyle;rounded=0;orthogonalLoop=1;jettySize=auto;html=1;" parent="WIyWlLk6GJQsqaUBKTNV-1" source="kchw-U7hw0C-sCnVVzNL-78" target="kchw-U7hw0C-sCnVVzNL-59" edge="1">
          <mxGeometry relative="1" as="geometry">
            <Array as="points">
              <mxPoint x="-100" y="-730" />
              <mxPoint x="-100" y="440" />
            </Array>
          </mxGeometry>
        </mxCell>
        <mxCell id="kchw-U7hw0C-sCnVVzNL-78" value="TaskFactory (script)" style="swimlane;fontStyle=1;align=center;verticalAlign=top;childLayout=stackLayout;horizontal=1;startSize=26;horizontalStack=0;resizeParent=1;resizeParentMax=0;resizeLast=0;collapsible=1;marginBottom=0;whiteSpace=wrap;html=1;" parent="WIyWlLk6GJQsqaUBKTNV-1" vertex="1">
          <mxGeometry x="-60" y="-820" width="160" height="160" as="geometry" />
        </mxCell>
        <mxCell id="kchw-U7hw0C-sCnVVzNL-79" value="public static class&lt;br&gt;+ tasks: private static Dictionary&amp;lt;TaskType, Task&amp;gt;" style="text;strokeColor=none;fillColor=none;align=left;verticalAlign=top;spacingLeft=4;spacingRight=4;overflow=hidden;rotatable=0;points=[[0,0.5],[1,0.5]];portConstraint=eastwest;whiteSpace=wrap;html=1;" parent="kchw-U7hw0C-sCnVVzNL-78" vertex="1">
          <mxGeometry y="26" width="160" height="54" as="geometry" />
        </mxCell>
        <mxCell id="kchw-U7hw0C-sCnVVzNL-80" value="" style="line;strokeWidth=1;fillColor=none;align=left;verticalAlign=middle;spacingTop=-1;spacingLeft=3;spacingRight=3;rotatable=0;labelPosition=right;points=[];portConstraint=eastwest;strokeColor=inherit;" parent="kchw-U7hw0C-sCnVVzNL-78" vertex="1">
          <mxGeometry y="80" width="160" height="8" as="geometry" />
        </mxCell>
        <mxCell id="kchw-U7hw0C-sCnVVzNL-81" value="+ GetTask(TaskType): public static&lt;br&gt;+ ResetTaskProgression(): public static void&lt;br&gt;" style="text;strokeColor=none;fillColor=none;align=left;verticalAlign=top;spacingLeft=4;spacingRight=4;overflow=hidden;rotatable=0;points=[[0,0.5],[1,0.5]];portConstraint=eastwest;whiteSpace=wrap;html=1;" parent="kchw-U7hw0C-sCnVVzNL-78" vertex="1">
          <mxGeometry y="88" width="160" height="72" as="geometry" />
        </mxCell>
        <mxCell id="kchw-U7hw0C-sCnVVzNL-89" style="edgeStyle=orthogonalEdgeStyle;rounded=0;orthogonalLoop=1;jettySize=auto;html=1;" parent="WIyWlLk6GJQsqaUBKTNV-1" source="kchw-U7hw0C-sCnVVzNL-85" target="kchw-U7hw0C-sCnVVzNL-73" edge="1">
          <mxGeometry relative="1" as="geometry">
            <Array as="points">
              <mxPoint x="-260" y="-470" />
              <mxPoint x="-260" y="-470" />
            </Array>
          </mxGeometry>
        </mxCell>
        <mxCell id="W0nB9QTuxgTVNlyttxNB-95" style="edgeStyle=orthogonalEdgeStyle;rounded=0;orthogonalLoop=1;jettySize=auto;html=1;" parent="WIyWlLk6GJQsqaUBKTNV-1" source="kchw-U7hw0C-sCnVVzNL-85" target="kchw-U7hw0C-sCnVVzNL-59" edge="1">
          <mxGeometry relative="1" as="geometry">
            <Array as="points">
              <mxPoint x="-400" y="-755" />
              <mxPoint x="-400" y="380" />
              <mxPoint x="-360" y="380" />
            </Array>
          </mxGeometry>
        </mxCell>
        <mxCell id="kchw-U7hw0C-sCnVVzNL-85" value="ScoreCalculator (script)" style="swimlane;fontStyle=1;align=center;verticalAlign=top;childLayout=stackLayout;horizontal=1;startSize=26;horizontalStack=0;resizeParent=1;resizeParentMax=0;resizeLast=0;collapsible=1;marginBottom=0;whiteSpace=wrap;html=1;" parent="WIyWlLk6GJQsqaUBKTNV-1" vertex="1">
          <mxGeometry x="-350" y="-1015" width="200" height="520" as="geometry" />
        </mxCell>
        <mxCell id="kchw-U7hw0C-sCnVVzNL-86" value="+ points: Dictionary&amp;lt;TaskType, int&amp;gt;&lt;br&gt;+ maxPoints: &amp;lt;TaskType, int&amp;gt;&lt;br&gt;+ maxScore: private int&lt;br&gt;+ Mistakes: Dictionary&amp;lt;string, int&amp;gt;&lt;br&gt;+ TaskMistakes: Dictionary&amp;lt;TaskType, HashSet&amp;lt;string&amp;gt;&amp;gt;&lt;br&gt;+ ColourCodes: private static readonly Dictionary&amp;lt;Colour, string&amp;gt;" style="text;strokeColor=none;fillColor=none;align=left;verticalAlign=top;spacingLeft=4;spacingRight=4;overflow=hidden;rotatable=0;points=[[0,0.5],[1,0.5]];portConstraint=eastwest;whiteSpace=wrap;html=1;" parent="kchw-U7hw0C-sCnVVzNL-85" vertex="1">
          <mxGeometry y="26" width="200" height="144" as="geometry" />
        </mxCell>
        <mxCell id="kchw-U7hw0C-sCnVVzNL-87" value="" style="line;strokeWidth=1;fillColor=none;align=left;verticalAlign=middle;spacingTop=-1;spacingLeft=3;spacingRight=3;rotatable=0;labelPosition=right;points=[];portConstraint=eastwest;strokeColor=inherit;" parent="kchw-U7hw0C-sCnVVzNL-85" vertex="1">
          <mxGeometry y="170" width="200" height="8" as="geometry" />
        </mxCell>
        <mxCell id="kchw-U7hw0C-sCnVVzNL-88" value="+ ScoreCalculator(List&amp;lt;Task&amp;gt;): constructor&lt;br&gt;+ CreateMistake(string, int): public void&lt;br&gt;+ CreateTaskMistake(TaskType, string): public void&lt;br&gt;+ AddTasks(List&amp;lt;Task&amp;gt;): private void&lt;br&gt;+ SubtractPoints(TaskType, int): public void&lt;br&gt;+ SetScoreToZero(TaskType): public void&lt;br&gt;+ Colour: public enum&lt;br&gt;&lt;span style=&quot;white-space: pre;&quot;&gt;&#x9;&lt;/span&gt;+ Yellow,&lt;br&gt;&lt;span style=&quot;white-space: pre;&quot;&gt;&#x9;&lt;/span&gt;Black,&lt;br&gt;&lt;span style=&quot;white-space: pre;&quot;&gt;&#x9;&lt;/span&gt;Green,&lt;br&gt;&lt;span style=&quot;white-space: pre;&quot;&gt;&#x9;&lt;/span&gt;Red,&lt;br&gt;&lt;span style=&quot;white-space: pre;&quot;&gt;&#x9;&lt;/span&gt;White,&lt;br&gt;&lt;span style=&quot;white-space: pre;&quot;&gt;&#x9;&lt;/span&gt;Blue&lt;br&gt;+ Text(string, Colour): private string&lt;br&gt;+ PrintPoints(int, int): private string&lt;br&gt;+ GetScoreString(): public Tuple&amp;lt;int, string&amp;gt;" style="text;strokeColor=none;fillColor=none;align=left;verticalAlign=top;spacingLeft=4;spacingRight=4;overflow=hidden;rotatable=0;points=[[0,0.5],[1,0.5]];portConstraint=eastwest;whiteSpace=wrap;html=1;" parent="kchw-U7hw0C-sCnVVzNL-85" vertex="1">
          <mxGeometry y="178" width="200" height="342" as="geometry" />
        </mxCell>
        <mxCell id="kchw-U7hw0C-sCnVVzNL-91" value="PackageName (script)" style="swimlane;fontStyle=1;align=center;verticalAlign=top;childLayout=stackLayout;horizontal=1;startSize=26;horizontalStack=0;resizeParent=1;resizeParentMax=0;resizeLast=0;collapsible=1;marginBottom=0;whiteSpace=wrap;html=1;" parent="WIyWlLk6GJQsqaUBKTNV-1" vertex="1">
          <mxGeometry x="110" y="-100" width="140" height="160" as="geometry">
            <mxRectangle x="130" y="60" width="170" height="30" as="alternateBounds" />
          </mxGeometry>
        </mxCell>
        <mxCell id="kchw-U7hw0C-sCnVVzNL-92" value="public enum" style="text;strokeColor=none;fillColor=none;align=left;verticalAlign=top;spacingLeft=4;spacingRight=4;overflow=hidden;rotatable=0;points=[[0,0.5],[1,0.5]];portConstraint=eastwest;whiteSpace=wrap;html=1;" parent="kchw-U7hw0C-sCnVVzNL-91" vertex="1">
          <mxGeometry y="26" width="140" height="26" as="geometry" />
        </mxCell>
        <mxCell id="kchw-U7hw0C-sCnVVzNL-93" value="" style="line;strokeWidth=1;fillColor=none;align=left;verticalAlign=middle;spacingTop=-1;spacingLeft=3;spacingRight=3;rotatable=0;labelPosition=right;points=[];portConstraint=eastwest;strokeColor=inherit;" parent="kchw-U7hw0C-sCnVVzNL-91" vertex="1">
          <mxGeometry y="52" width="140" height="8" as="geometry" />
        </mxCell>
        <mxCell id="kchw-U7hw0C-sCnVVzNL-94" value="+ EquipmentSelection,&lt;br&gt;Workspace,&lt;br&gt;CleanUp,&lt;br&gt;ChangingRoom,&lt;br&gt;PreperationRoom,&lt;br&gt;FinishUp" style="text;strokeColor=none;fillColor=none;align=left;verticalAlign=top;spacingLeft=4;spacingRight=4;overflow=hidden;rotatable=0;points=[[0,0.5],[1,0.5]];portConstraint=eastwest;whiteSpace=wrap;html=1;" parent="kchw-U7hw0C-sCnVVzNL-91" vertex="1">
          <mxGeometry y="60" width="140" height="100" as="geometry" />
        </mxCell>
        <mxCell id="W0nB9QTuxgTVNlyttxNB-41" style="edgeStyle=orthogonalEdgeStyle;rounded=0;orthogonalLoop=1;jettySize=auto;html=1;" parent="WIyWlLk6GJQsqaUBKTNV-1" source="WyOUPJDRF6BB89pM1G4j-0" target="W0nB9QTuxgTVNlyttxNB-37" edge="1">
          <mxGeometry relative="1" as="geometry">
            <Array as="points">
              <mxPoint x="-560" y="-220" />
              <mxPoint x="-560" y="-220" />
            </Array>
          </mxGeometry>
        </mxCell>
        <mxCell id="W0nB9QTuxgTVNlyttxNB-51" style="edgeStyle=orthogonalEdgeStyle;rounded=0;orthogonalLoop=1;jettySize=auto;html=1;" parent="WIyWlLk6GJQsqaUBKTNV-1" source="WyOUPJDRF6BB89pM1G4j-0" target="W0nB9QTuxgTVNlyttxNB-47" edge="1">
          <mxGeometry relative="1" as="geometry">
            <Array as="points">
              <mxPoint x="-620" y="410" />
              <mxPoint x="-620" y="410" />
            </Array>
          </mxGeometry>
        </mxCell>
        <mxCell id="W0nB9QTuxgTVNlyttxNB-67" style="edgeStyle=orthogonalEdgeStyle;rounded=0;orthogonalLoop=1;jettySize=auto;html=1;" parent="WIyWlLk6GJQsqaUBKTNV-1" source="WyOUPJDRF6BB89pM1G4j-0" target="W0nB9QTuxgTVNlyttxNB-63" edge="1">
          <mxGeometry relative="1" as="geometry">
            <Array as="points">
              <mxPoint x="-620" y="-229" />
              <mxPoint x="-747" y="-229" />
            </Array>
          </mxGeometry>
        </mxCell>
        <mxCell id="W0nB9QTuxgTVNlyttxNB-72" style="edgeStyle=orthogonalEdgeStyle;rounded=0;orthogonalLoop=1;jettySize=auto;html=1;" parent="WIyWlLk6GJQsqaUBKTNV-1" source="WyOUPJDRF6BB89pM1G4j-0" target="W0nB9QTuxgTVNlyttxNB-68" edge="1">
          <mxGeometry relative="1" as="geometry">
            <Array as="points">
              <mxPoint x="-550" y="645" />
              <mxPoint x="-500" y="645" />
            </Array>
          </mxGeometry>
        </mxCell>
        <mxCell id="WyOUPJDRF6BB89pM1G4j-0" value="Events (script)" style="swimlane;fontStyle=1;align=center;verticalAlign=top;childLayout=stackLayout;horizontal=1;startSize=26;horizontalStack=0;resizeParent=1;resizeParentMax=0;resizeLast=0;collapsible=1;marginBottom=0;whiteSpace=wrap;html=1;" parent="WIyWlLk6GJQsqaUBKTNV-1" vertex="1">
          <mxGeometry x="-667" y="-200" width="240" height="600" as="geometry" />
        </mxCell>
        <mxCell id="WyOUPJDRF6BB89pM1G4j-1" value="public static class&lt;br&gt;+ public delegate void EventDataCallback(CallbackData)&lt;br&gt;+ eventsData: private static Dictionary&amp;lt;EventType, Delegate&amp;gt;&lt;br&gt;+ componentEventsData: private static Dictionary&lt;br&gt;+ componentsEventsNoData:&lt;br&gt;private static Dictionary&amp;lt;EventType, ComponentEventsContainer&amp;gt;" style="text;strokeColor=none;fillColor=none;align=left;verticalAlign=top;spacingLeft=4;spacingRight=4;overflow=hidden;rotatable=0;points=[[0,0.5],[1,0.5]];portConstraint=eastwest;whiteSpace=wrap;html=1;" parent="WyOUPJDRF6BB89pM1G4j-0" vertex="1">
          <mxGeometry y="26" width="240" height="154" as="geometry" />
        </mxCell>
        <mxCell id="WyOUPJDRF6BB89pM1G4j-2" value="" style="line;strokeWidth=1;fillColor=none;align=left;verticalAlign=middle;spacingTop=-1;spacingLeft=3;spacingRight=3;rotatable=0;labelPosition=right;points=[];portConstraint=eastwest;strokeColor=inherit;" parent="WyOUPJDRF6BB89pM1G4j-0" vertex="1">
          <mxGeometry y="180" width="240" height="8" as="geometry" />
        </mxCell>
        <mxCell id="WyOUPJDRF6BB89pM1G4j-3" value="+ Events(): static&lt;br&gt;+ Reset(): public static void&lt;br&gt;+ SubscribeToEvent(EventDataCallback, EventType): public static void&lt;br&gt;+ AddToDelegateDictionary&amp;lt;K&amp;gt;(Dictionary&amp;lt;K, Delegate&amp;gt;, K, Delegate)&lt;br&gt;+ SubscribeToEvent(EventDataCallback, Component, EventType): public static void&lt;br&gt;+ OverrideSubscription(EventDataCallback, EventType): public static void&lt;br&gt;+ SetValueDelegateDictionary&amp;lt;K&amp;gt;(Dictionary&amp;lt;K, Delegate&amp;gt;, K, Delegate): private static void&lt;br&gt;+ OverrideSubscription(EventDataCallback, Component, EventType): public static void&lt;br&gt;+ UnsubscribeFromEvent(EventDataCallback, EventType): public static void&lt;br&gt;+ UnsubscribeFromEvent(EventDataCallback, Component, EventType): public static void&lt;br&gt;+ FireEvent(EventType): public static void&lt;br&gt;+ FireEvent(EventType, CallbackData): public static void&lt;br&gt;+ CallDefaultCallbacks(EventType, CallbackData): private static void&lt;br&gt;+ CallComponentCallbacks(EventType, CallbackData): private static void" style="text;strokeColor=none;fillColor=none;align=left;verticalAlign=top;spacingLeft=4;spacingRight=4;overflow=hidden;rotatable=0;points=[[0,0.5],[1,0.5]];portConstraint=eastwest;whiteSpace=wrap;html=1;" parent="WyOUPJDRF6BB89pM1G4j-0" vertex="1">
          <mxGeometry y="188" width="240" height="412" as="geometry" />
        </mxCell>
        <mxCell id="W0nB9QTuxgTVNlyttxNB-7" style="edgeStyle=orthogonalEdgeStyle;rounded=0;orthogonalLoop=1;jettySize=auto;html=1;" parent="WIyWlLk6GJQsqaUBKTNV-1" source="W0nB9QTuxgTVNlyttxNB-1" target="kchw-U7hw0C-sCnVVzNL-14" edge="1">
          <mxGeometry relative="1" as="geometry">
            <Array as="points">
              <mxPoint x="150" y="-610" />
              <mxPoint x="150" y="-610" />
            </Array>
          </mxGeometry>
        </mxCell>
        <mxCell id="W0nB9QTuxgTVNlyttxNB-13" style="edgeStyle=orthogonalEdgeStyle;rounded=0;orthogonalLoop=1;jettySize=auto;html=1;" parent="WIyWlLk6GJQsqaUBKTNV-1" source="W0nB9QTuxgTVNlyttxNB-1" target="W0nB9QTuxgTVNlyttxNB-27" edge="1">
          <mxGeometry relative="1" as="geometry">
            <mxPoint x="90" y="-1070" as="targetPoint" />
            <Array as="points">
              <mxPoint x="120" y="-640" />
            </Array>
          </mxGeometry>
        </mxCell>
        <mxCell id="W0nB9QTuxgTVNlyttxNB-1" value="MainMenuFunctions" style="swimlane;fontStyle=1;align=center;verticalAlign=top;childLayout=stackLayout;horizontal=1;startSize=26;horizontalStack=0;resizeParent=1;resizeParentMax=0;resizeLast=0;collapsible=1;marginBottom=0;whiteSpace=wrap;html=1;" parent="WIyWlLk6GJQsqaUBKTNV-1" vertex="1">
          <mxGeometry x="-60" y="-650" width="160" height="340" as="geometry" />
        </mxCell>
        <mxCell id="W0nB9QTuxgTVNlyttxNB-2" value="+ levelChanger: private SceneLoader&lt;br&gt;+ sceneType: private int&lt;br&gt;+ mainMenuButtons: public GameObject&lt;br&gt;+ submenuButtons: public GameObject&lt;br&gt;+ startFromBeginning = true: public static bool" style="text;strokeColor=none;fillColor=none;align=left;verticalAlign=top;spacingLeft=4;spacingRight=4;overflow=hidden;rotatable=0;points=[[0,0.5],[1,0.5]];portConstraint=eastwest;whiteSpace=wrap;html=1;" parent="W0nB9QTuxgTVNlyttxNB-1" vertex="1">
          <mxGeometry y="26" width="160" height="144" as="geometry" />
        </mxCell>
        <mxCell id="W0nB9QTuxgTVNlyttxNB-3" value="" style="line;strokeWidth=1;fillColor=none;align=left;verticalAlign=middle;spacingTop=-1;spacingLeft=3;spacingRight=3;rotatable=0;labelPosition=right;points=[];portConstraint=eastwest;strokeColor=inherit;" parent="W0nB9QTuxgTVNlyttxNB-1" vertex="1">
          <mxGeometry y="170" width="160" height="8" as="geometry" />
        </mxCell>
        <mxCell id="W0nB9QTuxgTVNlyttxNB-4" value="+ Start(): private void&lt;br&gt;+ ShowSubmenu(int): public void&lt;br&gt;+ HideSubmenu(): public void&lt;br&gt;+ LoadScene(int): public void&lt;br&gt;+ SetStartingPoint(string): public void&lt;br&gt;+ ExitGame(): public void" style="text;strokeColor=none;fillColor=none;align=left;verticalAlign=top;spacingLeft=4;spacingRight=4;overflow=hidden;rotatable=0;points=[[0,0.5],[1,0.5]];portConstraint=eastwest;whiteSpace=wrap;html=1;" parent="W0nB9QTuxgTVNlyttxNB-1" vertex="1">
          <mxGeometry y="178" width="160" height="162" as="geometry" />
        </mxCell>
        <mxCell id="W0nB9QTuxgTVNlyttxNB-18" style="edgeStyle=orthogonalEdgeStyle;rounded=0;orthogonalLoop=1;jettySize=auto;html=1;" parent="WIyWlLk6GJQsqaUBKTNV-1" source="W0nB9QTuxgTVNlyttxNB-14" target="kchw-U7hw0C-sCnVVzNL-14" edge="1">
          <mxGeometry relative="1" as="geometry">
            <Array as="points">
              <mxPoint x="170" y="-900" />
              <mxPoint x="170" y="-900" />
            </Array>
          </mxGeometry>
        </mxCell>
        <mxCell id="W0nB9QTuxgTVNlyttxNB-19" style="edgeStyle=orthogonalEdgeStyle;rounded=0;orthogonalLoop=1;jettySize=auto;html=1;" parent="WIyWlLk6GJQsqaUBKTNV-1" source="W0nB9QTuxgTVNlyttxNB-14" target="WyOUPJDRF6BB89pM1G4j-0" edge="1">
          <mxGeometry relative="1" as="geometry">
            <Array as="points">
              <mxPoint x="-440" y="-1030" />
            </Array>
          </mxGeometry>
        </mxCell>
        <mxCell id="W0nB9QTuxgTVNlyttxNB-35" style="edgeStyle=orthogonalEdgeStyle;rounded=0;orthogonalLoop=1;jettySize=auto;html=1;" parent="WIyWlLk6GJQsqaUBKTNV-1" source="W0nB9QTuxgTVNlyttxNB-14" target="W0nB9QTuxgTVNlyttxNB-31" edge="1">
          <mxGeometry relative="1" as="geometry">
            <Array as="points">
              <mxPoint x="-300" y="-1040" />
              <mxPoint x="-300" y="-1040" />
            </Array>
          </mxGeometry>
        </mxCell>
        <mxCell id="W0nB9QTuxgTVNlyttxNB-96" style="edgeStyle=orthogonalEdgeStyle;rounded=0;orthogonalLoop=1;jettySize=auto;html=1;" parent="WIyWlLk6GJQsqaUBKTNV-1" source="W0nB9QTuxgTVNlyttxNB-14" target="W0nB9QTuxgTVNlyttxNB-20" edge="1">
          <mxGeometry relative="1" as="geometry">
            <Array as="points">
              <mxPoint x="-50" y="-1090" />
              <mxPoint x="-50" y="-1090" />
            </Array>
          </mxGeometry>
        </mxCell>
        <mxCell id="W0nB9QTuxgTVNlyttxNB-97" style="edgeStyle=orthogonalEdgeStyle;rounded=0;orthogonalLoop=1;jettySize=auto;html=1;" parent="WIyWlLk6GJQsqaUBKTNV-1" source="W0nB9QTuxgTVNlyttxNB-14" target="W0nB9QTuxgTVNlyttxNB-90" edge="1">
          <mxGeometry relative="1" as="geometry">
            <Array as="points">
              <mxPoint x="-250" y="-1050" />
            </Array>
          </mxGeometry>
        </mxCell>
        <mxCell id="W0nB9QTuxgTVNlyttxNB-102" style="edgeStyle=orthogonalEdgeStyle;rounded=0;orthogonalLoop=1;jettySize=auto;html=1;" parent="WIyWlLk6GJQsqaUBKTNV-1" source="W0nB9QTuxgTVNlyttxNB-14" target="W0nB9QTuxgTVNlyttxNB-98" edge="1">
          <mxGeometry relative="1" as="geometry">
            <Array as="points">
              <mxPoint x="10" y="-1170" />
              <mxPoint x="10" y="-1170" />
            </Array>
          </mxGeometry>
        </mxCell>
        <mxCell id="W0nB9QTuxgTVNlyttxNB-14" value="SceneLoader (script)" style="swimlane;fontStyle=1;align=center;verticalAlign=top;childLayout=stackLayout;horizontal=1;startSize=26;horizontalStack=0;resizeParent=1;resizeParentMax=0;resizeLast=0;collapsible=1;marginBottom=0;whiteSpace=wrap;html=1;" parent="WIyWlLk6GJQsqaUBKTNV-1" vertex="1">
          <mxGeometry x="-70" y="-1060" width="160" height="200" as="geometry" />
        </mxCell>
        <mxCell id="W0nB9QTuxgTVNlyttxNB-15" value="+ scene: private string&lt;br&gt;+ fadeController: public CameraFadeController" style="text;strokeColor=none;fillColor=none;align=left;verticalAlign=top;spacingLeft=4;spacingRight=4;overflow=hidden;rotatable=0;points=[[0,0.5],[1,0.5]];portConstraint=eastwest;whiteSpace=wrap;html=1;" parent="W0nB9QTuxgTVNlyttxNB-14" vertex="1">
          <mxGeometry y="26" width="160" height="54" as="geometry" />
        </mxCell>
        <mxCell id="W0nB9QTuxgTVNlyttxNB-16" value="" style="line;strokeWidth=1;fillColor=none;align=left;verticalAlign=middle;spacingTop=-1;spacingLeft=3;spacingRight=3;rotatable=0;labelPosition=right;points=[];portConstraint=eastwest;strokeColor=inherit;" parent="W0nB9QTuxgTVNlyttxNB-14" vertex="1">
          <mxGeometry y="80" width="160" height="8" as="geometry" />
        </mxCell>
        <mxCell id="W0nB9QTuxgTVNlyttxNB-17" value="+ ChangeScene(string): private void&lt;br&gt;+ FadeOutScene(): public void&lt;br&gt;+ OnFaceComplete(): private void&lt;br&gt;+ LoadScene(): private void" style="text;strokeColor=none;fillColor=none;align=left;verticalAlign=top;spacingLeft=4;spacingRight=4;overflow=hidden;rotatable=0;points=[[0,0.5],[1,0.5]];portConstraint=eastwest;whiteSpace=wrap;html=1;" parent="W0nB9QTuxgTVNlyttxNB-14" vertex="1">
          <mxGeometry y="88" width="160" height="112" as="geometry" />
        </mxCell>
        <mxCell id="W0nB9QTuxgTVNlyttxNB-20" value="SceneManager (Unity native class)" style="swimlane;fontStyle=1;align=center;verticalAlign=top;childLayout=stackLayout;horizontal=1;startSize=36;horizontalStack=0;resizeParent=1;resizeParentMax=0;resizeLast=0;collapsible=1;marginBottom=0;whiteSpace=wrap;html=1;" parent="WIyWlLk6GJQsqaUBKTNV-1" vertex="1">
          <mxGeometry x="-170" y="-1162" width="160" height="58" as="geometry" />
        </mxCell>
        <mxCell id="W0nB9QTuxgTVNlyttxNB-23" value="Check Unity documentation" style="text;strokeColor=none;fillColor=none;align=left;verticalAlign=top;spacingLeft=4;spacingRight=4;overflow=hidden;rotatable=0;points=[[0,0.5],[1,0.5]];portConstraint=eastwest;whiteSpace=wrap;html=1;" parent="W0nB9QTuxgTVNlyttxNB-20" vertex="1">
          <mxGeometry y="36" width="160" height="22" as="geometry" />
        </mxCell>
        <mxCell id="W0nB9QTuxgTVNlyttxNB-27" value="Application (Unity native class)" style="swimlane;fontStyle=1;align=center;verticalAlign=top;childLayout=stackLayout;horizontal=1;startSize=36;horizontalStack=0;resizeParent=1;resizeParentMax=0;resizeLast=0;collapsible=1;marginBottom=0;whiteSpace=wrap;html=1;" parent="WIyWlLk6GJQsqaUBKTNV-1" vertex="1">
          <mxGeometry x="100" y="-1162" width="160" height="62" as="geometry" />
        </mxCell>
        <mxCell id="W0nB9QTuxgTVNlyttxNB-30" value="Check Unity documentation" style="text;strokeColor=none;fillColor=none;align=left;verticalAlign=top;spacingLeft=4;spacingRight=4;overflow=hidden;rotatable=0;points=[[0,0.5],[1,0.5]];portConstraint=eastwest;whiteSpace=wrap;html=1;" parent="W0nB9QTuxgTVNlyttxNB-27" vertex="1">
          <mxGeometry y="36" width="160" height="26" as="geometry" />
        </mxCell>
        <mxCell id="W0nB9QTuxgTVNlyttxNB-31" value="Logger (script)" style="swimlane;fontStyle=1;align=center;verticalAlign=top;childLayout=stackLayout;horizontal=1;startSize=26;horizontalStack=0;resizeParent=1;resizeParentMax=0;resizeLast=0;collapsible=1;marginBottom=0;whiteSpace=wrap;html=1;" parent="WIyWlLk6GJQsqaUBKTNV-1" vertex="1">
          <mxGeometry x="-650" y="-1156" width="160" height="610" as="geometry" />
        </mxCell>
        <mxCell id="W0nB9QTuxgTVNlyttxNB-32" value="+ LogInGame: public static bool" style="text;strokeColor=none;fillColor=none;align=left;verticalAlign=top;spacingLeft=4;spacingRight=4;overflow=hidden;rotatable=0;points=[[0,0.5],[1,0.5]];portConstraint=eastwest;whiteSpace=wrap;html=1;" parent="W0nB9QTuxgTVNlyttxNB-31" vertex="1">
          <mxGeometry y="26" width="160" height="44" as="geometry" />
        </mxCell>
        <mxCell id="W0nB9QTuxgTVNlyttxNB-33" value="" style="line;strokeWidth=1;fillColor=none;align=left;verticalAlign=middle;spacingTop=-1;spacingLeft=3;spacingRight=3;rotatable=0;labelPosition=right;points=[];portConstraint=eastwest;strokeColor=inherit;" parent="W0nB9QTuxgTVNlyttxNB-31" vertex="1">
          <mxGeometry y="70" width="160" height="8" as="geometry" />
        </mxCell>
        <mxCell id="W0nB9QTuxgTVNlyttxNB-34" value="+ Print(object): public static void&lt;br&gt;+ PrintObjects(string, params object[]): public static void&lt;br&gt;+ PrintForma(string, params object[]): public static void&lt;br&gt;+ Warning(object): public static void&lt;br&gt;+ WarningObjects(string, params object[]): public static void&lt;br&gt;+ WarningFormat(string, params object[]): public static void&lt;br&gt;+ Error(string): public static void&lt;br&gt;+ Error(object): public static void&lt;br&gt;+ ErrorObjects(string, params object[]): public static void&lt;br&gt;+ ErrorFormat(string, params object[]): public static void&lt;br&gt;+ PrintVariables(params object[]): public static void&lt;br&gt;+ ObjectToString(object): private static string&lt;br&gt;+ ObjectsToString(string, params object[]): private static String&lt;br&gt;+ VarString(object): private static string&lt;br&gt;+ VarString(object, object): private static string" style="text;strokeColor=none;fillColor=none;align=left;verticalAlign=top;spacingLeft=4;spacingRight=4;overflow=hidden;rotatable=0;points=[[0,0.5],[1,0.5]];portConstraint=eastwest;whiteSpace=wrap;html=1;" parent="W0nB9QTuxgTVNlyttxNB-31" vertex="1">
          <mxGeometry y="78" width="160" height="532" as="geometry" />
        </mxCell>
        <mxCell id="W0nB9QTuxgTVNlyttxNB-36" style="edgeStyle=orthogonalEdgeStyle;rounded=0;orthogonalLoop=1;jettySize=auto;html=1;" parent="WIyWlLk6GJQsqaUBKTNV-1" source="kchw-U7hw0C-sCnVVzNL-60" target="WyOUPJDRF6BB89pM1G4j-0" edge="1">
          <mxGeometry relative="1" as="geometry">
            <Array as="points">
              <mxPoint x="-500" y="613" />
            </Array>
          </mxGeometry>
        </mxCell>
        <mxCell id="W0nB9QTuxgTVNlyttxNB-46" style="edgeStyle=orthogonalEdgeStyle;rounded=0;orthogonalLoop=1;jettySize=auto;html=1;" parent="WIyWlLk6GJQsqaUBKTNV-1" source="W0nB9QTuxgTVNlyttxNB-37" target="W0nB9QTuxgTVNlyttxNB-42" edge="1">
          <mxGeometry relative="1" as="geometry">
            <Array as="points">
              <mxPoint x="-650" y="-430" />
              <mxPoint x="-650" y="-430" />
            </Array>
          </mxGeometry>
        </mxCell>
        <mxCell id="W0nB9QTuxgTVNlyttxNB-37" value="CallbackData (script)" style="swimlane;fontStyle=1;align=center;verticalAlign=top;childLayout=stackLayout;horizontal=1;startSize=26;horizontalStack=0;resizeParent=1;resizeParentMax=0;resizeLast=0;collapsible=1;marginBottom=0;whiteSpace=wrap;html=1;" parent="WIyWlLk6GJQsqaUBKTNV-1" vertex="1">
          <mxGeometry x="-640" y="-520" width="160" height="250" as="geometry" />
        </mxCell>
        <mxCell id="W0nB9QTuxgTVNlyttxNB-38" value="public struct&lt;br&gt;+ DataType: CallbackDataType: public&lt;br&gt;DataString: public string&lt;br&gt;+ DataObject: public object&lt;br&gt;+ DataBoolean: public bool" style="text;strokeColor=none;fillColor=none;align=left;verticalAlign=top;spacingLeft=4;spacingRight=4;overflow=hidden;rotatable=0;points=[[0,0.5],[1,0.5]];portConstraint=eastwest;whiteSpace=wrap;html=1;" parent="W0nB9QTuxgTVNlyttxNB-37" vertex="1">
          <mxGeometry y="26" width="160" height="94" as="geometry" />
        </mxCell>
        <mxCell id="W0nB9QTuxgTVNlyttxNB-39" value="" style="line;strokeWidth=1;fillColor=none;align=left;verticalAlign=middle;spacingTop=-1;spacingLeft=3;spacingRight=3;rotatable=0;labelPosition=right;points=[];portConstraint=eastwest;strokeColor=inherit;" parent="W0nB9QTuxgTVNlyttxNB-37" vertex="1">
          <mxGeometry y="120" width="160" height="8" as="geometry" />
        </mxCell>
        <mxCell id="W0nB9QTuxgTVNlyttxNB-40" value="+ NoData(): public static CallbackData&lt;br&gt;+ String(string): public static CallbackData&lt;br&gt;+ Object(object): public static CallbackData&lt;br&gt;+ Boolean(bool): public static CallbackData" style="text;strokeColor=none;fillColor=none;align=left;verticalAlign=top;spacingLeft=4;spacingRight=4;overflow=hidden;rotatable=0;points=[[0,0.5],[1,0.5]];portConstraint=eastwest;whiteSpace=wrap;html=1;" parent="W0nB9QTuxgTVNlyttxNB-37" vertex="1">
          <mxGeometry y="128" width="160" height="122" as="geometry" />
        </mxCell>
        <mxCell id="W0nB9QTuxgTVNlyttxNB-42" value="CallbackDataType (script)" style="swimlane;fontStyle=1;align=center;verticalAlign=top;childLayout=stackLayout;horizontal=1;startSize=26;horizontalStack=0;resizeParent=1;resizeParentMax=0;resizeLast=0;collapsible=1;marginBottom=0;whiteSpace=wrap;html=1;" parent="WIyWlLk6GJQsqaUBKTNV-1" vertex="1">
          <mxGeometry x="-827" y="-495" width="160" height="130" as="geometry" />
        </mxCell>
        <mxCell id="W0nB9QTuxgTVNlyttxNB-43" value="public enum" style="text;strokeColor=none;fillColor=none;align=left;verticalAlign=top;spacingLeft=4;spacingRight=4;overflow=hidden;rotatable=0;points=[[0,0.5],[1,0.5]];portConstraint=eastwest;whiteSpace=wrap;html=1;" parent="W0nB9QTuxgTVNlyttxNB-42" vertex="1">
          <mxGeometry y="26" width="160" height="26" as="geometry" />
        </mxCell>
        <mxCell id="W0nB9QTuxgTVNlyttxNB-44" value="" style="line;strokeWidth=1;fillColor=none;align=left;verticalAlign=middle;spacingTop=-1;spacingLeft=3;spacingRight=3;rotatable=0;labelPosition=right;points=[];portConstraint=eastwest;strokeColor=inherit;" parent="W0nB9QTuxgTVNlyttxNB-42" vertex="1">
          <mxGeometry y="52" width="160" height="8" as="geometry" />
        </mxCell>
        <mxCell id="W0nB9QTuxgTVNlyttxNB-45" value="+ NoData,&lt;br&gt;String,&lt;br&gt;Object,&lt;br&gt;Boolean" style="text;strokeColor=none;fillColor=none;align=left;verticalAlign=top;spacingLeft=4;spacingRight=4;overflow=hidden;rotatable=0;points=[[0,0.5],[1,0.5]];portConstraint=eastwest;whiteSpace=wrap;html=1;" parent="W0nB9QTuxgTVNlyttxNB-42" vertex="1">
          <mxGeometry y="60" width="160" height="70" as="geometry" />
        </mxCell>
        <mxCell id="W0nB9QTuxgTVNlyttxNB-56" style="edgeStyle=orthogonalEdgeStyle;rounded=0;orthogonalLoop=1;jettySize=auto;html=1;" parent="WIyWlLk6GJQsqaUBKTNV-1" source="W0nB9QTuxgTVNlyttxNB-47" target="W0nB9QTuxgTVNlyttxNB-52" edge="1">
          <mxGeometry relative="1" as="geometry" />
        </mxCell>
        <mxCell id="W0nB9QTuxgTVNlyttxNB-47" value="ComponentEventsContainer (script)" style="swimlane;fontStyle=1;align=center;verticalAlign=top;childLayout=stackLayout;horizontal=1;startSize=30;horizontalStack=0;resizeParent=1;resizeParentMax=0;resizeLast=0;collapsible=1;marginBottom=0;whiteSpace=wrap;html=1;" parent="WIyWlLk6GJQsqaUBKTNV-1" vertex="1">
          <mxGeometry x="-820" y="440" width="230" height="210" as="geometry" />
        </mxCell>
        <mxCell id="W0nB9QTuxgTVNlyttxNB-48" value="public class&lt;br&gt;+ pairs: public List&amp;lt;CallbackComponentPair&amp;gt;" style="text;strokeColor=none;fillColor=none;align=left;verticalAlign=top;spacingLeft=4;spacingRight=4;overflow=hidden;rotatable=0;points=[[0,0.5],[1,0.5]];portConstraint=eastwest;whiteSpace=wrap;html=1;" parent="W0nB9QTuxgTVNlyttxNB-47" vertex="1">
          <mxGeometry y="30" width="230" height="60" as="geometry" />
        </mxCell>
        <mxCell id="W0nB9QTuxgTVNlyttxNB-49" value="" style="line;strokeWidth=1;fillColor=none;align=left;verticalAlign=middle;spacingTop=-1;spacingLeft=3;spacingRight=3;rotatable=0;labelPosition=right;points=[];portConstraint=eastwest;strokeColor=inherit;" parent="W0nB9QTuxgTVNlyttxNB-47" vertex="1">
          <mxGeometry y="90" width="230" height="8" as="geometry" />
        </mxCell>
        <mxCell id="W0nB9QTuxgTVNlyttxNB-50" value="+ ComponentEventsContainer(): constructor&lt;br&gt;+ AddPair(CallbackComponentPair): public void&lt;br&gt;+ FireIfNotNull(CallbackData): public void&lt;br&gt;+ Unsubscribe(CallbackComponentPair): public void" style="text;strokeColor=none;fillColor=none;align=left;verticalAlign=top;spacingLeft=4;spacingRight=4;overflow=hidden;rotatable=0;points=[[0,0.5],[1,0.5]];portConstraint=eastwest;whiteSpace=wrap;html=1;" parent="W0nB9QTuxgTVNlyttxNB-47" vertex="1">
          <mxGeometry y="98" width="230" height="112" as="geometry" />
        </mxCell>
        <mxCell id="W0nB9QTuxgTVNlyttxNB-61" style="edgeStyle=orthogonalEdgeStyle;rounded=0;orthogonalLoop=1;jettySize=auto;html=1;" parent="WIyWlLk6GJQsqaUBKTNV-1" source="W0nB9QTuxgTVNlyttxNB-52" target="W0nB9QTuxgTVNlyttxNB-57" edge="1">
          <mxGeometry relative="1" as="geometry" />
        </mxCell>
        <mxCell id="W0nB9QTuxgTVNlyttxNB-52" value="EventCompontentPair (script)" style="swimlane;fontStyle=1;align=center;verticalAlign=top;childLayout=stackLayout;horizontal=1;startSize=26;horizontalStack=0;resizeParent=1;resizeParentMax=0;resizeLast=0;collapsible=1;marginBottom=0;whiteSpace=wrap;html=1;" parent="WIyWlLk6GJQsqaUBKTNV-1" vertex="1">
          <mxGeometry x="-820" y="700" width="300" height="170" as="geometry" />
        </mxCell>
        <mxCell id="W0nB9QTuxgTVNlyttxNB-53" value="public struct CallbackComponentPair&lt;br&gt;+ CallbackWithData: public Events.EventDataCallback&lt;br&gt;+ Component: public Component" style="text;strokeColor=none;fillColor=none;align=left;verticalAlign=top;spacingLeft=4;spacingRight=4;overflow=hidden;rotatable=0;points=[[0,0.5],[1,0.5]];portConstraint=eastwest;whiteSpace=wrap;html=1;" parent="W0nB9QTuxgTVNlyttxNB-52" vertex="1">
          <mxGeometry y="26" width="300" height="64" as="geometry" />
        </mxCell>
        <mxCell id="W0nB9QTuxgTVNlyttxNB-54" value="" style="line;strokeWidth=1;fillColor=none;align=left;verticalAlign=middle;spacingTop=-1;spacingLeft=3;spacingRight=3;rotatable=0;labelPosition=right;points=[];portConstraint=eastwest;strokeColor=inherit;" parent="W0nB9QTuxgTVNlyttxNB-52" vertex="1">
          <mxGeometry y="90" width="300" height="8" as="geometry" />
        </mxCell>
        <mxCell id="W0nB9QTuxgTVNlyttxNB-55" value="+ CallbackComponentPair(Events.EventDataCallback, Component): constructor&lt;br&gt;+ Equals(object): public override bool&lt;br&gt;+ GetHashCode(): public override int" style="text;strokeColor=none;fillColor=none;align=left;verticalAlign=top;spacingLeft=4;spacingRight=4;overflow=hidden;rotatable=0;points=[[0,0.5],[1,0.5]];portConstraint=eastwest;whiteSpace=wrap;html=1;" parent="W0nB9QTuxgTVNlyttxNB-52" vertex="1">
          <mxGeometry y="98" width="300" height="72" as="geometry" />
        </mxCell>
        <mxCell id="W0nB9QTuxgTVNlyttxNB-57" value="Component (Unity native class)" style="swimlane;fontStyle=1;align=center;verticalAlign=top;childLayout=stackLayout;horizontal=1;startSize=40;horizontalStack=0;resizeParent=1;resizeParentMax=0;resizeLast=0;collapsible=1;marginBottom=0;whiteSpace=wrap;html=1;" parent="WIyWlLk6GJQsqaUBKTNV-1" vertex="1">
          <mxGeometry x="-820" y="900" width="160" height="66" as="geometry" />
        </mxCell>
        <mxCell id="W0nB9QTuxgTVNlyttxNB-60" value="Check Unity documentation" style="text;strokeColor=none;fillColor=none;align=left;verticalAlign=top;spacingLeft=4;spacingRight=4;overflow=hidden;rotatable=0;points=[[0,0.5],[1,0.5]];portConstraint=eastwest;whiteSpace=wrap;html=1;" parent="W0nB9QTuxgTVNlyttxNB-57" vertex="1">
          <mxGeometry y="40" width="160" height="26" as="geometry" />
        </mxCell>
        <mxCell id="W0nB9QTuxgTVNlyttxNB-63" value="Delegate (C# native)" style="swimlane;fontStyle=1;align=center;verticalAlign=top;childLayout=stackLayout;horizontal=1;startSize=26;horizontalStack=0;resizeParent=1;resizeParentMax=0;resizeLast=0;collapsible=1;marginBottom=0;whiteSpace=wrap;html=1;" parent="WIyWlLk6GJQsqaUBKTNV-1" vertex="1">
          <mxGeometry x="-827" y="-310" width="160" height="52" as="geometry" />
        </mxCell>
        <mxCell id="W0nB9QTuxgTVNlyttxNB-66" value="Check C# documentation" style="text;strokeColor=none;fillColor=none;align=left;verticalAlign=top;spacingLeft=4;spacingRight=4;overflow=hidden;rotatable=0;points=[[0,0.5],[1,0.5]];portConstraint=eastwest;whiteSpace=wrap;html=1;" parent="W0nB9QTuxgTVNlyttxNB-63" vertex="1">
          <mxGeometry y="26" width="160" height="26" as="geometry" />
        </mxCell>
        <mxCell id="W0nB9QTuxgTVNlyttxNB-68" value="EventType (script)" style="swimlane;fontStyle=1;align=center;verticalAlign=top;childLayout=stackLayout;horizontal=1;startSize=26;horizontalStack=0;resizeParent=1;resizeParentMax=0;resizeLast=0;collapsible=1;marginBottom=0;whiteSpace=wrap;html=1;" parent="WIyWlLk6GJQsqaUBKTNV-1" vertex="1">
          <mxGeometry x="-600" y="890" width="160" height="970" as="geometry" />
        </mxCell>
        <mxCell id="W0nB9QTuxgTVNlyttxNB-69" value="public enum" style="text;strokeColor=none;fillColor=none;align=left;verticalAlign=top;spacingLeft=4;spacingRight=4;overflow=hidden;rotatable=0;points=[[0,0.5],[1,0.5]];portConstraint=eastwest;whiteSpace=wrap;html=1;" parent="W0nB9QTuxgTVNlyttxNB-68" vertex="1">
          <mxGeometry y="26" width="160" height="26" as="geometry" />
        </mxCell>
        <mxCell id="W0nB9QTuxgTVNlyttxNB-70" value="" style="line;strokeWidth=1;fillColor=none;align=left;verticalAlign=middle;spacingTop=-1;spacingLeft=3;spacingRight=3;rotatable=0;labelPosition=right;points=[];portConstraint=eastwest;strokeColor=inherit;" parent="W0nB9QTuxgTVNlyttxNB-68" vertex="1">
          <mxGeometry y="52" width="160" height="8" as="geometry" />
        </mxCell>
        <mxCell id="W0nB9QTuxgTVNlyttxNB-71" value="+&amp;nbsp;A,&lt;div&gt;B,&lt;/div&gt;&lt;div&gt;C,&lt;/div&gt;&lt;div&gt;PickupObject,&lt;/div&gt;&lt;div&gt;PutObject,&lt;/div&gt;&lt;div&gt;CorrectItemsInThroughput,&lt;/div&gt;&lt;div&gt;CorrectLayoutInThroughput,&lt;/div&gt;&lt;div&gt;CheckLaminarCabinetItems,&lt;/div&gt;&lt;div&gt;CorrectLayoutInLaminarCabinet,&lt;/div&gt;&lt;div&gt;Missing,&lt;/div&gt;&lt;div&gt;BottleDisinfect,&lt;/div&gt;&lt;div&gt;AttachLuerlock,&lt;/div&gt;&lt;div&gt;AmountOfMedicine,&lt;/div&gt;&lt;div&gt;CloseSterileBag,&lt;/div&gt;&lt;div&gt;RoomDoor,&lt;/div&gt;&lt;div&gt;ResetCounter,&lt;/div&gt;&lt;div&gt;ItemDroppedInTrash,&lt;/div&gt;&lt;div&gt;ItemDroppedOnFloor,&lt;/div&gt;&lt;div&gt;GrabObject,&lt;/div&gt;&lt;div&gt;ReleaseObject,&lt;/div&gt;&lt;div&gt;InteractWithObject,&lt;/div&gt;&lt;div&gt;UninteractWithObject,&lt;/div&gt;&lt;div&gt;GrabUninteractWithObject,&lt;/div&gt;&lt;div&gt;GrabInteractWithObject,&lt;/div&gt;&lt;div&gt;ItemPlacedForReference,&lt;/div&gt;&lt;div&gt;DetachedNeedleFromSyringe,&lt;/div&gt;&lt;div&gt;SyringeToLuerlock,&lt;/div&gt;&lt;div&gt;SyringeFromLuerlock,&lt;/div&gt;&lt;div&gt;HandleGrabbed,&lt;/div&gt;&lt;div&gt;PushingToSmallerSyringe,&lt;/div&gt;&lt;div&gt;ItemDroppedInWrongTrash,&lt;/div&gt;&lt;div&gt;WriteToObject,&lt;/div&gt;&lt;div&gt;TransferLiquidToBottle,&lt;/div&gt;&lt;div&gt;AttachFilter,&lt;/div&gt;&lt;div&gt;FilterDissassembled,&lt;/div&gt;&lt;div&gt;PlateOpened,&lt;/div&gt;&lt;div&gt;AttachPipe,&lt;/div&gt;&lt;div&gt;OpenTweezersPackage,&lt;/div&gt;&lt;div&gt;SyringeDisassembled,&lt;/div&gt;&lt;div&gt;FilterEmptied,&lt;/div&gt;&lt;div&gt;FilterCutted,&lt;/div&gt;&lt;div&gt;FilterHalfEnteredBottle,&lt;/div&gt;&lt;div&gt;AgarPlateClosed,&lt;/div&gt;&lt;div&gt;ScalpelCoverOpened,&lt;/div&gt;&lt;div&gt;TweezersCoverOpened,&lt;/div&gt;&lt;div&gt;FilterCoverOpened,&lt;/div&gt;&lt;div&gt;WrongSpotOpened,&lt;/div&gt;&lt;div&gt;TouchedFilterWithHand,&lt;/div&gt;&lt;div&gt;FingerprintsGivenL,&lt;/div&gt;&lt;div&gt;FingerprintsGivenR,&lt;/div&gt;&lt;div&gt;FilterAssembled,&lt;/div&gt;&lt;div&gt;FilterDisconnected,&lt;/div&gt;&lt;div&gt;PipetteCoverOpened,&lt;/div&gt;&lt;div&gt;WashingHands,&lt;/div&gt;&lt;div&gt;ProtectiveClothingEquipped,&lt;/div&gt;&lt;div&gt;CleaningGlasses,&lt;/div&gt;&lt;div&gt;ItemPlacedInBasket,&lt;/div&gt;&lt;div&gt;BottleClosed,&lt;/div&gt;&lt;div&gt;BottleOpened,&lt;/div&gt;&lt;div&gt;CleaningBottleSprayed,&lt;/div&gt;&lt;div&gt;ItemPlacedBasketForReference,&lt;/div&gt;&lt;div&gt;&lt;span style=&quot;background-color: initial;&quot;&gt;canCollectTrash,&lt;/span&gt;&lt;/div&gt;" style="text;strokeColor=none;fillColor=none;align=left;verticalAlign=top;spacingLeft=4;spacingRight=4;overflow=hidden;rotatable=0;points=[[0,0.5],[1,0.5]];portConstraint=eastwest;whiteSpace=wrap;html=1;" parent="W0nB9QTuxgTVNlyttxNB-68" vertex="1">
          <mxGeometry y="60" width="160" height="910" as="geometry" />
        </mxCell>
        <mxCell id="W0nB9QTuxgTVNlyttxNB-82" style="edgeStyle=orthogonalEdgeStyle;rounded=0;orthogonalLoop=1;jettySize=auto;html=1;" parent="WIyWlLk6GJQsqaUBKTNV-1" source="W0nB9QTuxgTVNlyttxNB-73" target="W0nB9QTuxgTVNlyttxNB-78" edge="1">
          <mxGeometry relative="1" as="geometry" />
        </mxCell>
        <mxCell id="W0nB9QTuxgTVNlyttxNB-175" style="edgeStyle=orthogonalEdgeStyle;rounded=0;orthogonalLoop=1;jettySize=auto;html=1;" parent="WIyWlLk6GJQsqaUBKTNV-1" source="W0nB9QTuxgTVNlyttxNB-73" target="W0nB9QTuxgTVNlyttxNB-169" edge="1">
          <mxGeometry relative="1" as="geometry">
            <Array as="points">
              <mxPoint x="900" y="210" />
              <mxPoint x="900" y="210" />
            </Array>
          </mxGeometry>
        </mxCell>
        <mxCell id="Sjk4_UQVZihsHUC_Evtl-20" style="edgeStyle=orthogonalEdgeStyle;rounded=0;orthogonalLoop=1;jettySize=auto;html=1;" parent="WIyWlLk6GJQsqaUBKTNV-1" source="W0nB9QTuxgTVNlyttxNB-73" target="Sjk4_UQVZihsHUC_Evtl-12" edge="1">
          <mxGeometry relative="1" as="geometry">
            <Array as="points">
              <mxPoint x="1055" y="200" />
            </Array>
          </mxGeometry>
        </mxCell>
        <mxCell id="W0nB9QTuxgTVNlyttxNB-73" value="UISystem (script)" style="swimlane;fontStyle=1;align=center;verticalAlign=top;childLayout=stackLayout;horizontal=1;startSize=26;horizontalStack=0;resizeParent=1;resizeParentMax=0;resizeLast=0;collapsible=1;marginBottom=0;whiteSpace=wrap;html=1;" parent="WIyWlLk6GJQsqaUBKTNV-1" vertex="1">
          <mxGeometry x="390" y="-30" width="180" height="290" as="geometry" />
        </mxCell>
        <mxCell id="W0nB9QTuxgTVNlyttxNB-74" value="+ Instance: public static UISystem&lt;br&gt;+ popupPrefab: [SerializeField] private GameObject&lt;br&gt;+ player: public GameObject&lt;br&gt;+ hand: private Hand&lt;br&gt;+ descript = &quot;&quot;: private string&lt;br&gt;+ Descript: public string" style="text;strokeColor=none;fillColor=none;align=left;verticalAlign=top;spacingLeft=4;spacingRight=4;overflow=hidden;rotatable=0;points=[[0,0.5],[1,0.5]];portConstraint=eastwest;whiteSpace=wrap;html=1;" parent="W0nB9QTuxgTVNlyttxNB-73" vertex="1">
          <mxGeometry y="26" width="180" height="124" as="geometry" />
        </mxCell>
        <mxCell id="W0nB9QTuxgTVNlyttxNB-75" value="" style="line;strokeWidth=1;fillColor=none;align=left;verticalAlign=middle;spacingTop=-1;spacingLeft=3;spacingRight=3;rotatable=0;labelPosition=right;points=[];portConstraint=eastwest;strokeColor=inherit;" parent="W0nB9QTuxgTVNlyttxNB-73" vertex="1">
          <mxGeometry y="150" width="180" height="8" as="geometry" />
        </mxCell>
        <mxCell id="W0nB9QTuxgTVNlyttxNB-76" value="+ Awake(): private void&lt;br&gt;+ InitUIComponent(GameObject): private&lt;br&gt;+ CreatePopup(string, MsgType): public void&lt;br&gt;+ CreatePopup(int, string, MsgType)" style="text;strokeColor=none;fillColor=none;align=left;verticalAlign=top;spacingLeft=4;spacingRight=4;overflow=hidden;rotatable=0;points=[[0,0.5],[1,0.5]];portConstraint=eastwest;whiteSpace=wrap;html=1;" parent="W0nB9QTuxgTVNlyttxNB-73" vertex="1">
          <mxGeometry y="158" width="180" height="132" as="geometry" />
        </mxCell>
        <mxCell id="W0nB9QTuxgTVNlyttxNB-78" value="MessageType (script)" style="swimlane;fontStyle=1;align=center;verticalAlign=top;childLayout=stackLayout;horizontal=1;startSize=26;horizontalStack=0;resizeParent=1;resizeParentMax=0;resizeLast=0;collapsible=1;marginBottom=0;whiteSpace=wrap;html=1;" parent="WIyWlLk6GJQsqaUBKTNV-1" vertex="1">
          <mxGeometry x="400" y="280" width="160" height="140" as="geometry" />
        </mxCell>
        <mxCell id="W0nB9QTuxgTVNlyttxNB-79" value="public enum MsgType" style="text;strokeColor=none;fillColor=none;align=left;verticalAlign=top;spacingLeft=4;spacingRight=4;overflow=hidden;rotatable=0;points=[[0,0.5],[1,0.5]];portConstraint=eastwest;whiteSpace=wrap;html=1;" parent="W0nB9QTuxgTVNlyttxNB-78" vertex="1">
          <mxGeometry y="26" width="160" height="26" as="geometry" />
        </mxCell>
        <mxCell id="W0nB9QTuxgTVNlyttxNB-80" value="" style="line;strokeWidth=1;fillColor=none;align=left;verticalAlign=middle;spacingTop=-1;spacingLeft=3;spacingRight=3;rotatable=0;labelPosition=right;points=[];portConstraint=eastwest;strokeColor=inherit;" parent="W0nB9QTuxgTVNlyttxNB-78" vertex="1">
          <mxGeometry y="52" width="160" height="8" as="geometry" />
        </mxCell>
        <mxCell id="W0nB9QTuxgTVNlyttxNB-81" value="+ Mistake,&lt;br&gt;Notify,&lt;br&gt;Warning,&lt;br&gt;Error,&lt;br&gt;Done" style="text;strokeColor=none;fillColor=none;align=left;verticalAlign=top;spacingLeft=4;spacingRight=4;overflow=hidden;rotatable=0;points=[[0,0.5],[1,0.5]];portConstraint=eastwest;whiteSpace=wrap;html=1;" parent="W0nB9QTuxgTVNlyttxNB-78" vertex="1">
          <mxGeometry y="60" width="160" height="80" as="geometry" />
        </mxCell>
        <mxCell id="W0nB9QTuxgTVNlyttxNB-117" style="edgeStyle=orthogonalEdgeStyle;rounded=0;orthogonalLoop=1;jettySize=auto;html=1;" parent="WIyWlLk6GJQsqaUBKTNV-1" source="W0nB9QTuxgTVNlyttxNB-85" target="W0nB9QTuxgTVNlyttxNB-113" edge="1">
          <mxGeometry relative="1" as="geometry" />
        </mxCell>
        <mxCell id="W0nB9QTuxgTVNlyttxNB-85" value="VRVibrationManager (script)" style="swimlane;fontStyle=1;align=center;verticalAlign=top;childLayout=stackLayout;horizontal=1;startSize=40;horizontalStack=0;resizeParent=1;resizeParentMax=0;resizeLast=0;collapsible=1;marginBottom=0;whiteSpace=wrap;html=1;" parent="WIyWlLk6GJQsqaUBKTNV-1" vertex="1">
          <mxGeometry x="30" y="190" width="160" height="290" as="geometry" />
        </mxCell>
        <mxCell id="W0nB9QTuxgTVNlyttxNB-86" value="+ vibrationManager: private static GameObject&lt;br&gt;+ hapticAction: public SteamVR_Action_Vibration&lt;br&gt;+ TestingAmplitude: [Range(0,1)] public float&lt;br&gt;+ TestingFrequency: [Range(0,320)] public float&lt;br&gt;+ TestingStrength: [Range(0,1)] public float" style="text;strokeColor=none;fillColor=none;align=left;verticalAlign=top;spacingLeft=4;spacingRight=4;overflow=hidden;rotatable=0;points=[[0,0.5],[1,0.5]];portConstraint=eastwest;whiteSpace=wrap;html=1;" parent="W0nB9QTuxgTVNlyttxNB-85" vertex="1">
          <mxGeometry y="40" width="160" height="160" as="geometry" />
        </mxCell>
        <mxCell id="W0nB9QTuxgTVNlyttxNB-87" value="" style="line;strokeWidth=1;fillColor=none;align=left;verticalAlign=middle;spacingTop=-1;spacingLeft=3;spacingRight=3;rotatable=0;labelPosition=right;points=[];portConstraint=eastwest;strokeColor=inherit;" parent="W0nB9QTuxgTVNlyttxNB-85" vertex="1">
          <mxGeometry y="200" width="160" height="8" as="geometry" />
        </mxCell>
        <mxCell id="W0nB9QTuxgTVNlyttxNB-88" value="+ Awake(): void&lt;br&gt;+ Vibrate(): public static void&lt;br&gt;+ TriggerVibration(): public void" style="text;strokeColor=none;fillColor=none;align=left;verticalAlign=top;spacingLeft=4;spacingRight=4;overflow=hidden;rotatable=0;points=[[0,0.5],[1,0.5]];portConstraint=eastwest;whiteSpace=wrap;html=1;" parent="W0nB9QTuxgTVNlyttxNB-85" vertex="1">
          <mxGeometry y="208" width="160" height="82" as="geometry" />
        </mxCell>
        <mxCell id="W0nB9QTuxgTVNlyttxNB-90" value="Resources (Unity native class)" style="swimlane;fontStyle=1;align=center;verticalAlign=top;childLayout=stackLayout;horizontal=1;startSize=38;horizontalStack=0;resizeParent=1;resizeParentMax=0;resizeLast=0;collapsible=1;marginBottom=0;whiteSpace=wrap;html=1;" parent="WIyWlLk6GJQsqaUBKTNV-1" vertex="1">
          <mxGeometry x="-340" y="-1162" width="160" height="64" as="geometry" />
        </mxCell>
        <mxCell id="W0nB9QTuxgTVNlyttxNB-93" value="Check Unity documentation" style="text;strokeColor=none;fillColor=none;align=left;verticalAlign=top;spacingLeft=4;spacingRight=4;overflow=hidden;rotatable=0;points=[[0,0.5],[1,0.5]];portConstraint=eastwest;whiteSpace=wrap;html=1;" parent="W0nB9QTuxgTVNlyttxNB-90" vertex="1">
          <mxGeometry y="38" width="160" height="26" as="geometry" />
        </mxCell>
        <mxCell id="W0nB9QTuxgTVNlyttxNB-107" style="edgeStyle=orthogonalEdgeStyle;rounded=0;orthogonalLoop=1;jettySize=auto;html=1;" parent="WIyWlLk6GJQsqaUBKTNV-1" source="W0nB9QTuxgTVNlyttxNB-98" target="W0nB9QTuxgTVNlyttxNB-103" edge="1">
          <mxGeometry relative="1" as="geometry">
            <Array as="points">
              <mxPoint x="-110" y="-1517" />
              <mxPoint x="-110" y="-1517" />
            </Array>
          </mxGeometry>
        </mxCell>
        <mxCell id="W0nB9QTuxgTVNlyttxNB-112" style="edgeStyle=orthogonalEdgeStyle;rounded=0;orthogonalLoop=1;jettySize=auto;html=1;" parent="WIyWlLk6GJQsqaUBKTNV-1" source="W0nB9QTuxgTVNlyttxNB-98" target="W0nB9QTuxgTVNlyttxNB-108" edge="1">
          <mxGeometry relative="1" as="geometry">
            <Array as="points">
              <mxPoint x="-110" y="-1437" />
              <mxPoint x="-110" y="-1437" />
            </Array>
          </mxGeometry>
        </mxCell>
        <mxCell id="W0nB9QTuxgTVNlyttxNB-98" value="CameraFadeController (script)" style="swimlane;fontStyle=1;align=center;verticalAlign=top;childLayout=stackLayout;horizontal=1;startSize=36;horizontalStack=0;resizeParent=1;resizeParentMax=0;resizeLast=0;collapsible=1;marginBottom=0;whiteSpace=wrap;html=1;" parent="WIyWlLk6GJQsqaUBKTNV-1" vertex="1">
          <mxGeometry x="-90" y="-1550" width="200" height="370" as="geometry" />
        </mxCell>
        <mxCell id="W0nB9QTuxgTVNlyttxNB-99" value="+ fadeAnimator: private Animator&lt;br&gt;+ onFadeOutStart: public UnityEvent&lt;br&gt;+ onFadeOutComplete: public UnityEvent&lt;br&gt;+ onFadeInStart: public UnityEvent&lt;br&gt;+ onFadeInComplete: public UnityEvent&lt;br&gt;+ defaultOnFadeOutStart: private UnityEvent&lt;br&gt;+ defaultOnFadeOutComplete: private UnityEvent&lt;br&gt;+ defaultOnFadeInStart: private UnityEvent&lt;br&gt;+ defaultOnFadeInComplete: private UnityEvent" style="text;strokeColor=none;fillColor=none;align=left;verticalAlign=top;spacingLeft=4;spacingRight=4;overflow=hidden;rotatable=0;points=[[0,0.5],[1,0.5]];portConstraint=eastwest;whiteSpace=wrap;html=1;" parent="W0nB9QTuxgTVNlyttxNB-98" vertex="1">
          <mxGeometry y="36" width="200" height="244" as="geometry" />
        </mxCell>
        <mxCell id="W0nB9QTuxgTVNlyttxNB-100" value="" style="line;strokeWidth=1;fillColor=none;align=left;verticalAlign=middle;spacingTop=-1;spacingLeft=3;spacingRight=3;rotatable=0;labelPosition=right;points=[];portConstraint=eastwest;strokeColor=inherit;" parent="W0nB9QTuxgTVNlyttxNB-98" vertex="1">
          <mxGeometry y="280" width="200" height="8" as="geometry" />
        </mxCell>
        <mxCell id="W0nB9QTuxgTVNlyttxNB-101" value="+ Start(): private void&lt;br&gt;+ BeginFadeOut(): public void&lt;br&gt;+ BeginFadeIn(): public void&lt;br&gt;+ FadeOutComplete(): public void&lt;br&gt;+ FadeInComplete(): public void" style="text;strokeColor=none;fillColor=none;align=left;verticalAlign=top;spacingLeft=4;spacingRight=4;overflow=hidden;rotatable=0;points=[[0,0.5],[1,0.5]];portConstraint=eastwest;whiteSpace=wrap;html=1;" parent="W0nB9QTuxgTVNlyttxNB-98" vertex="1">
          <mxGeometry y="288" width="200" height="82" as="geometry" />
        </mxCell>
        <mxCell id="W0nB9QTuxgTVNlyttxNB-103" value="Animator (Unity native class)" style="swimlane;fontStyle=1;align=center;verticalAlign=top;childLayout=stackLayout;horizontal=1;startSize=40;horizontalStack=0;resizeParent=1;resizeParentMax=0;resizeLast=0;collapsible=1;marginBottom=0;whiteSpace=wrap;html=1;" parent="WIyWlLk6GJQsqaUBKTNV-1" vertex="1">
          <mxGeometry x="-320" y="-1550" width="160" height="66" as="geometry" />
        </mxCell>
        <mxCell id="W0nB9QTuxgTVNlyttxNB-106" value="Check Unity documentation" style="text;strokeColor=none;fillColor=none;align=left;verticalAlign=top;spacingLeft=4;spacingRight=4;overflow=hidden;rotatable=0;points=[[0,0.5],[1,0.5]];portConstraint=eastwest;whiteSpace=wrap;html=1;" parent="W0nB9QTuxgTVNlyttxNB-103" vertex="1">
          <mxGeometry y="40" width="160" height="26" as="geometry" />
        </mxCell>
        <mxCell id="W0nB9QTuxgTVNlyttxNB-108" value="UnityEvent (Unity native class)" style="swimlane;fontStyle=1;align=center;verticalAlign=top;childLayout=stackLayout;horizontal=1;startSize=40;horizontalStack=0;resizeParent=1;resizeParentMax=0;resizeLast=0;collapsible=1;marginBottom=0;whiteSpace=wrap;html=1;" parent="WIyWlLk6GJQsqaUBKTNV-1" vertex="1">
          <mxGeometry x="-320" y="-1470" width="160" height="66" as="geometry" />
        </mxCell>
        <mxCell id="W0nB9QTuxgTVNlyttxNB-111" value="Check Unity documentation" style="text;strokeColor=none;fillColor=none;align=left;verticalAlign=top;spacingLeft=4;spacingRight=4;overflow=hidden;rotatable=0;points=[[0,0.5],[1,0.5]];portConstraint=eastwest;whiteSpace=wrap;html=1;" parent="W0nB9QTuxgTVNlyttxNB-108" vertex="1">
          <mxGeometry y="40" width="160" height="26" as="geometry" />
        </mxCell>
        <mxCell id="W0nB9QTuxgTVNlyttxNB-113" value="SteamVRMock (script)" style="swimlane;fontStyle=1;align=center;verticalAlign=top;childLayout=stackLayout;horizontal=1;startSize=26;horizontalStack=0;resizeParent=1;resizeParentMax=0;resizeLast=0;collapsible=1;marginBottom=0;whiteSpace=wrap;html=1;" parent="WIyWlLk6GJQsqaUBKTNV-1" vertex="1">
          <mxGeometry x="30" y="505" width="160" height="160" as="geometry" />
        </mxCell>
        <mxCell id="W0nB9QTuxgTVNlyttxNB-114" value="namespace SteamVRMock" style="text;strokeColor=none;fillColor=none;align=left;verticalAlign=top;spacingLeft=4;spacingRight=4;overflow=hidden;rotatable=0;points=[[0,0.5],[1,0.5]];portConstraint=eastwest;whiteSpace=wrap;html=1;" parent="W0nB9QTuxgTVNlyttxNB-113" vertex="1">
          <mxGeometry y="26" width="160" height="26" as="geometry" />
        </mxCell>
        <mxCell id="W0nB9QTuxgTVNlyttxNB-115" value="" style="line;strokeWidth=1;fillColor=none;align=left;verticalAlign=middle;spacingTop=-1;spacingLeft=3;spacingRight=3;rotatable=0;labelPosition=right;points=[];portConstraint=eastwest;strokeColor=inherit;" parent="W0nB9QTuxgTVNlyttxNB-113" vertex="1">
          <mxGeometry y="52" width="160" height="8" as="geometry" />
        </mxCell>
        <mxCell id="W0nB9QTuxgTVNlyttxNB-116" value="&quot;This is a namespace that is used to circumvent the SteamVR dependencies when compiling the game for Android.&amp;nbsp;&lt;span style=&quot;background-color: initial;&quot;&gt;This does not provide any functionality.&quot;&lt;/span&gt;" style="text;strokeColor=none;fillColor=none;align=left;verticalAlign=top;spacingLeft=4;spacingRight=4;overflow=hidden;rotatable=0;points=[[0,0.5],[1,0.5]];portConstraint=eastwest;whiteSpace=wrap;html=1;" parent="W0nB9QTuxgTVNlyttxNB-113" vertex="1">
          <mxGeometry y="60" width="160" height="100" as="geometry" />
        </mxCell>
        <mxCell id="W0nB9QTuxgTVNlyttxNB-130" style="edgeStyle=orthogonalEdgeStyle;rounded=0;orthogonalLoop=1;jettySize=auto;html=1;" parent="WIyWlLk6GJQsqaUBKTNV-1" source="W0nB9QTuxgTVNlyttxNB-118" target="W0nB9QTuxgTVNlyttxNB-122" edge="1">
          <mxGeometry relative="1" as="geometry">
            <Array as="points">
              <mxPoint x="500" y="700" />
              <mxPoint x="500" y="700" />
            </Array>
          </mxGeometry>
        </mxCell>
        <mxCell id="Sjk4_UQVZihsHUC_Evtl-0" style="edgeStyle=orthogonalEdgeStyle;rounded=0;orthogonalLoop=1;jettySize=auto;html=1;" parent="WIyWlLk6GJQsqaUBKTNV-1" source="W0nB9QTuxgTVNlyttxNB-118" target="W0nB9QTuxgTVNlyttxNB-138" edge="1">
          <mxGeometry relative="1" as="geometry">
            <Array as="points">
              <mxPoint x="400" y="1430" />
            </Array>
          </mxGeometry>
        </mxCell>
        <mxCell id="Sjk4_UQVZihsHUC_Evtl-10" style="edgeStyle=orthogonalEdgeStyle;rounded=0;orthogonalLoop=1;jettySize=auto;html=1;" parent="WIyWlLk6GJQsqaUBKTNV-1" source="W0nB9QTuxgTVNlyttxNB-118" target="Sjk4_UQVZihsHUC_Evtl-1" edge="1">
          <mxGeometry relative="1" as="geometry" />
        </mxCell>
        <mxCell id="W0nB9QTuxgTVNlyttxNB-118" value="HintBox (script)" style="swimlane;fontStyle=1;align=center;verticalAlign=top;childLayout=stackLayout;horizontal=1;startSize=26;horizontalStack=0;resizeParent=1;resizeParentMax=0;resizeLast=0;collapsible=1;marginBottom=0;whiteSpace=wrap;html=1;" parent="WIyWlLk6GJQsqaUBKTNV-1" vertex="1">
          <mxGeometry x="300" y="480" width="200" height="650" as="geometry" />
        </mxCell>
        <mxCell id="W0nB9QTuxgTVNlyttxNB-119" value="extends DragAcceptable&lt;br&gt;+ hintPrefab: private static GameObject&lt;br&gt;+ hintTextPrefab: private static GameObject&lt;br&gt;+ boxInstance: private static HintBox&lt;br&gt;+ hintInstance: private static HintText&lt;br&gt;+ positions: private static Vector3[]&lt;br&gt;+ initialized = false: private static bool&lt;br&gt;+ maxDistance = 5f: private static float&lt;br&gt;+ playerCamera: private Transform&lt;br&gt;+ questionMark: private Transform&lt;br&gt;+ targetSize: private Vector3&lt;br&gt;+ hintBoxOpened: private bool&lt;br&gt;+ rotateSpeed = 20: private float&lt;br&gt;+ spawnTime = 1: private float&lt;br&gt;+ message: private string" style="text;strokeColor=none;fillColor=none;align=left;verticalAlign=top;spacingLeft=4;spacingRight=4;overflow=hidden;rotatable=0;points=[[0,0.5],[1,0.5]];portConstraint=eastwest;whiteSpace=wrap;html=1;" parent="W0nB9QTuxgTVNlyttxNB-118" vertex="1">
          <mxGeometry y="26" width="200" height="314" as="geometry" />
        </mxCell>
        <mxCell id="W0nB9QTuxgTVNlyttxNB-120" value="" style="line;strokeWidth=1;fillColor=none;align=left;verticalAlign=middle;spacingTop=-1;spacingLeft=3;spacingRight=3;rotatable=0;labelPosition=right;points=[];portConstraint=eastwest;strokeColor=inherit;" parent="W0nB9QTuxgTVNlyttxNB-118" vertex="1">
          <mxGeometry y="340" width="200" height="8" as="geometry" />
        </mxCell>
        <mxCell id="W0nB9QTuxgTVNlyttxNB-121" value="+ Init(bool = false): public static void&lt;br&gt;+ Awake(): protected override void&lt;br&gt;+ Start(): protected override void&lt;br&gt;+ InitHintBox(): private IEnumerator&lt;br&gt;+ Update(): protected override void&lt;br&gt;+ RotateBox(): private void&lt;br&gt;+ Activate(): protected override void&lt;br&gt;+ CreateHintText(string, Vector3): private static void&lt;br&gt;+ CreateHint(string, bool = false): public static void&lt;br&gt;+ DestroyCurrentHInt(): public static void&lt;br&gt;+ GetHintPosition(): private static Vector3&lt;br&gt;+ GetClosestPosition(List&amp;lt;Vector3&amp;gt;): private static Vector3&lt;br&gt;+ XRInteract(): public void" style="text;strokeColor=none;fillColor=none;align=left;verticalAlign=top;spacingLeft=4;spacingRight=4;overflow=hidden;rotatable=0;points=[[0,0.5],[1,0.5]];portConstraint=eastwest;whiteSpace=wrap;html=1;" parent="W0nB9QTuxgTVNlyttxNB-118" vertex="1">
          <mxGeometry y="348" width="200" height="302" as="geometry" />
        </mxCell>
        <mxCell id="W0nB9QTuxgTVNlyttxNB-131" style="edgeStyle=orthogonalEdgeStyle;rounded=0;orthogonalLoop=1;jettySize=auto;html=1;" parent="WIyWlLk6GJQsqaUBKTNV-1" source="W0nB9QTuxgTVNlyttxNB-122" target="W0nB9QTuxgTVNlyttxNB-126" edge="1">
          <mxGeometry relative="1" as="geometry">
            <Array as="points">
              <mxPoint x="700" y="805" />
              <mxPoint x="700" y="805" />
            </Array>
          </mxGeometry>
        </mxCell>
        <mxCell id="W0nB9QTuxgTVNlyttxNB-122" value="DragAcceptable (script)" style="swimlane;fontStyle=1;align=center;verticalAlign=top;childLayout=stackLayout;horizontal=1;startSize=26;horizontalStack=0;resizeParent=1;resizeParentMax=0;resizeLast=0;collapsible=1;marginBottom=0;whiteSpace=wrap;html=1;" parent="WIyWlLk6GJQsqaUBKTNV-1" vertex="1">
          <mxGeometry x="530" y="480" width="160" height="920" as="geometry" />
        </mxCell>
        <mxCell id="W0nB9QTuxgTVNlyttxNB-123" value="extends Interactable&lt;br&gt;+ defaultForce = 2500: private float&lt;br&gt;+ mass: private float&lt;br&gt;+ activateDistance = 0.1f: private float&lt;br&gt;+ brakeAmount = 10: private float&lt;br&gt;+ startPos: protected Vector3&lt;br&gt;+ destroyTime = 0.5f: private float&lt;br&gt;+ pCamera: private Transform&lt;br&gt;+ ActivateCount: public int&lt;br&gt;+ ActivateCountLimit = -1: public int&lt;br&gt;+ disabled: private bool&lt;br&gt;+ Disabled: public bool&lt;br&gt;+ Hidden: public bool&lt;br&gt;+ lookAtPlayer: [SerializeField] private bool&lt;br&gt;+ LookAtPlayer: public bool&lt;br&gt;+ ReleaseAfterActivate: public bool&lt;br&gt;+ grabbed: protected bool&lt;br&gt;+ hand: private Transform&lt;br&gt;+ Distance: private float&lt;br&gt;+ OnAcceptCallback(): public delegate void&lt;br&gt;+ OnAccept: public OnAcceplCallback" style="text;strokeColor=none;fillColor=none;align=left;verticalAlign=top;spacingLeft=4;spacingRight=4;overflow=hidden;rotatable=0;points=[[0,0.5],[1,0.5]];portConstraint=eastwest;whiteSpace=wrap;html=1;" parent="W0nB9QTuxgTVNlyttxNB-122" vertex="1">
          <mxGeometry y="26" width="160" height="474" as="geometry" />
        </mxCell>
        <mxCell id="W0nB9QTuxgTVNlyttxNB-124" value="" style="line;strokeWidth=1;fillColor=none;align=left;verticalAlign=middle;spacingTop=-1;spacingLeft=3;spacingRight=3;rotatable=0;labelPosition=right;points=[];portConstraint=eastwest;strokeColor=inherit;" parent="W0nB9QTuxgTVNlyttxNB-122" vertex="1">
          <mxGeometry y="500" width="160" height="8" as="geometry" />
        </mxCell>
        <mxCell id="W0nB9QTuxgTVNlyttxNB-125" value="+ Awake(): protected override void&lt;br&gt;+ Start(): protected override void&lt;br&gt;+ Initialize(): public void&lt;br&gt;+ Hide(bool): public void&lt;br&gt;+ Update(): protected virtual void&lt;br&gt;+ UpdateGrab(): private void&lt;br&gt;+ LerpedPosition(): private Vector3&lt;br&gt;+ UpdatePosition(): private void&lt;br&gt;+ Brake(): private void&lt;br&gt;+ CheckActivate(): private void&lt;br&gt;+ Activate(): protected virtual void&lt;br&gt;+ ActivateXR(): public void&lt;br&gt;+ Release(): private void&lt;br&gt;+ SafeDestroy(): public void&lt;br&gt;+ Interact(Hand): public override void&lt;br&gt;+ Uninteract(Hand): public override void&lt;br&gt;+ activateTrash(): public void" style="text;strokeColor=none;fillColor=none;align=left;verticalAlign=top;spacingLeft=4;spacingRight=4;overflow=hidden;rotatable=0;points=[[0,0.5],[1,0.5]];portConstraint=eastwest;whiteSpace=wrap;html=1;" parent="W0nB9QTuxgTVNlyttxNB-122" vertex="1">
          <mxGeometry y="508" width="160" height="412" as="geometry" />
        </mxCell>
        <mxCell id="W0nB9QTuxgTVNlyttxNB-137" style="edgeStyle=orthogonalEdgeStyle;rounded=0;orthogonalLoop=1;jettySize=auto;html=1;" parent="WIyWlLk6GJQsqaUBKTNV-1" source="W0nB9QTuxgTVNlyttxNB-126" target="W0nB9QTuxgTVNlyttxNB-133" edge="1">
          <mxGeometry relative="1" as="geometry">
            <Array as="points">
              <mxPoint x="950" y="719" />
              <mxPoint x="950" y="719" />
            </Array>
          </mxGeometry>
        </mxCell>
        <mxCell id="W0nB9QTuxgTVNlyttxNB-142" style="edgeStyle=orthogonalEdgeStyle;rounded=0;orthogonalLoop=1;jettySize=auto;html=1;" parent="WIyWlLk6GJQsqaUBKTNV-1" source="W0nB9QTuxgTVNlyttxNB-126" target="W0nB9QTuxgTVNlyttxNB-138" edge="1">
          <mxGeometry relative="1" as="geometry">
            <Array as="points">
              <mxPoint x="800" y="1400" />
            </Array>
          </mxGeometry>
        </mxCell>
        <mxCell id="W0nB9QTuxgTVNlyttxNB-168" style="edgeStyle=orthogonalEdgeStyle;rounded=0;orthogonalLoop=1;jettySize=auto;html=1;" parent="WIyWlLk6GJQsqaUBKTNV-1" source="W0nB9QTuxgTVNlyttxNB-126" target="W0nB9QTuxgTVNlyttxNB-164" edge="1">
          <mxGeometry relative="1" as="geometry">
            <Array as="points">
              <mxPoint x="890" y="1395" />
            </Array>
          </mxGeometry>
        </mxCell>
        <mxCell id="W0nB9QTuxgTVNlyttxNB-173" style="edgeStyle=orthogonalEdgeStyle;rounded=0;orthogonalLoop=1;jettySize=auto;html=1;" parent="WIyWlLk6GJQsqaUBKTNV-1" source="W0nB9QTuxgTVNlyttxNB-126" target="W0nB9QTuxgTVNlyttxNB-169" edge="1">
          <mxGeometry relative="1" as="geometry">
            <Array as="points">
              <mxPoint x="1080" y="800" />
              <mxPoint x="1080" y="800" />
            </Array>
          </mxGeometry>
        </mxCell>
        <mxCell id="PucGmFwP9agxMgpOTaXp-52" style="edgeStyle=orthogonalEdgeStyle;rounded=0;orthogonalLoop=1;jettySize=auto;html=1;" edge="1" parent="WIyWlLk6GJQsqaUBKTNV-1" source="W0nB9QTuxgTVNlyttxNB-126" target="PucGmFwP9agxMgpOTaXp-5">
          <mxGeometry relative="1" as="geometry">
            <Array as="points">
              <mxPoint x="1190" y="840" />
              <mxPoint x="1190" y="1060" />
              <mxPoint x="1800" y="1060" />
              <mxPoint x="1800" y="705" />
            </Array>
          </mxGeometry>
        </mxCell>
        <mxCell id="W0nB9QTuxgTVNlyttxNB-126" value="Interactable (script)" style="swimlane;fontStyle=1;align=center;verticalAlign=top;childLayout=stackLayout;horizontal=1;startSize=26;horizontalStack=0;resizeParent=1;resizeParentMax=0;resizeLast=0;collapsible=1;marginBottom=0;whiteSpace=wrap;html=1;" parent="WIyWlLk6GJQsqaUBKTNV-1" vertex="1">
          <mxGeometry x="720" y="480" width="200" height="650" as="geometry" />
        </mxCell>
        <mxCell id="W0nB9QTuxgTVNlyttxNB-127" value="[DisallowMultipleComponent]&lt;br&gt;+ iTag = &quot;Interactable&quot;: public static string&lt;br&gt;+ grabbingHand: protected Hand&lt;br&gt;+ Type: public EnumBitField&amp;lt;InteractableType&amp;gt;&lt;br&gt;+ State: EnumBitField&amp;lt;InteractState&amp;gt;&lt;br&gt;+ RigidbodyContainer: public RigidbodyContainer&lt;br&gt;+ Rigidbody: public Rigidbody&lt;br&gt;+ IsInteracting: public bool&lt;br&gt;+ Interactors: public Interactors&lt;br&gt;+ DisableHighlighting: [SerializeField] public bool&lt;br&gt;+ highlight: private ObjectHighlight&lt;br&gt;+ Destroyed: public bool&lt;br&gt;+ IsAttached: public bool&lt;br&gt;+ IsGrabbed: public bool&lt;br&gt;+ IsOnFloor: public bool&lt;br&gt;+ Highlight: public ObjectHighlight" style="text;strokeColor=none;fillColor=none;align=left;verticalAlign=top;spacingLeft=4;spacingRight=4;overflow=hidden;rotatable=0;points=[[0,0.5],[1,0.5]];portConstraint=eastwest;whiteSpace=wrap;html=1;" parent="W0nB9QTuxgTVNlyttxNB-126" vertex="1">
          <mxGeometry y="26" width="200" height="314" as="geometry" />
        </mxCell>
        <mxCell id="W0nB9QTuxgTVNlyttxNB-128" value="" style="line;strokeWidth=1;fillColor=none;align=left;verticalAlign=middle;spacingTop=-1;spacingLeft=3;spacingRight=3;rotatable=0;labelPosition=right;points=[];portConstraint=eastwest;strokeColor=inherit;" parent="W0nB9QTuxgTVNlyttxNB-126" vertex="1">
          <mxGeometry y="340" width="200" height="8" as="geometry" />
        </mxCell>
        <mxCell id="W0nB9QTuxgTVNlyttxNB-129" value="+ Awake(): protected virtual void&lt;br&gt;+ Start(): protected virtual void&lt;br&gt;+ Interact(Hand): public virtual void&lt;br&gt;+ OnGrab(Hand): public virtual void&lt;br&gt;+ OnGrabStart(Hand): public virtual void&lt;br&gt;+ Uninteract(Hand): public virtual void&lt;br&gt;+ OnGrabEnd(Hand): public virtual void&lt;br&gt;+ GetInteractable(Transform): public static Interactable&lt;br&gt;+ GetInteractableObject(Transform): public static GameObject&lt;br&gt;+ DestroyInteractable(): public void&lt;br&gt;+ PrepareItemForRemoval(): private void&lt;br&gt;+ OnDestroy(): protected virtual void" style="text;strokeColor=none;fillColor=none;align=left;verticalAlign=top;spacingLeft=4;spacingRight=4;overflow=hidden;rotatable=0;points=[[0,0.5],[1,0.5]];portConstraint=eastwest;whiteSpace=wrap;html=1;" parent="W0nB9QTuxgTVNlyttxNB-126" vertex="1">
          <mxGeometry y="348" width="200" height="302" as="geometry" />
        </mxCell>
        <mxCell id="W0nB9QTuxgTVNlyttxNB-133" value="InteractState (script)" style="swimlane;fontStyle=1;align=center;verticalAlign=top;childLayout=stackLayout;horizontal=1;startSize=26;horizontalStack=0;resizeParent=1;resizeParentMax=0;resizeLast=0;collapsible=1;marginBottom=0;whiteSpace=wrap;html=1;" parent="WIyWlLk6GJQsqaUBKTNV-1" vertex="1">
          <mxGeometry x="1030" y="649" width="160" height="140" as="geometry" />
        </mxCell>
        <mxCell id="W0nB9QTuxgTVNlyttxNB-134" value="public enum" style="text;strokeColor=none;fillColor=none;align=left;verticalAlign=top;spacingLeft=4;spacingRight=4;overflow=hidden;rotatable=0;points=[[0,0.5],[1,0.5]];portConstraint=eastwest;whiteSpace=wrap;html=1;" parent="W0nB9QTuxgTVNlyttxNB-133" vertex="1">
          <mxGeometry y="26" width="160" height="26" as="geometry" />
        </mxCell>
        <mxCell id="W0nB9QTuxgTVNlyttxNB-135" value="" style="line;strokeWidth=1;fillColor=none;align=left;verticalAlign=middle;spacingTop=-1;spacingLeft=3;spacingRight=3;rotatable=0;labelPosition=right;points=[];portConstraint=eastwest;strokeColor=inherit;" parent="W0nB9QTuxgTVNlyttxNB-133" vertex="1">
          <mxGeometry y="52" width="160" height="8" as="geometry" />
        </mxCell>
        <mxCell id="W0nB9QTuxgTVNlyttxNB-136" value="+ Grabbed,&amp;nbsp;&lt;br&gt;LuerlockAttached,&lt;br&gt;ConnectableAttached,&lt;br&gt;InBottle,&lt;br&gt;OnFloor" style="text;strokeColor=none;fillColor=none;align=left;verticalAlign=top;spacingLeft=4;spacingRight=4;overflow=hidden;rotatable=0;points=[[0,0.5],[1,0.5]];portConstraint=eastwest;whiteSpace=wrap;html=1;" parent="W0nB9QTuxgTVNlyttxNB-133" vertex="1">
          <mxGeometry y="60" width="160" height="80" as="geometry" />
        </mxCell>
        <mxCell id="W0nB9QTuxgTVNlyttxNB-138" value="InteractType (script)" style="swimlane;fontStyle=1;align=center;verticalAlign=top;childLayout=stackLayout;horizontal=1;startSize=26;horizontalStack=0;resizeParent=1;resizeParentMax=0;resizeLast=0;collapsible=1;marginBottom=0;whiteSpace=wrap;html=1;" parent="WIyWlLk6GJQsqaUBKTNV-1" vertex="1">
          <mxGeometry x="720" y="1350" width="160" height="148" as="geometry" />
        </mxCell>
        <mxCell id="W0nB9QTuxgTVNlyttxNB-139" value="public enum InteractableType" style="text;strokeColor=none;fillColor=none;align=left;verticalAlign=top;spacingLeft=4;spacingRight=4;overflow=hidden;rotatable=0;points=[[0,0.5],[1,0.5]];portConstraint=eastwest;whiteSpace=wrap;html=1;" parent="W0nB9QTuxgTVNlyttxNB-138" vertex="1">
          <mxGeometry y="26" width="160" height="44" as="geometry" />
        </mxCell>
        <mxCell id="W0nB9QTuxgTVNlyttxNB-140" value="" style="line;strokeWidth=1;fillColor=none;align=left;verticalAlign=middle;spacingTop=-1;spacingLeft=3;spacingRight=3;rotatable=0;labelPosition=right;points=[];portConstraint=eastwest;strokeColor=inherit;" parent="W0nB9QTuxgTVNlyttxNB-138" vertex="1">
          <mxGeometry y="70" width="160" height="8" as="geometry" />
        </mxCell>
        <mxCell id="W0nB9QTuxgTVNlyttxNB-141" value="+ Grabbable,&lt;br&gt;Interactable,&amp;nbsp;&lt;br&gt;Draggable,&lt;br&gt;Attachable," style="text;strokeColor=none;fillColor=none;align=left;verticalAlign=top;spacingLeft=4;spacingRight=4;overflow=hidden;rotatable=0;points=[[0,0.5],[1,0.5]];portConstraint=eastwest;whiteSpace=wrap;html=1;" parent="W0nB9QTuxgTVNlyttxNB-138" vertex="1">
          <mxGeometry y="78" width="160" height="70" as="geometry" />
        </mxCell>
        <mxCell id="W0nB9QTuxgTVNlyttxNB-147" style="edgeStyle=orthogonalEdgeStyle;rounded=0;orthogonalLoop=1;jettySize=auto;html=1;" parent="WIyWlLk6GJQsqaUBKTNV-1" source="W0nB9QTuxgTVNlyttxNB-143" target="W0nB9QTuxgTVNlyttxNB-126" edge="1">
          <mxGeometry relative="1" as="geometry">
            <Array as="points">
              <mxPoint x="940" y="1037" />
              <mxPoint x="940" y="1037" />
            </Array>
          </mxGeometry>
        </mxCell>
        <mxCell id="W0nB9QTuxgTVNlyttxNB-153" style="edgeStyle=orthogonalEdgeStyle;rounded=0;orthogonalLoop=1;jettySize=auto;html=1;" parent="WIyWlLk6GJQsqaUBKTNV-1" source="W0nB9QTuxgTVNlyttxNB-143" target="W0nB9QTuxgTVNlyttxNB-149" edge="1">
          <mxGeometry relative="1" as="geometry">
            <Array as="points">
              <mxPoint x="1280" y="1115" />
              <mxPoint x="1280" y="1115" />
            </Array>
          </mxGeometry>
        </mxCell>
        <mxCell id="W0nB9QTuxgTVNlyttxNB-143" value="RigidbodyContainer (script)" style="swimlane;fontStyle=1;align=center;verticalAlign=top;childLayout=stackLayout;horizontal=1;startSize=40;horizontalStack=0;resizeParent=1;resizeParentMax=0;resizeLast=0;collapsible=1;marginBottom=0;whiteSpace=wrap;html=1;" parent="WIyWlLk6GJQsqaUBKTNV-1" vertex="1">
          <mxGeometry x="970" y="1000" width="200" height="230" as="geometry" />
        </mxCell>
        <mxCell id="W0nB9QTuxgTVNlyttxNB-144" value="+ interactable: private Interactable&lt;br&gt;+ state: private RigidbodyState&lt;br&gt;+ Rigidbody: public Rigidbody&lt;br&gt;+ Enabled: public bool&lt;br&gt;+ State: public RigidbodyState" style="text;strokeColor=none;fillColor=none;align=left;verticalAlign=top;spacingLeft=4;spacingRight=4;overflow=hidden;rotatable=0;points=[[0,0.5],[1,0.5]];portConstraint=eastwest;whiteSpace=wrap;html=1;" parent="W0nB9QTuxgTVNlyttxNB-143" vertex="1">
          <mxGeometry y="40" width="200" height="80" as="geometry" />
        </mxCell>
        <mxCell id="W0nB9QTuxgTVNlyttxNB-145" value="" style="line;strokeWidth=1;fillColor=none;align=left;verticalAlign=middle;spacingTop=-1;spacingLeft=3;spacingRight=3;rotatable=0;labelPosition=right;points=[];portConstraint=eastwest;strokeColor=inherit;" parent="W0nB9QTuxgTVNlyttxNB-143" vertex="1">
          <mxGeometry y="120" width="200" height="8" as="geometry" />
        </mxCell>
        <mxCell id="W0nB9QTuxgTVNlyttxNB-146" value="+ RigidbodyContainer(Interactable): constructor&lt;br&gt;+ EnableAndDeparent(): public void&lt;br&gt;+ Enable(): public void&lt;br&gt;+ Disable(): public void&lt;br&gt;+ SaveState(): public void" style="text;strokeColor=none;fillColor=none;align=left;verticalAlign=top;spacingLeft=4;spacingRight=4;overflow=hidden;rotatable=0;points=[[0,0.5],[1,0.5]];portConstraint=eastwest;whiteSpace=wrap;html=1;" parent="W0nB9QTuxgTVNlyttxNB-143" vertex="1">
          <mxGeometry y="128" width="200" height="102" as="geometry" />
        </mxCell>
        <mxCell id="W0nB9QTuxgTVNlyttxNB-148" style="edgeStyle=orthogonalEdgeStyle;rounded=0;orthogonalLoop=1;jettySize=auto;html=1;" parent="WIyWlLk6GJQsqaUBKTNV-1" source="W0nB9QTuxgTVNlyttxNB-129" target="W0nB9QTuxgTVNlyttxNB-143" edge="1">
          <mxGeometry relative="1" as="geometry">
            <Array as="points">
              <mxPoint x="940" y="1100" />
              <mxPoint x="940" y="1100" />
            </Array>
          </mxGeometry>
        </mxCell>
        <mxCell id="W0nB9QTuxgTVNlyttxNB-162" style="edgeStyle=orthogonalEdgeStyle;rounded=0;orthogonalLoop=1;jettySize=auto;html=1;" parent="WIyWlLk6GJQsqaUBKTNV-1" source="W0nB9QTuxgTVNlyttxNB-149" target="W0nB9QTuxgTVNlyttxNB-154" edge="1">
          <mxGeometry relative="1" as="geometry">
            <Array as="points">
              <mxPoint x="1450" y="1140" />
              <mxPoint x="1450" y="1140" />
            </Array>
          </mxGeometry>
        </mxCell>
        <mxCell id="W0nB9QTuxgTVNlyttxNB-149" value="RigidbodyState (script)" style="swimlane;fontStyle=1;align=center;verticalAlign=top;childLayout=stackLayout;horizontal=1;startSize=26;horizontalStack=0;resizeParent=1;resizeParentMax=0;resizeLast=0;collapsible=1;marginBottom=0;whiteSpace=wrap;html=1;" parent="WIyWlLk6GJQsqaUBKTNV-1" vertex="1">
          <mxGeometry x="1270" y="1090" width="160" height="810" as="geometry" />
        </mxCell>
        <mxCell id="W0nB9QTuxgTVNlyttxNB-150" value="+ angularDrag: private float&lt;br&gt;+ angularVelocity: private Vector3&lt;br&gt;+ centerOfMass: private Vector3&lt;br&gt;+ collisionDetectionMode: private CollisionDetectionMode&lt;br&gt;+ constraints: private RigidbodyConstraints&lt;br&gt;+ detectCollisions: private bool&lt;br&gt;+ drag: private bool&lt;br&gt;+ freezeRotation: private bool&lt;br&gt;+ inertiaTensor: private Vector3&lt;br&gt;+ inertiaTensorRotation: private Quaternion&lt;br&gt;+ interpolation: private RigidbodyInterpolation&lt;br&gt;+ isKinematic: private bool&lt;br&gt;+ mass: private float&lt;br&gt;+ maxAngularVelocity: private float&lt;br&gt;+ maxDepentrationVelocity: private float&lt;br&gt;+ position: private Vector3&lt;br&gt;+ rotation: private Quaternion&lt;br&gt;+ sleepTreshold: private float&lt;br&gt;+ solverIterations: private int&lt;br&gt;+ solverVelocityIterations: private int&lt;br&gt;+ useGravity: private bool&lt;br&gt;+ velocity: private Vector3&lt;br&gt;+ worldCenterOfMass: private Vector3&lt;br&gt;+ EnableSettings: public enum&lt;br&gt;&lt;span style=&quot;white-space: pre;&quot;&gt;&#x9;&lt;/span&gt;+ OnlyEnable,&lt;br&gt;&lt;span style=&quot;white-space: pre;&quot;&gt;&#x9;&lt;/span&gt;ResetToOriginalState,&lt;br&gt;&lt;span style=&quot;white-space: pre;&quot;&gt;&#x9;&lt;/span&gt;FullReset" style="text;strokeColor=none;fillColor=none;align=left;verticalAlign=top;spacingLeft=4;spacingRight=4;overflow=hidden;rotatable=0;points=[[0,0.5],[1,0.5]];portConstraint=eastwest;whiteSpace=wrap;html=1;" parent="W0nB9QTuxgTVNlyttxNB-149" vertex="1">
          <mxGeometry y="26" width="160" height="664" as="geometry" />
        </mxCell>
        <mxCell id="W0nB9QTuxgTVNlyttxNB-151" value="" style="line;strokeWidth=1;fillColor=none;align=left;verticalAlign=middle;spacingTop=-1;spacingLeft=3;spacingRight=3;rotatable=0;labelPosition=right;points=[];portConstraint=eastwest;strokeColor=inherit;" parent="W0nB9QTuxgTVNlyttxNB-149" vertex="1">
          <mxGeometry y="690" width="160" height="8" as="geometry" />
        </mxCell>
        <mxCell id="W0nB9QTuxgTVNlyttxNB-152" value="+ RigidbodyState(Rigidbody): public&lt;br&gt;+ SetRigidBody(Rigidbody): public void&lt;br&gt;+ SetValues(Rigidbody, EnableSettings): public void" style="text;strokeColor=none;fillColor=none;align=left;verticalAlign=top;spacingLeft=4;spacingRight=4;overflow=hidden;rotatable=0;points=[[0,0.5],[1,0.5]];portConstraint=eastwest;whiteSpace=wrap;html=1;" parent="W0nB9QTuxgTVNlyttxNB-149" vertex="1">
          <mxGeometry y="698" width="160" height="112" as="geometry" />
        </mxCell>
        <mxCell id="W0nB9QTuxgTVNlyttxNB-154" value="CollisionDetectionMode (Unity native class)" style="swimlane;fontStyle=1;align=center;verticalAlign=top;childLayout=stackLayout;horizontal=1;startSize=40;horizontalStack=0;resizeParent=1;resizeParentMax=0;resizeLast=0;collapsible=1;marginBottom=0;whiteSpace=wrap;html=1;" parent="WIyWlLk6GJQsqaUBKTNV-1" vertex="1">
          <mxGeometry x="1480" y="1103" width="160" height="66" as="geometry" />
        </mxCell>
        <mxCell id="W0nB9QTuxgTVNlyttxNB-157" value="Check Unity documentation" style="text;strokeColor=none;fillColor=none;align=left;verticalAlign=top;spacingLeft=4;spacingRight=4;overflow=hidden;rotatable=0;points=[[0,0.5],[1,0.5]];portConstraint=eastwest;whiteSpace=wrap;html=1;" parent="W0nB9QTuxgTVNlyttxNB-154" vertex="1">
          <mxGeometry y="40" width="160" height="26" as="geometry" />
        </mxCell>
        <mxCell id="W0nB9QTuxgTVNlyttxNB-158" value="RigidbodyConstraints (Unity native class)" style="swimlane;fontStyle=1;align=center;verticalAlign=top;childLayout=stackLayout;horizontal=1;startSize=40;horizontalStack=0;resizeParent=1;resizeParentMax=0;resizeLast=0;collapsible=1;marginBottom=0;whiteSpace=wrap;html=1;" parent="WIyWlLk6GJQsqaUBKTNV-1" vertex="1">
          <mxGeometry x="1480" y="1250" width="160" height="66" as="geometry" />
        </mxCell>
        <mxCell id="W0nB9QTuxgTVNlyttxNB-161" value="Check Unity documentation" style="text;strokeColor=none;fillColor=none;align=left;verticalAlign=top;spacingLeft=4;spacingRight=4;overflow=hidden;rotatable=0;points=[[0,0.5],[1,0.5]];portConstraint=eastwest;whiteSpace=wrap;html=1;" parent="W0nB9QTuxgTVNlyttxNB-158" vertex="1">
          <mxGeometry y="40" width="160" height="26" as="geometry" />
        </mxCell>
        <mxCell id="W0nB9QTuxgTVNlyttxNB-163" style="edgeStyle=orthogonalEdgeStyle;rounded=0;orthogonalLoop=1;jettySize=auto;html=1;" parent="WIyWlLk6GJQsqaUBKTNV-1" source="W0nB9QTuxgTVNlyttxNB-150" target="W0nB9QTuxgTVNlyttxNB-158" edge="1">
          <mxGeometry relative="1" as="geometry">
            <Array as="points">
              <mxPoint x="1440" y="1287" />
              <mxPoint x="1440" y="1287" />
            </Array>
          </mxGeometry>
        </mxCell>
        <mxCell id="W0nB9QTuxgTVNlyttxNB-164" value="Interactors (script)" style="swimlane;fontStyle=1;align=center;verticalAlign=top;childLayout=stackLayout;horizontal=1;startSize=26;horizontalStack=0;resizeParent=1;resizeParentMax=0;resizeLast=0;collapsible=1;marginBottom=0;whiteSpace=wrap;html=1;" parent="WIyWlLk6GJQsqaUBKTNV-1" vertex="1">
          <mxGeometry x="980" y="1250" width="230" height="290" as="geometry" />
        </mxCell>
        <mxCell id="W0nB9QTuxgTVNlyttxNB-165" value="public struct&lt;br&gt;+ Hand: Hand&lt;br&gt;+ LuerlockPair: public KeyValuePair&amp;lt;LuerlockAdapter.Side, LuerlockAdapter&amp;gt;&lt;br&gt;+ ConnectableItem: public ConnectableItem" style="text;strokeColor=none;fillColor=none;align=left;verticalAlign=top;spacingLeft=4;spacingRight=4;overflow=hidden;rotatable=0;points=[[0,0.5],[1,0.5]];portConstraint=eastwest;whiteSpace=wrap;html=1;" parent="W0nB9QTuxgTVNlyttxNB-164" vertex="1">
          <mxGeometry y="26" width="230" height="114" as="geometry" />
        </mxCell>
        <mxCell id="W0nB9QTuxgTVNlyttxNB-166" value="" style="line;strokeWidth=1;fillColor=none;align=left;verticalAlign=middle;spacingTop=-1;spacingLeft=3;spacingRight=3;rotatable=0;labelPosition=right;points=[];portConstraint=eastwest;strokeColor=inherit;" parent="W0nB9QTuxgTVNlyttxNB-164" vertex="1">
          <mxGeometry y="140" width="230" height="8" as="geometry" />
        </mxCell>
        <mxCell id="W0nB9QTuxgTVNlyttxNB-167" value="+ SetHand(Hand): public void&lt;br&gt;+ SetLuerlockPair(LuerlockAdapter.Side, LuerlockAdapter): public void&lt;br&gt;+ ResetLuerlockPair(): public void&lt;br&gt;+ SetConnectableItem(ConnectableItem):&lt;br&gt;public void&lt;br&gt;+ ResetConnectableItem(): public void" style="text;strokeColor=none;fillColor=none;align=left;verticalAlign=top;spacingLeft=4;spacingRight=4;overflow=hidden;rotatable=0;points=[[0,0.5],[1,0.5]];portConstraint=eastwest;whiteSpace=wrap;html=1;" parent="W0nB9QTuxgTVNlyttxNB-164" vertex="1">
          <mxGeometry y="148" width="230" height="142" as="geometry" />
        </mxCell>
        <mxCell id="W0nB9QTuxgTVNlyttxNB-174" style="edgeStyle=orthogonalEdgeStyle;rounded=0;orthogonalLoop=1;jettySize=auto;html=1;" parent="WIyWlLk6GJQsqaUBKTNV-1" source="W0nB9QTuxgTVNlyttxNB-169" target="W0nB9QTuxgTVNlyttxNB-126" edge="1">
          <mxGeometry relative="1" as="geometry">
            <Array as="points">
              <mxPoint x="1080" y="550" />
              <mxPoint x="860" y="550" />
            </Array>
          </mxGeometry>
        </mxCell>
        <mxCell id="Sjk4_UQVZihsHUC_Evtl-32" style="edgeStyle=orthogonalEdgeStyle;rounded=0;orthogonalLoop=1;jettySize=auto;html=1;" parent="WIyWlLk6GJQsqaUBKTNV-1" source="W0nB9QTuxgTVNlyttxNB-169" target="Sjk4_UQVZihsHUC_Evtl-28" edge="1">
          <mxGeometry relative="1" as="geometry">
            <Array as="points">
              <mxPoint x="1490" y="360" />
              <mxPoint x="1490" y="360" />
            </Array>
          </mxGeometry>
        </mxCell>
        <mxCell id="Sjk4_UQVZihsHUC_Evtl-34" style="edgeStyle=orthogonalEdgeStyle;rounded=0;orthogonalLoop=1;jettySize=auto;html=1;" parent="WIyWlLk6GJQsqaUBKTNV-1" source="W0nB9QTuxgTVNlyttxNB-169" target="W0nB9QTuxgTVNlyttxNB-113" edge="1">
          <mxGeometry relative="1" as="geometry">
            <Array as="points">
              <mxPoint x="220" y="440" />
              <mxPoint x="220" y="585" />
            </Array>
          </mxGeometry>
        </mxCell>
        <mxCell id="PucGmFwP9agxMgpOTaXp-4" style="edgeStyle=orthogonalEdgeStyle;rounded=0;orthogonalLoop=1;jettySize=auto;html=1;" edge="1" parent="WIyWlLk6GJQsqaUBKTNV-1" source="W0nB9QTuxgTVNlyttxNB-169" target="PucGmFwP9agxMgpOTaXp-0">
          <mxGeometry relative="1" as="geometry" />
        </mxCell>
        <mxCell id="W0nB9QTuxgTVNlyttxNB-169" value="Hand (script)" style="swimlane;fontStyle=1;align=center;verticalAlign=top;childLayout=stackLayout;horizontal=1;startSize=26;horizontalStack=0;resizeParent=1;resizeParentMax=0;resizeLast=0;collapsible=1;marginBottom=0;whiteSpace=wrap;html=1;" parent="WIyWlLk6GJQsqaUBKTNV-1" vertex="1">
          <mxGeometry x="1220" y="200" width="260" height="690" as="geometry" />
        </mxCell>
        <mxCell id="W0nB9QTuxgTVNlyttxNB-170" value="+ placeholderPrefab: public GameObject&lt;br&gt;+ IsInteracting: public bool&lt;br&gt;+ IsGrabbed: public bool&lt;br&gt;+ IsClean: public bool&lt;br&gt;+ Smooth: public HandSmoother&lt;br&gt;+ IsTryingToGrab: private bool&lt;br&gt;+ InRemoteGrab: private bool&amp;nbsp;&lt;br&gt;+ extendedGrabAngle = 30f: private static float&lt;br&gt;+ useHighlighting: [SerializeField] private bool&lt;br&gt;+ HandType: public SteamVR_Input_Sources&lt;br&gt;+ HandCollider: public HandCollider&lt;br&gt;+ ExtendedHandCollider: public HandCollider&lt;br&gt;+ Connector: public HandConnector&lt;br&gt;+ other: [SerializeField] private Hand&lt;br&gt;+ Other: public Hand&lt;br&gt;+ offset: private Transform&lt;br&gt;+ ColliderPosition: public Vector3&lt;br&gt;+ line: private RemoteGrabLine&lt;br&gt;+ RemoteGrabbing: public bool" style="text;strokeColor=none;fillColor=none;align=left;verticalAlign=top;spacingLeft=4;spacingRight=4;overflow=hidden;rotatable=0;points=[[0,0.5],[1,0.5]];portConstraint=eastwest;whiteSpace=wrap;html=1;" parent="W0nB9QTuxgTVNlyttxNB-169" vertex="1">
          <mxGeometry y="26" width="260" height="284" as="geometry" />
        </mxCell>
        <mxCell id="W0nB9QTuxgTVNlyttxNB-171" value="" style="line;strokeWidth=1;fillColor=none;align=left;verticalAlign=middle;spacingTop=-1;spacingLeft=3;spacingRight=3;rotatable=0;labelPosition=right;points=[];portConstraint=eastwest;strokeColor=inherit;" parent="W0nB9QTuxgTVNlyttxNB-169" vertex="1">
          <mxGeometry y="310" width="260" height="8" as="geometry" />
        </mxCell>
        <mxCell id="W0nB9QTuxgTVNlyttxNB-172" value="+ Start(): private void&lt;br&gt;+ Update(): private void&lt;br&gt;+ UpdateControls(): private void&lt;br&gt;+ UpdateHighlight(): private void&lt;br&gt;+ StartRemoteGrab(): private void&lt;br&gt;+ RemoteGrabCoRoutine(): private IEnumerator&lt;br&gt;+ UpdateRemoteGrab(): private void&lt;br&gt;+ Interact(): public void&lt;br&gt;+ InteractWith(Interactable, bool = true): public void&lt;br&gt;+ HandleAttachedItem(AttachmentItem): private AttachmentItem&lt;br&gt;+ Uninteract(): public void&lt;br&gt;+ GrabInteract(): public void&lt;br&gt;+ GrabUninteract(): public void&lt;br&gt;+ CanGrabInteract(): private bool&lt;br&gt;+ RemoteGrab(Interactable): private void&lt;br&gt;+ ItemIsPartOfGrabbedLuerlockSystem(Interactable): private bool&lt;br&gt;+ MoveObject(Interactable, Vector3): private void&lt;br&gt;+ CanGrabObject(Vector3, Vector3, Interactable, Interactable): private bool&lt;br&gt;+ GrabbingHand(Interactable): public static Hand&lt;br&gt;+ SetOffset(Vector3, Quaternion): public void&lt;br&gt;+ GetOffset(): public Transform" style="text;strokeColor=none;fillColor=none;align=left;verticalAlign=top;spacingLeft=4;spacingRight=4;overflow=hidden;rotatable=0;points=[[0,0.5],[1,0.5]];portConstraint=eastwest;whiteSpace=wrap;html=1;" parent="W0nB9QTuxgTVNlyttxNB-169" vertex="1">
          <mxGeometry y="318" width="260" height="372" as="geometry" />
        </mxCell>
        <mxCell id="Sjk4_UQVZihsHUC_Evtl-9" style="edgeStyle=orthogonalEdgeStyle;rounded=0;orthogonalLoop=1;jettySize=auto;html=1;" parent="WIyWlLk6GJQsqaUBKTNV-1" source="Sjk4_UQVZihsHUC_Evtl-1" target="Sjk4_UQVZihsHUC_Evtl-5" edge="1">
          <mxGeometry relative="1" as="geometry" />
        </mxCell>
        <mxCell id="Sjk4_UQVZihsHUC_Evtl-1" value="Player (script)" style="swimlane;fontStyle=1;align=center;verticalAlign=top;childLayout=stackLayout;horizontal=1;startSize=26;horizontalStack=0;resizeParent=1;resizeParentMax=0;resizeLast=0;collapsible=1;marginBottom=0;whiteSpace=wrap;html=1;" parent="WIyWlLk6GJQsqaUBKTNV-1" vertex="1">
          <mxGeometry y="806" width="220" height="410" as="geometry" />
        </mxCell>
        <mxCell id="Sjk4_UQVZihsHUC_Evtl-2" value="+ [Serializable]&lt;br&gt;&lt;span style=&quot;white-space: pre;&quot;&gt;&#x9;&lt;/span&gt;+Name: public string&lt;br&gt;&lt;span style=&quot;white-space: pre;&quot;&gt;&#x9;&lt;/span&gt;+ StartTime: public string&lt;br&gt;&lt;span style=&quot;white-space: pre;&quot;&gt;&#x9;&lt;/span&gt;+ EndTime: public string&lt;br&gt;&lt;span style=&quot;white-space: pre;&quot;&gt;&#x9;&lt;/span&gt;+ PlayTime: public string&lt;br&gt;&lt;span style=&quot;white-space: pre;&quot;&gt;&#x9;&lt;/span&gt;+ Score: public int&lt;br&gt;&lt;span style=&quot;white-space: pre;&quot;&gt;&#x9;&lt;/span&gt;+ ScoreString: public string&lt;br&gt;+ [Serializable]&lt;br&gt;&amp;nbsp; + DataWrapper: private struct&lt;br&gt;&lt;span style=&quot;white-space: pre;&quot;&gt;&#x9;&lt;/span&gt;+ LatestPlaythrough: public string&lt;br&gt;&lt;span style=&quot;white-space: pre;&quot;&gt;&#x9;&lt;/span&gt;+ MaxScore: public int&lt;br&gt;&lt;span style=&quot;white-space: pre;&quot;&gt;&#x9;&lt;/span&gt;+ Stats: public PlayerData[]&lt;br&gt;&lt;span style=&quot;white-space: pre;&quot;&gt;&#x9;&lt;/span&gt;+ DataWrapper(PlayerData[] stats)&lt;br&gt;+ Initialized: public static bool&lt;br&gt;+ Info: public static PlayerData&lt;br&gt;+ Camera: public static Camera&lt;br&gt;+ MAX_POINTS = 25: const int" style="text;strokeColor=none;fillColor=none;align=left;verticalAlign=top;spacingLeft=4;spacingRight=4;overflow=hidden;rotatable=0;points=[[0,0.5],[1,0.5]];portConstraint=eastwest;whiteSpace=wrap;html=1;" parent="Sjk4_UQVZihsHUC_Evtl-1" vertex="1">
          <mxGeometry y="26" width="220" height="274" as="geometry" />
        </mxCell>
        <mxCell id="Sjk4_UQVZihsHUC_Evtl-3" value="" style="line;strokeWidth=1;fillColor=none;align=left;verticalAlign=middle;spacingTop=-1;spacingLeft=3;spacingRight=3;rotatable=0;labelPosition=right;points=[];portConstraint=eastwest;strokeColor=inherit;" parent="Sjk4_UQVZihsHUC_Evtl-1" vertex="1">
          <mxGeometry y="300" width="220" height="8" as="geometry" />
        </mxCell>
        <mxCell id="Sjk4_UQVZihsHUC_Evtl-4" value="+ Awake(): public void&lt;br&gt;+ Initialize(string): public static void&lt;br&gt;+ SavePlayerData(int, string): public static void&lt;br&gt;+ LoadPlayerData(string): private static PlayerData[]" style="text;strokeColor=none;fillColor=none;align=left;verticalAlign=top;spacingLeft=4;spacingRight=4;overflow=hidden;rotatable=0;points=[[0,0.5],[1,0.5]];portConstraint=eastwest;whiteSpace=wrap;html=1;" parent="Sjk4_UQVZihsHUC_Evtl-1" vertex="1">
          <mxGeometry y="308" width="220" height="102" as="geometry" />
        </mxCell>
        <mxCell id="Sjk4_UQVZihsHUC_Evtl-5" value="Camera (Unity native class)" style="swimlane;fontStyle=1;align=center;verticalAlign=top;childLayout=stackLayout;horizontal=1;startSize=26;horizontalStack=0;resizeParent=1;resizeParentMax=0;resizeLast=0;collapsible=1;marginBottom=0;whiteSpace=wrap;html=1;" parent="WIyWlLk6GJQsqaUBKTNV-1" vertex="1">
          <mxGeometry x="30" y="1342" width="160" height="52" as="geometry" />
        </mxCell>
        <mxCell id="Sjk4_UQVZihsHUC_Evtl-8" value="Check Unity documentation" style="text;strokeColor=none;fillColor=none;align=left;verticalAlign=top;spacingLeft=4;spacingRight=4;overflow=hidden;rotatable=0;points=[[0,0.5],[1,0.5]];portConstraint=eastwest;whiteSpace=wrap;html=1;" parent="Sjk4_UQVZihsHUC_Evtl-5" vertex="1">
          <mxGeometry y="26" width="160" height="26" as="geometry" />
        </mxCell>
        <mxCell id="Sjk4_UQVZihsHUC_Evtl-21" style="edgeStyle=orthogonalEdgeStyle;rounded=0;orthogonalLoop=1;jettySize=auto;html=1;" parent="WIyWlLk6GJQsqaUBKTNV-1" source="Sjk4_UQVZihsHUC_Evtl-12" target="Sjk4_UQVZihsHUC_Evtl-16" edge="1">
          <mxGeometry relative="1" as="geometry" />
        </mxCell>
        <mxCell id="Sjk4_UQVZihsHUC_Evtl-22" style="edgeStyle=orthogonalEdgeStyle;rounded=0;orthogonalLoop=1;jettySize=auto;html=1;" parent="WIyWlLk6GJQsqaUBKTNV-1" source="Sjk4_UQVZihsHUC_Evtl-12" target="W0nB9QTuxgTVNlyttxNB-78" edge="1">
          <mxGeometry relative="1" as="geometry">
            <Array as="points">
              <mxPoint x="1080" y="240" />
              <mxPoint x="640" y="240" />
              <mxPoint x="640" y="350" />
            </Array>
          </mxGeometry>
        </mxCell>
        <mxCell id="Sjk4_UQVZihsHUC_Evtl-12" value="Popups (script)" style="swimlane;fontStyle=1;align=center;verticalAlign=top;childLayout=stackLayout;horizontal=1;startSize=26;horizontalStack=0;resizeParent=1;resizeParentMax=0;resizeLast=0;collapsible=1;marginBottom=0;whiteSpace=wrap;html=1;" parent="WIyWlLk6GJQsqaUBKTNV-1" vertex="1">
          <mxGeometry x="940" y="-92" width="230" height="260" as="geometry" />
        </mxCell>
        <mxCell id="Sjk4_UQVZihsHUC_Evtl-13" value="+ Prefab: public static GameObject&lt;br&gt;+ currentPopup: private static GameObject&lt;br&gt;+ Player: public static GameObject&lt;br&gt;+ popups: private static List&amp;lt;int, string, MsgType&amp;gt;" style="text;strokeColor=none;fillColor=none;align=left;verticalAlign=top;spacingLeft=4;spacingRight=4;overflow=hidden;rotatable=0;points=[[0,0.5],[1,0.5]];portConstraint=eastwest;whiteSpace=wrap;html=1;" parent="Sjk4_UQVZihsHUC_Evtl-12" vertex="1">
          <mxGeometry y="26" width="230" height="104" as="geometry" />
        </mxCell>
        <mxCell id="Sjk4_UQVZihsHUC_Evtl-14" value="" style="line;strokeWidth=1;fillColor=none;align=left;verticalAlign=middle;spacingTop=-1;spacingLeft=3;spacingRight=3;rotatable=0;labelPosition=right;points=[];portConstraint=eastwest;strokeColor=inherit;" parent="Sjk4_UQVZihsHUC_Evtl-12" vertex="1">
          <mxGeometry y="130" width="230" height="8" as="geometry" />
        </mxCell>
        <mxCell id="Sjk4_UQVZihsHUC_Evtl-15" value="+ InitUIComponent(GameObject): private static GameObject&lt;br&gt;+ SetCurrentPopup(GameObject): private static void&lt;br&gt;+ CreatePopup(this MonoBehaviour, int, string, MsgType)&lt;br&gt;+ ShowPopups: public static IEnumerator" style="text;strokeColor=none;fillColor=none;align=left;verticalAlign=top;spacingLeft=4;spacingRight=4;overflow=hidden;rotatable=0;points=[[0,0.5],[1,0.5]];portConstraint=eastwest;whiteSpace=wrap;html=1;" parent="Sjk4_UQVZihsHUC_Evtl-12" vertex="1">
          <mxGeometry y="138" width="230" height="122" as="geometry" />
        </mxCell>
        <mxCell id="Sjk4_UQVZihsHUC_Evtl-27" style="edgeStyle=orthogonalEdgeStyle;rounded=0;orthogonalLoop=1;jettySize=auto;html=1;" parent="WIyWlLk6GJQsqaUBKTNV-1" source="Sjk4_UQVZihsHUC_Evtl-16" target="Sjk4_UQVZihsHUC_Evtl-23" edge="1">
          <mxGeometry relative="1" as="geometry" />
        </mxCell>
        <mxCell id="Sjk4_UQVZihsHUC_Evtl-16" value="CoroutineUtils (script)" style="swimlane;fontStyle=1;align=center;verticalAlign=top;childLayout=stackLayout;horizontal=1;startSize=26;horizontalStack=0;resizeParent=1;resizeParentMax=0;resizeLast=0;collapsible=1;marginBottom=0;whiteSpace=wrap;html=1;" parent="WIyWlLk6GJQsqaUBKTNV-1" vertex="1">
          <mxGeometry x="1310" y="-100" width="160" height="170" as="geometry" />
        </mxCell>
        <mxCell id="Sjk4_UQVZihsHUC_Evtl-17" value="public static class&lt;br&gt;" style="text;strokeColor=none;fillColor=none;align=left;verticalAlign=top;spacingLeft=4;spacingRight=4;overflow=hidden;rotatable=0;points=[[0,0.5],[1,0.5]];portConstraint=eastwest;whiteSpace=wrap;html=1;" parent="Sjk4_UQVZihsHUC_Evtl-16" vertex="1">
          <mxGeometry y="26" width="160" height="34" as="geometry" />
        </mxCell>
        <mxCell id="Sjk4_UQVZihsHUC_Evtl-18" value="" style="line;strokeWidth=1;fillColor=none;align=left;verticalAlign=middle;spacingTop=-1;spacingLeft=3;spacingRight=3;rotatable=0;labelPosition=right;points=[];portConstraint=eastwest;strokeColor=inherit;" parent="Sjk4_UQVZihsHUC_Evtl-16" vertex="1">
          <mxGeometry y="60" width="160" height="8" as="geometry" />
        </mxCell>
        <mxCell id="Sjk4_UQVZihsHUC_Evtl-19" value="+ StartThrowingCoroutine: public static Coroutine&lt;br style=&quot;border-color: var(--border-color);&quot;&gt;+ StartThrowingCoroutine: public static Coroutine&lt;br style=&quot;border-color: var(--border-color);&quot;&gt;+ RunThrowingIterator: IEnumerator public static" style="text;strokeColor=none;fillColor=none;align=left;verticalAlign=top;spacingLeft=4;spacingRight=4;overflow=hidden;rotatable=0;points=[[0,0.5],[1,0.5]];portConstraint=eastwest;whiteSpace=wrap;html=1;" parent="Sjk4_UQVZihsHUC_Evtl-16" vertex="1">
          <mxGeometry y="68" width="160" height="102" as="geometry" />
        </mxCell>
        <mxCell id="Sjk4_UQVZihsHUC_Evtl-23" value="Coroutine (Unity native class)" style="swimlane;fontStyle=1;align=center;verticalAlign=top;childLayout=stackLayout;horizontal=1;startSize=40;horizontalStack=0;resizeParent=1;resizeParentMax=0;resizeLast=0;collapsible=1;marginBottom=0;whiteSpace=wrap;html=1;" parent="WIyWlLk6GJQsqaUBKTNV-1" vertex="1">
          <mxGeometry x="1470" y="-230" width="160" height="66" as="geometry" />
        </mxCell>
        <mxCell id="Sjk4_UQVZihsHUC_Evtl-26" value="Check Unity documentation" style="text;strokeColor=none;fillColor=none;align=left;verticalAlign=top;spacingLeft=4;spacingRight=4;overflow=hidden;rotatable=0;points=[[0,0.5],[1,0.5]];portConstraint=eastwest;whiteSpace=wrap;html=1;" parent="Sjk4_UQVZihsHUC_Evtl-23" vertex="1">
          <mxGeometry y="40" width="160" height="26" as="geometry" />
        </mxCell>
        <mxCell id="Sjk4_UQVZihsHUC_Evtl-33" style="edgeStyle=orthogonalEdgeStyle;rounded=0;orthogonalLoop=1;jettySize=auto;html=1;" parent="WIyWlLk6GJQsqaUBKTNV-1" source="Sjk4_UQVZihsHUC_Evtl-28" target="W0nB9QTuxgTVNlyttxNB-169" edge="1">
          <mxGeometry relative="1" as="geometry">
            <Array as="points">
              <mxPoint x="1520" y="250" />
              <mxPoint x="1520" y="250" />
            </Array>
          </mxGeometry>
        </mxCell>
        <mxCell id="Sjk4_UQVZihsHUC_Evtl-28" value="HandSmoother (script)" style="swimlane;fontStyle=1;align=center;verticalAlign=top;childLayout=stackLayout;horizontal=1;startSize=26;horizontalStack=0;resizeParent=1;resizeParentMax=0;resizeLast=0;collapsible=1;marginBottom=0;whiteSpace=wrap;html=1;" parent="WIyWlLk6GJQsqaUBKTNV-1" vertex="1">
          <mxGeometry x="1530" y="200" width="160" height="320" as="geometry" />
        </mxCell>
        <mxCell id="Sjk4_UQVZihsHUC_Evtl-29" value="+ Hand: public Hand&lt;br&gt;+ handOffset: public Transform&lt;br&gt;+ distanceLimit = 0.02f: [SerializeField] private float&lt;br&gt;+ factorMultiplier = 50: private float&lt;br&gt;+ initMode: private bool&lt;br&gt;+ startPos: private Vector3&lt;br&gt;+ initDistance = 0.02f: private float&lt;br&gt;+ Distance: private float" style="text;strokeColor=none;fillColor=none;align=left;verticalAlign=top;spacingLeft=4;spacingRight=4;overflow=hidden;rotatable=0;points=[[0,0.5],[1,0.5]];portConstraint=eastwest;whiteSpace=wrap;html=1;" parent="Sjk4_UQVZihsHUC_Evtl-28" vertex="1">
          <mxGeometry y="26" width="160" height="184" as="geometry" />
        </mxCell>
        <mxCell id="Sjk4_UQVZihsHUC_Evtl-30" value="" style="line;strokeWidth=1;fillColor=none;align=left;verticalAlign=middle;spacingTop=-1;spacingLeft=3;spacingRight=3;rotatable=0;labelPosition=right;points=[];portConstraint=eastwest;strokeColor=inherit;" parent="Sjk4_UQVZihsHUC_Evtl-28" vertex="1">
          <mxGeometry y="210" width="160" height="8" as="geometry" />
        </mxCell>
        <mxCell id="Sjk4_UQVZihsHUC_Evtl-31" value="+ StartGrab(): public void&lt;br&gt;+ DisableInitMode(): public void&lt;br&gt;+ Update(): private void&lt;br&gt;+ LerpRotate(): private void&lt;br&gt;+ LerpMove(): private void" style="text;strokeColor=none;fillColor=none;align=left;verticalAlign=top;spacingLeft=4;spacingRight=4;overflow=hidden;rotatable=0;points=[[0,0.5],[1,0.5]];portConstraint=eastwest;whiteSpace=wrap;html=1;" parent="Sjk4_UQVZihsHUC_Evtl-28" vertex="1">
          <mxGeometry y="218" width="160" height="102" as="geometry" />
        </mxCell>
        <mxCell id="PucGmFwP9agxMgpOTaXp-13" style="edgeStyle=orthogonalEdgeStyle;rounded=0;orthogonalLoop=1;jettySize=auto;html=1;" edge="1" parent="WIyWlLk6GJQsqaUBKTNV-1" source="PucGmFwP9agxMgpOTaXp-0" target="PucGmFwP9agxMgpOTaXp-5">
          <mxGeometry relative="1" as="geometry">
            <Array as="points">
              <mxPoint x="1770" y="715" />
              <mxPoint x="1770" y="715" />
            </Array>
          </mxGeometry>
        </mxCell>
        <mxCell id="PucGmFwP9agxMgpOTaXp-14" style="edgeStyle=orthogonalEdgeStyle;rounded=0;orthogonalLoop=1;jettySize=auto;html=1;" edge="1" parent="WIyWlLk6GJQsqaUBKTNV-1" source="PucGmFwP9agxMgpOTaXp-0" target="PucGmFwP9agxMgpOTaXp-9">
          <mxGeometry relative="1" as="geometry">
            <Array as="points">
              <mxPoint x="1800" y="943" />
              <mxPoint x="1800" y="943" />
            </Array>
          </mxGeometry>
        </mxCell>
        <mxCell id="PucGmFwP9agxMgpOTaXp-19" style="edgeStyle=orthogonalEdgeStyle;rounded=0;orthogonalLoop=1;jettySize=auto;html=1;" edge="1" parent="WIyWlLk6GJQsqaUBKTNV-1" source="PucGmFwP9agxMgpOTaXp-0" target="PucGmFwP9agxMgpOTaXp-15">
          <mxGeometry relative="1" as="geometry">
            <Array as="points">
              <mxPoint x="1790" y="580" />
              <mxPoint x="1790" y="520" />
              <mxPoint x="1950" y="520" />
            </Array>
          </mxGeometry>
        </mxCell>
        <mxCell id="PucGmFwP9agxMgpOTaXp-24" style="edgeStyle=orthogonalEdgeStyle;rounded=0;orthogonalLoop=1;jettySize=auto;html=1;" edge="1" parent="WIyWlLk6GJQsqaUBKTNV-1" source="PucGmFwP9agxMgpOTaXp-0" target="PucGmFwP9agxMgpOTaXp-20">
          <mxGeometry relative="1" as="geometry">
            <Array as="points">
              <mxPoint x="1720" y="440" />
              <mxPoint x="1950" y="440" />
            </Array>
          </mxGeometry>
        </mxCell>
        <mxCell id="PucGmFwP9agxMgpOTaXp-51" style="edgeStyle=orthogonalEdgeStyle;rounded=0;orthogonalLoop=1;jettySize=auto;html=1;" edge="1" parent="WIyWlLk6GJQsqaUBKTNV-1" source="PucGmFwP9agxMgpOTaXp-0" target="W0nB9QTuxgTVNlyttxNB-126">
          <mxGeometry relative="1" as="geometry">
            <Array as="points">
              <mxPoint x="1210" y="920" />
              <mxPoint x="1210" y="810" />
            </Array>
          </mxGeometry>
        </mxCell>
        <mxCell id="PucGmFwP9agxMgpOTaXp-65" style="edgeStyle=orthogonalEdgeStyle;rounded=0;orthogonalLoop=1;jettySize=auto;html=1;" edge="1" parent="WIyWlLk6GJQsqaUBKTNV-1" source="PucGmFwP9agxMgpOTaXp-0" target="PucGmFwP9agxMgpOTaXp-61">
          <mxGeometry relative="1" as="geometry">
            <Array as="points">
              <mxPoint x="1710" y="220" />
            </Array>
          </mxGeometry>
        </mxCell>
        <mxCell id="PucGmFwP9agxMgpOTaXp-0" value="HandCollider (script)" style="swimlane;fontStyle=1;align=center;verticalAlign=top;childLayout=stackLayout;horizontal=1;startSize=26;horizontalStack=0;resizeParent=1;resizeParentMax=0;resizeLast=0;collapsible=1;marginBottom=0;whiteSpace=wrap;html=1;" vertex="1" parent="WIyWlLk6GJQsqaUBKTNV-1">
          <mxGeometry x="1530" y="550" width="230" height="500" as="geometry" />
        </mxCell>
        <mxCell id="PucGmFwP9agxMgpOTaXp-1" value="+ IsHandCollider: [SerializeField] private bool&lt;br&gt;+ PreviousHighlight: private ObjectHighlight&lt;br&gt;+ container: private TriggerInteractableContainer&lt;br&gt;+ handColl: private Collider&lt;br&gt;+ closestPoint: private Vector3" style="text;strokeColor=none;fillColor=none;align=left;verticalAlign=top;spacingLeft=4;spacingRight=4;overflow=hidden;rotatable=0;points=[[0,0.5],[1,0.5]];portConstraint=eastwest;whiteSpace=wrap;html=1;" vertex="1" parent="PucGmFwP9agxMgpOTaXp-0">
          <mxGeometry y="26" width="230" height="134" as="geometry" />
        </mxCell>
        <mxCell id="PucGmFwP9agxMgpOTaXp-2" value="" style="line;strokeWidth=1;fillColor=none;align=left;verticalAlign=middle;spacingTop=-1;spacingLeft=3;spacingRight=3;rotatable=0;labelPosition=right;points=[];portConstraint=eastwest;strokeColor=inherit;" vertex="1" parent="PucGmFwP9agxMgpOTaXp-0">
          <mxGeometry y="160" width="230" height="8" as="geometry" />
        </mxCell>
        <mxCell id="PucGmFwP9agxMgpOTaXp-3" value="+ Start(): private void&lt;br&gt;+ SetCollPos(): private IEnumerator&lt;br&gt;+ GetModelType(): private SteamVR_TrackedObject.EIndex&lt;br&gt;+ OnInteractableExit(Interactable): private void&lt;br&gt;+ Enable(bool): public void&lt;br&gt;+ RemoveInteractable(Interactable): public void&lt;br&gt;+ HighlightClosestObject(): public void&lt;br&gt;+ HighlightPointedObject(float): public void&lt;br&gt;+ UnhighlighAll(): public void&lt;br&gt;+ HighlightObject(Interactable): private void&lt;br&gt;+ UnhighlightPrevious(): public void&lt;br&gt;+ GetClosestInteractable(): public Interactable&lt;br&gt;+ GetClosestObject(): public Interactable&lt;br&gt;+ OnDrawGizmos(): public void&lt;br&gt;+ GetPointedObject(float): public Interactable" style="text;strokeColor=none;fillColor=none;align=left;verticalAlign=top;spacingLeft=4;spacingRight=4;overflow=hidden;rotatable=0;points=[[0,0.5],[1,0.5]];portConstraint=eastwest;whiteSpace=wrap;html=1;" vertex="1" parent="PucGmFwP9agxMgpOTaXp-0">
          <mxGeometry y="168" width="230" height="332" as="geometry" />
        </mxCell>
        <mxCell id="PucGmFwP9agxMgpOTaXp-31" style="edgeStyle=orthogonalEdgeStyle;rounded=0;orthogonalLoop=1;jettySize=auto;html=1;" edge="1" parent="WIyWlLk6GJQsqaUBKTNV-1" source="PucGmFwP9agxMgpOTaXp-5" target="PucGmFwP9agxMgpOTaXp-29">
          <mxGeometry relative="1" as="geometry">
            <Array as="points">
              <mxPoint x="2070" y="613" />
              <mxPoint x="2070" y="613" />
            </Array>
          </mxGeometry>
        </mxCell>
        <mxCell id="PucGmFwP9agxMgpOTaXp-36" style="edgeStyle=orthogonalEdgeStyle;rounded=0;orthogonalLoop=1;jettySize=auto;html=1;" edge="1" parent="WIyWlLk6GJQsqaUBKTNV-1" source="PucGmFwP9agxMgpOTaXp-5" target="PucGmFwP9agxMgpOTaXp-32">
          <mxGeometry relative="1" as="geometry">
            <Array as="points">
              <mxPoint x="2080" y="703" />
              <mxPoint x="2080" y="703" />
            </Array>
          </mxGeometry>
        </mxCell>
        <mxCell id="PucGmFwP9agxMgpOTaXp-37" style="edgeStyle=orthogonalEdgeStyle;rounded=0;orthogonalLoop=1;jettySize=auto;html=1;" edge="1" parent="WIyWlLk6GJQsqaUBKTNV-1" source="PucGmFwP9agxMgpOTaXp-5" target="PucGmFwP9agxMgpOTaXp-34">
          <mxGeometry relative="1" as="geometry">
            <Array as="points">
              <mxPoint x="2080" y="785" />
              <mxPoint x="2080" y="785" />
            </Array>
          </mxGeometry>
        </mxCell>
        <mxCell id="PucGmFwP9agxMgpOTaXp-5" value="ObjectHighlight (script)" style="swimlane;fontStyle=1;align=center;verticalAlign=top;childLayout=stackLayout;horizontal=1;startSize=26;horizontalStack=0;resizeParent=1;resizeParentMax=0;resizeLast=0;collapsible=1;marginBottom=0;whiteSpace=wrap;html=1;" vertex="1" parent="WIyWlLk6GJQsqaUBKTNV-1">
          <mxGeometry x="1840" y="550" width="220" height="310" as="geometry" />
        </mxCell>
        <mxCell id="PucGmFwP9agxMgpOTaXp-6" value="+ materials: private List&amp;lt;Material&amp;gt;&lt;br&gt;+ highlightColor: private Color&lt;br&gt;+ openingSpotHighlightColor: private Color&lt;br&gt;+ normalColor: private Color&lt;br&gt;+ highlighted: private bool&lt;br&gt;+ disableHighlighting: private bool" style="text;strokeColor=none;fillColor=none;align=left;verticalAlign=top;spacingLeft=4;spacingRight=4;overflow=hidden;rotatable=0;points=[[0,0.5],[1,0.5]];portConstraint=eastwest;whiteSpace=wrap;html=1;" vertex="1" parent="PucGmFwP9agxMgpOTaXp-5">
          <mxGeometry y="26" width="220" height="114" as="geometry" />
        </mxCell>
        <mxCell id="PucGmFwP9agxMgpOTaXp-7" value="" style="line;strokeWidth=1;fillColor=none;align=left;verticalAlign=middle;spacingTop=-1;spacingLeft=3;spacingRight=3;rotatable=0;labelPosition=right;points=[];portConstraint=eastwest;strokeColor=inherit;" vertex="1" parent="PucGmFwP9agxMgpOTaXp-5">
          <mxGeometry y="140" width="220" height="8" as="geometry" />
        </mxCell>
        <mxCell id="PucGmFwP9agxMgpOTaXp-8" value="+ Awake(): private void&lt;br&gt;+ OnDestroy(): private void&lt;br&gt;+ Highlight(): public void&lt;br&gt;+ Unhighlight(): public void&lt;br&gt;+ InitializeMaterials(): private void&lt;br&gt;+ DisableHightlighting(bool): public void&lt;br&gt;+ AddMaterialsFromRenderer(Renderer): private void" style="text;strokeColor=none;fillColor=none;align=left;verticalAlign=top;spacingLeft=4;spacingRight=4;overflow=hidden;rotatable=0;points=[[0,0.5],[1,0.5]];portConstraint=eastwest;whiteSpace=wrap;html=1;" vertex="1" parent="PucGmFwP9agxMgpOTaXp-5">
          <mxGeometry y="148" width="220" height="162" as="geometry" />
        </mxCell>
        <mxCell id="PucGmFwP9agxMgpOTaXp-54" style="edgeStyle=orthogonalEdgeStyle;rounded=0;orthogonalLoop=1;jettySize=auto;html=1;" edge="1" parent="WIyWlLk6GJQsqaUBKTNV-1" source="PucGmFwP9agxMgpOTaXp-9" target="W0nB9QTuxgTVNlyttxNB-126">
          <mxGeometry relative="1" as="geometry">
            <Array as="points">
              <mxPoint x="1950" y="1070" />
              <mxPoint x="1180" y="1070" />
              <mxPoint x="1180" y="970" />
            </Array>
          </mxGeometry>
        </mxCell>
        <mxCell id="PucGmFwP9agxMgpOTaXp-57" style="edgeStyle=orthogonalEdgeStyle;rounded=0;orthogonalLoop=1;jettySize=auto;html=1;" edge="1" parent="WIyWlLk6GJQsqaUBKTNV-1" source="PucGmFwP9agxMgpOTaXp-9" target="PucGmFwP9agxMgpOTaXp-55">
          <mxGeometry relative="1" as="geometry">
            <Array as="points">
              <mxPoint x="1950" y="870" />
            </Array>
          </mxGeometry>
        </mxCell>
        <mxCell id="PucGmFwP9agxMgpOTaXp-60" style="edgeStyle=orthogonalEdgeStyle;rounded=0;orthogonalLoop=1;jettySize=auto;html=1;" edge="1" parent="WIyWlLk6GJQsqaUBKTNV-1" source="PucGmFwP9agxMgpOTaXp-9" target="PucGmFwP9agxMgpOTaXp-58">
          <mxGeometry relative="1" as="geometry" />
        </mxCell>
        <mxCell id="PucGmFwP9agxMgpOTaXp-9" value="HandTriggerInteractableContainer (script)" style="swimlane;fontStyle=1;align=center;verticalAlign=top;childLayout=stackLayout;horizontal=1;startSize=40;horizontalStack=0;resizeParent=1;resizeParentMax=0;resizeLast=0;collapsible=1;marginBottom=0;whiteSpace=wrap;html=1;" vertex="1" parent="WIyWlLk6GJQsqaUBKTNV-1">
          <mxGeometry x="1840" y="900" width="220" height="220" as="geometry" />
        </mxCell>
        <mxCell id="PucGmFwP9agxMgpOTaXp-10" value="+ EnteredObjectPoints: public Dictionary&amp;lt;Interactable, (Vector3, float, Collider)&amp;gt;" style="text;strokeColor=none;fillColor=none;align=left;verticalAlign=top;spacingLeft=4;spacingRight=4;overflow=hidden;rotatable=0;points=[[0,0.5],[1,0.5]];portConstraint=eastwest;whiteSpace=wrap;html=1;" vertex="1" parent="PucGmFwP9agxMgpOTaXp-9">
          <mxGeometry y="40" width="220" height="60" as="geometry" />
        </mxCell>
        <mxCell id="PucGmFwP9agxMgpOTaXp-11" value="" style="line;strokeWidth=1;fillColor=none;align=left;verticalAlign=middle;spacingTop=-1;spacingLeft=3;spacingRight=3;rotatable=0;labelPosition=right;points=[];portConstraint=eastwest;strokeColor=inherit;" vertex="1" parent="PucGmFwP9agxMgpOTaXp-9">
          <mxGeometry y="100" width="220" height="8" as="geometry" />
        </mxCell>
        <mxCell id="PucGmFwP9agxMgpOTaXp-12" value="+ ResetContainer(): public override void&lt;br&gt;+ OnTriggerEnter(Collider): private new void&lt;br&gt;+ OnTriggerStay(Collider): private void&lt;br&gt;+ OnTriggerExit(Collider): private new void" style="text;strokeColor=none;fillColor=none;align=left;verticalAlign=top;spacingLeft=4;spacingRight=4;overflow=hidden;rotatable=0;points=[[0,0.5],[1,0.5]];portConstraint=eastwest;whiteSpace=wrap;html=1;" vertex="1" parent="PucGmFwP9agxMgpOTaXp-9">
          <mxGeometry y="108" width="220" height="112" as="geometry" />
        </mxCell>
        <mxCell id="PucGmFwP9agxMgpOTaXp-15" value="Collider (Unity native class)" style="swimlane;fontStyle=1;align=center;verticalAlign=top;childLayout=stackLayout;horizontal=1;startSize=26;horizontalStack=0;resizeParent=1;resizeParentMax=0;resizeLast=0;collapsible=1;marginBottom=0;whiteSpace=wrap;html=1;" vertex="1" parent="WIyWlLk6GJQsqaUBKTNV-1">
          <mxGeometry x="1870" y="450" width="160" height="52" as="geometry" />
        </mxCell>
        <mxCell id="PucGmFwP9agxMgpOTaXp-18" value="Check Unity documentation" style="text;strokeColor=none;fillColor=none;align=left;verticalAlign=top;spacingLeft=4;spacingRight=4;overflow=hidden;rotatable=0;points=[[0,0.5],[1,0.5]];portConstraint=eastwest;whiteSpace=wrap;html=1;" vertex="1" parent="PucGmFwP9agxMgpOTaXp-15">
          <mxGeometry y="26" width="160" height="26" as="geometry" />
        </mxCell>
        <mxCell id="PucGmFwP9agxMgpOTaXp-20" value="SteamVRMock (script)" style="swimlane;fontStyle=1;align=center;verticalAlign=top;childLayout=stackLayout;horizontal=1;startSize=26;horizontalStack=0;resizeParent=1;resizeParentMax=0;resizeLast=0;collapsible=1;marginBottom=0;whiteSpace=wrap;html=1;" vertex="1" parent="WIyWlLk6GJQsqaUBKTNV-1">
          <mxGeometry x="1870" y="260" width="160" height="160" as="geometry" />
        </mxCell>
        <mxCell id="PucGmFwP9agxMgpOTaXp-21" value="namespace SteamVRMock" style="text;strokeColor=none;fillColor=none;align=left;verticalAlign=top;spacingLeft=4;spacingRight=4;overflow=hidden;rotatable=0;points=[[0,0.5],[1,0.5]];portConstraint=eastwest;whiteSpace=wrap;html=1;" vertex="1" parent="PucGmFwP9agxMgpOTaXp-20">
          <mxGeometry y="26" width="160" height="26" as="geometry" />
        </mxCell>
        <mxCell id="PucGmFwP9agxMgpOTaXp-22" value="" style="line;strokeWidth=1;fillColor=none;align=left;verticalAlign=middle;spacingTop=-1;spacingLeft=3;spacingRight=3;rotatable=0;labelPosition=right;points=[];portConstraint=eastwest;strokeColor=inherit;" vertex="1" parent="PucGmFwP9agxMgpOTaXp-20">
          <mxGeometry y="52" width="160" height="8" as="geometry" />
        </mxCell>
        <mxCell id="PucGmFwP9agxMgpOTaXp-23" value="&quot;This is a namespace that is used to circumvent the SteamVR dependencies when compiling the game for Android.&amp;nbsp;&lt;span style=&quot;background-color: initial;&quot;&gt;This does not provide any functionality.&quot;&lt;/span&gt;" style="text;strokeColor=none;fillColor=none;align=left;verticalAlign=top;spacingLeft=4;spacingRight=4;overflow=hidden;rotatable=0;points=[[0,0.5],[1,0.5]];portConstraint=eastwest;whiteSpace=wrap;html=1;" vertex="1" parent="PucGmFwP9agxMgpOTaXp-20">
          <mxGeometry y="60" width="160" height="100" as="geometry" />
        </mxCell>
        <mxCell id="PucGmFwP9agxMgpOTaXp-29" value="Renderer (Unity native class)" style="swimlane;fontStyle=1;align=center;verticalAlign=top;childLayout=stackLayout;horizontal=1;startSize=40;horizontalStack=0;resizeParent=1;resizeParentMax=0;resizeLast=0;collapsible=1;marginBottom=0;whiteSpace=wrap;html=1;" vertex="1" parent="WIyWlLk6GJQsqaUBKTNV-1">
          <mxGeometry x="2140" y="580" width="160" height="66" as="geometry" />
        </mxCell>
        <mxCell id="PucGmFwP9agxMgpOTaXp-30" value="Check Unity documentation" style="text;strokeColor=none;fillColor=none;align=left;verticalAlign=top;spacingLeft=4;spacingRight=4;overflow=hidden;rotatable=0;points=[[0,0.5],[1,0.5]];portConstraint=eastwest;whiteSpace=wrap;html=1;" vertex="1" parent="PucGmFwP9agxMgpOTaXp-29">
          <mxGeometry y="40" width="160" height="26" as="geometry" />
        </mxCell>
        <mxCell id="PucGmFwP9agxMgpOTaXp-32" value="Material (Unity native class)" style="swimlane;fontStyle=1;align=center;verticalAlign=top;childLayout=stackLayout;horizontal=1;startSize=40;horizontalStack=0;resizeParent=1;resizeParentMax=0;resizeLast=0;collapsible=1;marginBottom=0;whiteSpace=wrap;html=1;" vertex="1" parent="WIyWlLk6GJQsqaUBKTNV-1">
          <mxGeometry x="2140" y="670" width="160" height="66" as="geometry" />
        </mxCell>
        <mxCell id="PucGmFwP9agxMgpOTaXp-33" value="Check Unity documentation" style="text;strokeColor=none;fillColor=none;align=left;verticalAlign=top;spacingLeft=4;spacingRight=4;overflow=hidden;rotatable=0;points=[[0,0.5],[1,0.5]];portConstraint=eastwest;whiteSpace=wrap;html=1;" vertex="1" parent="PucGmFwP9agxMgpOTaXp-32">
          <mxGeometry y="40" width="160" height="26" as="geometry" />
        </mxCell>
        <mxCell id="PucGmFwP9agxMgpOTaXp-34" value="Color (Unity native class)" style="swimlane;fontStyle=1;align=center;verticalAlign=top;childLayout=stackLayout;horizontal=1;startSize=40;horizontalStack=0;resizeParent=1;resizeParentMax=0;resizeLast=0;collapsible=1;marginBottom=0;whiteSpace=wrap;html=1;" vertex="1" parent="WIyWlLk6GJQsqaUBKTNV-1">
          <mxGeometry x="2140" y="752" width="160" height="66" as="geometry" />
        </mxCell>
        <mxCell id="PucGmFwP9agxMgpOTaXp-35" value="Check Unity documentation" style="text;strokeColor=none;fillColor=none;align=left;verticalAlign=top;spacingLeft=4;spacingRight=4;overflow=hidden;rotatable=0;points=[[0,0.5],[1,0.5]];portConstraint=eastwest;whiteSpace=wrap;html=1;" vertex="1" parent="PucGmFwP9agxMgpOTaXp-34">
          <mxGeometry y="40" width="160" height="26" as="geometry" />
        </mxCell>
        <mxCell id="PucGmFwP9agxMgpOTaXp-55" value="Collider (Unity native class)" style="swimlane;fontStyle=1;align=center;verticalAlign=top;childLayout=stackLayout;horizontal=1;startSize=26;horizontalStack=0;resizeParent=1;resizeParentMax=0;resizeLast=0;collapsible=1;marginBottom=0;whiteSpace=wrap;html=1;" vertex="1" parent="WIyWlLk6GJQsqaUBKTNV-1">
          <mxGeometry x="2140" y="838" width="160" height="52" as="geometry" />
        </mxCell>
        <mxCell id="PucGmFwP9agxMgpOTaXp-56" value="Check Unity documentation" style="text;strokeColor=none;fillColor=none;align=left;verticalAlign=top;spacingLeft=4;spacingRight=4;overflow=hidden;rotatable=0;points=[[0,0.5],[1,0.5]];portConstraint=eastwest;whiteSpace=wrap;html=1;" vertex="1" parent="PucGmFwP9agxMgpOTaXp-55">
          <mxGeometry y="26" width="160" height="26" as="geometry" />
        </mxCell>
        <mxCell id="PucGmFwP9agxMgpOTaXp-58" value="MeshCollider (Unity native class)" style="swimlane;fontStyle=1;align=center;verticalAlign=top;childLayout=stackLayout;horizontal=1;startSize=26;horizontalStack=0;resizeParent=1;resizeParentMax=0;resizeLast=0;collapsible=1;marginBottom=0;whiteSpace=wrap;html=1;" vertex="1" parent="WIyWlLk6GJQsqaUBKTNV-1">
          <mxGeometry x="2140" y="930" width="160" height="52" as="geometry" />
        </mxCell>
        <mxCell id="PucGmFwP9agxMgpOTaXp-59" value="Check Unity documentation" style="text;strokeColor=none;fillColor=none;align=left;verticalAlign=top;spacingLeft=4;spacingRight=4;overflow=hidden;rotatable=0;points=[[0,0.5],[1,0.5]];portConstraint=eastwest;whiteSpace=wrap;html=1;" vertex="1" parent="PucGmFwP9agxMgpOTaXp-58">
          <mxGeometry y="26" width="160" height="26" as="geometry" />
        </mxCell>
        <mxCell id="PucGmFwP9agxMgpOTaXp-61" value="Gizmos (Unity native class)" style="swimlane;fontStyle=1;align=center;verticalAlign=top;childLayout=stackLayout;horizontal=1;startSize=26;horizontalStack=0;resizeParent=1;resizeParentMax=0;resizeLast=0;collapsible=1;marginBottom=0;whiteSpace=wrap;html=1;" vertex="1" parent="WIyWlLk6GJQsqaUBKTNV-1">
          <mxGeometry x="1870" y="190" width="160" height="52" as="geometry" />
        </mxCell>
        <mxCell id="PucGmFwP9agxMgpOTaXp-64" value="Check Unity documentation" style="text;strokeColor=none;fillColor=none;align=left;verticalAlign=top;spacingLeft=4;spacingRight=4;overflow=hidden;rotatable=0;points=[[0,0.5],[1,0.5]];portConstraint=eastwest;whiteSpace=wrap;html=1;" vertex="1" parent="PucGmFwP9agxMgpOTaXp-61">
          <mxGeometry y="26" width="160" height="26" as="geometry" />
        </mxCell>
      </root>
    </mxGraphModel>
  </diagram>
</mxfile>
